  0
SECTION
  2
HEADER
  9
$ACADVER
  1
AC1027
  9
$ACADMAINTVER
 70
   105
  9
$DWGCODEPAGE
  3
ANSI_1252
  9
$LASTSAVEDBY
  1
DE00008480
  9
$REQUIREDVERSIONS
160
                 0
  9
$INSBASE
 10
0.0
 20
0.0
 30
0.0
  9
$EXTMIN
 10
181.0
 20
126.0
 30
0.0
  9
$EXTMAX
 10
213.0
 20
217.0000000001
 30
0.0
  9
$LIMMIN
 10
181.0
 20
126.0
  9
$LIMMAX
 10
213.0
 20
217.0000000001
  9
$ORTHOMODE
 70
     0
  9
$REGENMODE
 70
     1
  9
$FILLMODE
 70
     1
  9
$QTEXTMODE
 70
     0
  9
$MIRRTEXT
 70
     1
  9
$LTSCALE
 40
1.0
  9
$ATTMODE
 70
     1
  9
$TEXTSIZE
 40
2.5
  9
$TRACEWID
 40
1.0
  9
$TEXTSTYLE
  7
Standard
  9
$CLAYER
  8
0
  9
$CELTYPE
  6
ByLayer
  9
$CECOLOR
 62
   256
  9
$CELTSCALE
 40
1.0
  9
$DISPSILH
 70
     0
  9
$DIMSCALE
 40
1.0
  9
$DIMASZ
 40
2.5
  9
$DIMEXO
 40
0.625
  9
$DIMDLI
 40
3.75
  9
$DIMRND
 40
0.0
  9
$DIMDLE
 40
0.0
  9
$DIMEXE
 40
1.25
  9
$DIMTP
 40
0.0
  9
$DIMTM
 40
0.0
  9
$DIMTXT
 40
2.5
  9
$DIMCEN
 40
2.5
  9
$DIMTSZ
 40
0.0
  9
$DIMTOL
 70
     0
  9
$DIMLIM
 70
     0
  9
$DIMTIH
 70
     0
  9
$DIMTOH
 70
     0
  9
$DIMSE1
 70
     0
  9
$DIMSE2
 70
     0
  9
$DIMTAD
 70
     1
  9
$DIMZIN
 70
     8
  9
$DIMBLK
  1

  9
$DIMASO
 70
     1
  9
$DIMSHO
 70
     1
  9
$DIMPOST
  1

  9
$DIMAPOST
  1

  9
$DIMALT
 70
     0
  9
$DIMALTD
 70
     3
  9
$DIMALTF
 40
0.03937007874016
  9
$DIMLFAC
 40
1.0
  9
$DIMTOFL
 70
     1
  9
$DIMTVP
 40
0.0
  9
$DIMTIX
 70
     0
  9
$DIMSOXD
 70
     0
  9
$DIMSAH
 70
     0
  9
$DIMBLK1
  1

  9
$DIMBLK2
  1

  9
$DIMSTYLE
  2
ISO-25
  9
$DIMCLRD
 70
     0
  9
$DIMCLRE
 70
     0
  9
$DIMCLRT
 70
     0
  9
$DIMTFAC
 40
1.0
  9
$DIMGAP
 40
0.625
  9
$DIMJUST
 70
     0
  9
$DIMSD1
 70
     0
  9
$DIMSD2
 70
     0
  9
$DIMTOLJ
 70
     0
  9
$DIMTZIN
 70
     8
  9
$DIMALTZ
 70
     0
  9
$DIMALTTZ
 70
     0
  9
$DIMUPT
 70
     0
  9
$DIMDEC
 70
     2
  9
$DIMTDEC
 70
     2
  9
$DIMALTU
 70
     2
  9
$DIMALTTD
 70
     3
  9
$DIMTXSTY
  7
Standard
  9
$DIMAUNIT
 70
     0
  9
$DIMADEC
 70
     0
  9
$DIMALTRND
 40
0.0
  9
$DIMAZIN
 70
     0
  9
$DIMDSEP
 70
    44
  9
$DIMATFIT
 70
     3
  9
$DIMFRAC
 70
     0
  9
$DIMLDRBLK
  1

  9
$DIMLUNIT
 70
     2
  9
$DIMLWD
 70
    -2
  9
$DIMLWE
 70
    -2
  9
$DIMTMOVE
 70
     0
  9
$DIMFXL
 40
1.0
  9
$DIMFXLON
 70
     0
  9
$DIMJOGANG
 40
0.7853981633974483
  9
$DIMTFILL
 70
     0
  9
$DIMTFILLCLR
 70
     0
  9
$DIMARCSYM
 70
     0
  9
$DIMLTYPE
  6

  9
$DIMLTEX1
  6

  9
$DIMLTEX2
  6

  9
$DIMTXTDIRECTION
 70
     0
  9
$LUNITS
 70
     2
  9
$LUPREC
 70
     4
  9
$SKETCHINC
 40
1.0
  9
$FILLETRAD
 40
10.0
  9
$AUNITS
 70
     0
  9
$AUPREC
 70
     0
  9
$MENU
  1
.
  9
$ELEVATION
 40
0.0
  9
$PELEVATION
 40
0.0
  9
$THICKNESS
 40
0.0
  9
$LIMCHECK
 70
     0
  9
$CHAMFERA
 40
0.0
  9
$CHAMFERB
 40
0.0
  9
$CHAMFERC
 40
0.0
  9
$CHAMFERD
 40
0.0
  9
$SKPOLY
 70
     0
  9
$TDCREATE
 40
2460581.814559746
  9
$TDUCREATE
 40
2460581.731226412
  9
$TDUPDATE
 40
2460581.814559919
  9
$TDUUPDATE
 40
2460581.731226586
  9
$TDINDWG
 40
0.0000000116
  9
$TDUSRTIMER
 40
0.0000000116
  9
$USRTIMER
 70
     1
  9
$ANGBASE
 50
0.0
  9
$ANGDIR
 70
     0
  9
$PDMODE
 70
     0
  9
$PDSIZE
 40
0.0
  9
$PLINEWID
 40
0.0
  9
$SPLFRAME
 70
     0
  9
$SPLINETYPE
 70
     6
  9
$SPLINESEGS
 70
     8
  9
$HANDSEED
  5
26F
  9
$SURFTAB1
 70
     6
  9
$SURFTAB2
 70
     6
  9
$SURFTYPE
 70
     6
  9
$SURFU
 70
     6
  9
$SURFV
 70
     6
  9
$UCSBASE
  2

  9
$UCSNAME
  2

  9
$UCSORG
 10
0.0
 20
0.0
 30
0.0
  9
$UCSXDIR
 10
1.0
 20
0.0
 30
0.0
  9
$UCSYDIR
 10
0.0
 20
1.0
 30
0.0
  9
$UCSORTHOREF
  2

  9
$UCSORTHOVIEW
 70
     0
  9
$UCSORGTOP
 10
0.0
 20
0.0
 30
0.0
  9
$UCSORGBOTTOM
 10
0.0
 20
0.0
 30
0.0
  9
$UCSORGLEFT
 10
0.0
 20
0.0
 30
0.0
  9
$UCSORGRIGHT
 10
0.0
 20
0.0
 30
0.0
  9
$UCSORGFRONT
 10
0.0
 20
0.0
 30
0.0
  9
$UCSORGBACK
 10
0.0
 20
0.0
 30
0.0
  9
$PUCSBASE
  2

  9
$PUCSNAME
  2

  9
$PUCSORG
 10
0.0
 20
0.0
 30
0.0
  9
$PUCSXDIR
 10
1.0
 20
0.0
 30
0.0
  9
$PUCSYDIR
 10
0.0
 20
1.0
 30
0.0
  9
$PUCSORTHOREF
  2

  9
$PUCSORTHOVIEW
 70
     0
  9
$PUCSORGTOP
 10
0.0
 20
0.0
 30
0.0
  9
$PUCSORGBOTTOM
 10
0.0
 20
0.0
 30
0.0
  9
$PUCSORGLEFT
 10
0.0
 20
0.0
 30
0.0
  9
$PUCSORGRIGHT
 10
0.0
 20
0.0
 30
0.0
  9
$PUCSORGFRONT
 10
0.0
 20
0.0
 30
0.0
  9
$PUCSORGBACK
 10
0.0
 20
0.0
 30
0.0
  9
$USERI1
 70
     0
  9
$USERI2
 70
     0
  9
$USERI3
 70
     0
  9
$USERI4
 70
     0
  9
$USERI5
 70
     0
  9
$USERR1
 40
0.0
  9
$USERR2
 40
0.0
  9
$USERR3
 40
0.0
  9
$USERR4
 40
0.0
  9
$USERR5
 40
0.0
  9
$WORLDVIEW
 70
     1
  9
$SHADEDGE
 70
     3
  9
$SHADEDIF
 70
    70
  9
$TILEMODE
 70
     1
  9
$MAXACTVP
 70
    64
  9
$PINSBASE
 10
0.0
 20
0.0
 30
0.0
  9
$PLIMCHECK
 70
     0
  9
$PEXTMIN
 10
181.0
 20
126.0
 30
0.0
  9
$PEXTMAX
 10
213.0
 20
217.0000000001
 30
0.0
  9
$PLIMMIN
 10
181.0
 20
126.0
  9
$PLIMMAX
 10
213.0
 20
217.0000000001
  9
$UNITMODE
 70
     0
  9
$VISRETAIN
 70
     1
  9
$PLINEGEN
 70
     0
  9
$PSLTSCALE
 70
     1
  9
$TREEDEPTH
 70
  3020
  9
$CMLSTYLE
  2
Standard
  9
$CMLJUST
 70
     0
  9
$CMLSCALE
 40
20.0
  9
$PROXYGRAPHICS
 70
     1
  9
$MEASUREMENT
 70
     1
  9
$CELWEIGHT
370
    -1
  9
$ENDCAPS
280
     0
  9
$JOINSTYLE
280
     0
  9
$LWDISPLAY
290
     1
  9
$INSUNITS
 70
     4
  9
$HYPERLINKBASE
  1

  9
$STYLESHEET
  1

  9
$XEDIT
290
     1
  9
$CEPSNTYPE
380
     0
  9
$PSTYLEMODE
290
     1
  9
$FINGERPRINTGUID
  2
{47eca349-39f9-4c27-a264-06bad257d340}
  9
$VERSIONGUID
  2
{FAEB1C32-E019-11D5-929B-00C0DF256EC4}
  9
$EXTNAMES
290
     1
  9
$PSVPSCALE
 40
0.0
  9
$OLESTARTUP
290
     0
  9
$SORTENTS
280
   127
  9
$INDEXCTL
280
     0
  9
$HIDETEXT
280
     1
  9
$XCLIPFRAME
280
     2
  9
$HALOGAP
280
     0
  9
$OBSCOLOR
 70
   257
  9
$OBSLTYPE
280
     0
  9
$INTERSECTIONDISPLAY
280
     0
  9
$INTERSECTIONCOLOR
 70
   257
  9
$DIMASSOC
280
     2
  9
$PROJECTNAME
  1

  9
$CAMERADISPLAY
290
     0
  9
$LENSLENGTH
 40
50.0
  9
$CAMERAHEIGHT
 40
0.0
  9
$STEPSPERSEC
 40
2.0
  9
$STEPSIZE
 40
6.0
  9
$3DDWFPREC
 40
2.0
  9
$PSOLWIDTH
 40
5.0
  9
$PSOLHEIGHT
 40
80.0
  9
$LOFTANG1
 40
1.570796326794897
  9
$LOFTANG2
 40
1.570796326794897
  9
$LOFTMAG1
 40
0.0
  9
$LOFTMAG2
 40
0.0
  9
$LOFTPARAM
 70
     7
  9
$LOFTNORMALS
280
     1
  9
$LATITUDE
 40
37.795
  9
$LONGITUDE
 40
-122.394
  9
$NORTHDIRECTION
 40
0.0
  9
$TIMEZONE
 70
 -8000
  9
$LIGHTGLYPHDISPLAY
280
     1
  9
$TILEMODELIGHTSYNCH
280
     1
  9
$CMATERIAL
347
44
  9
$SOLIDHIST
280
     0
  9
$SHOWHIST
280
     1
  9
$DWFFRAME
280
     2
  9
$DGNFRAME
280
     2
  9
$REALWORLDSCALE
290
     1
  9
$INTERFERECOLOR
 62
   256
  9
$CSHADOW
280
     0
  9
$SHADOWPLANELOCATION
 40
0.0
  0
ENDSEC
  0
SECTION
  2
CLASSES
  0
CLASS
  1
ACDBDICTIONARYWDFLT
  2
AcDbDictionaryWithDefault
  3
ObjectDBX Classes
 90
        0
 91
        3
280
     0
281
     0
  0
CLASS
  1
VISUALSTYLE
  2
AcDbVisualStyle
  3
ObjectDBX Classes
 90
     4095
 91
        3
280
     0
281
     0
  0
CLASS
  1
MATERIAL
  2
AcDbMaterial
  3
ObjectDBX Classes
 90
     1153
 91
        3
280
     0
281
     0
  0
CLASS
  1
SCALE
  2
AcDbScale
  3
ObjectDBX Classes
 90
     1153
 91
        3
280
     0
281
     0
  0
CLASS
  1
TABLESTYLE
  2
AcDbTableStyle
  3
ObjectDBX Classes
 90
     4095
 91
        3
280
     0
281
     0
  0
CLASS
  1
MLEADERSTYLE
  2
AcDbMLeaderStyle
  3
ACDB_MLEADERSTYLE_CLASS
 90
     4095
 91
        3
280
     0
281
     0
  0
CLASS
  1
SUN
  2
AcDbSun
  3
SCENEOE
 90
     1153
 91
        3
280
     0
281
     0
  0
CLASS
  1
RASTERVARIABLES
  2
AcDbRasterVariables
  3
ISM
 90
        0
 91
        3
280
     0
281
     0
  0
CLASS
  1
DICTIONARYVAR
  2
AcDbDictionaryVar
  3
ObjectDBX Classes
 90
        0
 91
        3
280
     0
281
     0
  0
CLASS
  1
CELLSTYLEMAP
  2
AcDbCellStyleMap
  3
ObjectDBX Classes
 90
     1152
 91
        3
280
     0
281
     0
  0
ENDSEC
  0
SECTION
  2
TABLES
  0
TABLE
  2
VPORT
  5
8
330
0
100
AcDbSymbolTable
 70
     1
  0
VPORT
  5
29
330
8
100
AcDbSymbolTableRecord
100
AcDbViewportTableRecord
  2
*Active
 70
     0
 10
0.0
 20
0.0
 11
1.0
 21
1.0
 12
197.0
 22
171.50000000005
 13
0.0
 23
0.0
 14
10.0
 24
10.0
 15
10.0
 25
10.0
 16
0.0
 26
0.0
 36
1.0
 17
0.0
 27
0.0
 37
0.0
 40
91.00000000009999
 41
1.32
 42
50.0
 43
0.0
 44
0.0
 50
0.0
 51
0.0
 71
     0
 72
   100
 73
     1
 74
     3
 75
     0
 76
     0
 77
     0
 78
     0
281
     0
 65
     1
110
0.0
120
0.0
130
0.0
111
1.0
121
0.0
131
0.0
112
0.0
122
1.0
132
0.0
 79
     0
146
0.0
348
2F
 60
     3
 61
     5
292
     1
282
     1
141
0.0
142
0.0
 63
   250
361
6D
  0
ENDTAB
  0
TABLE
  2
LTYPE
  5
5
330
0
100
AcDbSymbolTable
 70
     6
  0
LTYPE
  5
14
330
5
100
AcDbSymbolTableRecord
100
AcDbLinetypeTableRecord
  2
ByBlock
 70
     0
  3

 72
    65
 73
     0
 40
0.0
  0
LTYPE
  5
15
330
5
100
AcDbSymbolTableRecord
100
AcDbLinetypeTableRecord
  2
ByLayer
 70
     0
  3

 72
    65
 73
     0
 40
0.0
  0
LTYPE
  5
16
330
5
100
AcDbSymbolTableRecord
100
AcDbLinetypeTableRecord
  2
Continuous
 70
     0
  3
Solid line
 72
    65
 73
     0
 40
0.0
  0
LTYPE
  5
71
330
5
100
AcDbSymbolTableRecord
100
AcDbLinetypeTableRecord
  2
EPL_DASH
 70
     0
  3

 72
    65
 73
     2
 40
1.0
 49
0.5
 74
     0
 49
-0.5
 74
     0
  0
LTYPE
  5
72
330
5
100
AcDbSymbolTableRecord
100
AcDbLinetypeTableRecord
  2
EPL_DASHDOT
 70
     0
  3

 72
    65
 73
     4
 40
1.0
 49
0.8
 74
     0
 49
-0.1
 74
     0
 49
0.0
 74
     0
 49
-0.1
 74
     0
  0
LTYPE
  5
7A
330
5
100
AcDbSymbolTableRecord
100
AcDbLinetypeTableRecord
  2
EPL_DASH2
 70
     0
  3

 72
    65
 73
     2
 40
1.0
 49
0.66
 74
     0
 49
-0.34
 74
     0
  0
LTYPE
  5
7B
330
5
100
AcDbSymbolTableRecord
100
AcDbLinetypeTableRecord
  2
EPL_DASHDOTDOT
 70
     0
  3

 72
    65
 73
     6
 40
0.9999999999999999
 49
0.5
 74
     0
 49
-0.1
 74
     0
 49
0.1
 74
     0
 49
-0.1
 74
     0
 49
0.1
 74
     0
 49
-0.1
 74
     0
  0
LTYPE
  5
7D
330
5
100
AcDbSymbolTableRecord
100
AcDbLinetypeTableRecord
  2
EPL_DOT
 70
     0
  3

 72
    65
 73
     4
 40
1.0
 49
0.0
 74
     0
 49
-0.5
 74
     0
 49
0.0
 74
     0
 49
-0.5
 74
     0
  0
ENDTAB
  0
TABLE
  2
LAYER
  5
2
330
0
100
AcDbSymbolTable
 70
    42
  0
LAYER
  5
10
330
2
100
AcDbSymbolTableRecord
100
AcDbLayerTableRecord
  2
0
 70
     0
 62
     7
  6
Continuous
370
    -3
390
F
347
46
348
0
  0
LAYER
  5
6F
330
2
100
AcDbSymbolTableRecord
100
AcDbLayerTableRecord
  2
EPLAN_Graphic
 70
     0
 62
   240
  6
Continuous
370
    50
390
F
347
46
348
0
1001
AcAecLayerStandard
1000

1000
Grafik.Allgemein
  0
LAYER
  5
73
330
2
100
AcDbSymbolTableRecord
100
AcDbLayerTableRecord
  2
EPLAN_Symbol
 70
     0
 62
     7
  6
Continuous
370
    25
390
F
347
46
348
0
1001
AcAecLayerStandard
1000

1000
Symbolgrafik.Allgemein
  0
LAYER
  5
74
330
2
100
AcDbSymbolTableRecord
100
AcDbLayerTableRecord
  2
EPLAN_Property
 70
     0
 62
     1
  6
Continuous
370
    25
390
F
347
46
348
0
1001
AcAecLayerStandard
1000

1000
Eigenschaftsplatzierung.Stranganschlusssymbole.Verbindungsstranganschlüsse
  0
LAYER
  5
75
330
2
100
AcDbSymbolTableRecord
100
AcDbLayerTableRecord
  2
EPLAN_Invisible
 70
     0
 62
    -7
  6
Continuous
290
     0
370
    25
390
F
347
46
348
0
1001
AcAecLayerStandard
1000

1000
Grafik.Unsichtbar
  0
LAYER
  5
76
330
2
100
AcDbSymbolTableRecord
100
AcDbLayerTableRecord
  2
EPLAN326
 70
     0
 62
     1
  6
EPL_DASH
290
     0
370
    25
390
F
347
46
348
0
1001
AcAecLayerStandard
1000

1000
Symbolgrafik.Makro.Makrokästen (definierend)
  0
LAYER
  5
77
330
2
100
AcDbSymbolTableRecord
100
AcDbLayerTableRecord
  2
EPLAN327
 70
     0
 62
     7
  6
EPL_DASH
290
     0
370
    25
390
F
347
46
348
0
1001
AcAecLayerStandard
1000

1000
Symbolgrafik.Makro.Makrokästen (referenzierend)
  0
LAYER
  5
78
330
2
100
AcDbSymbolTableRecord
100
AcDbLayerTableRecord
  2
EPLAN328
 70
     0
 62
     4
  6
EPL_DASH
370
    25
390
F
347
46
348
0
1001
AcAecLayerStandard
1000

1000
Symbolgrafik.SPS-Kästen (Fluid)
  0
LAYER
  5
79
330
2
100
AcDbSymbolTableRecord
100
AcDbLayerTableRecord
  2
EPLAN_Text
 70
     0
 62
    73
  6
Continuous
370
    35
390
F
347
46
348
0
1001
AcAecLayerStandard
1000

1000
Sondertexte.Platzhaltertexte
  0
LAYER
  5
7C
330
2
100
AcDbSymbolTableRecord
100
AcDbLayerTableRecord
  2
EPLAN_3D
 70
     0
 62
   253
  6
Continuous
370
    50
390
F
347
46
348
0
1001
AcAecLayerStandard
1000

1000
3D-Grafik.Schrank
  0
LAYER
  5
7E
330
2
100
AcDbSymbolTableRecord
100
AcDbLayerTableRecord
  2
EPLAN657
 70
     0
 62
   240
  6
Continuous
370
    18
390
F
347
46
348
0
1001
AcAecLayerStandard
1000

1000
Grafik.Abwicklung.Kupfer
  0
LAYER
  5
7F
330
2
100
AcDbSymbolTableRecord
100
AcDbLayerTableRecord
  2
EPLAN691
 70
     0
 62
    30
  6
Continuous
370
    35
390
F
347
46
348
0
1001
AcAecLayerStandard
1000

1000
Grafik.Bohrschablone.Mechanische Bearbeitung.Bohrung
  0
LAYER
  5
80
330
2
100
AcDbSymbolTableRecord
100
AcDbLayerTableRecord
  2
EPLAN692
 70
     0
 62
    30
  6
Continuous
370
    35
390
F
347
46
348
0
1001
AcAecLayerStandard
1000

1000
Grafik.Bohrschablone.Mechanische Bearbeitung.Gewinde
  0
LAYER
  5
81
330
2
100
AcDbSymbolTableRecord
100
AcDbLayerTableRecord
  2
EPLAN693
 70
     0
 62
    30
  6
Continuous
370
    35
390
F
347
46
348
0
1001
AcAecLayerStandard
1000

1000
Grafik.Bohrschablone.Mechanische Bearbeitung.Standardkontur
  0
LAYER
  5
82
330
2
100
AcDbSymbolTableRecord
100
AcDbLayerTableRecord
  2
EPLAN694
 70
     0
 62
    30
  6
Continuous
370
    35
390
F
347
46
348
0
1001
AcAecLayerStandard
1000

1000
Grafik.Bohrschablone.Mechanische Bearbeitung.Benutzerdefinierte Kontur
  0
LAYER
  5
83
330
2
100
AcDbSymbolTableRecord
100
AcDbLayerTableRecord
  2
EPLAN810
 70
     0
 62
     7
  6
Continuous
370
    50
390
F
347
46
348
0
1001
AcAecLayerStandard
1000

1000
3D-Grafik.Thermische Auslegung.Kaltluftpfeil
  0
LAYER
  5
84
330
2
100
AcDbSymbolTableRecord
100
AcDbLayerTableRecord
  2
EPLAN811
 70
     0
 62
     1
  6
Continuous
370
    50
390
F
347
46
348
0
1001
AcAecLayerStandard
1000

1000
3D-Grafik.Thermische Auslegung.Warmluftpfeil
  0
LAYER
  5
85
330
2
100
AcDbSymbolTableRecord
100
AcDbLayerTableRecord
  2
EPLAN812
 70
     0
 62
   131
  6
Continuous
370
    50
390
F
347
46
348
0
1001
AcAecLayerStandard
1000

1000
3D-Grafik.Thermische Auslegung.Verlustleistungsdichte sehr gering
  0
LAYER
  5
86
330
2
100
AcDbSymbolTableRecord
100
AcDbLayerTableRecord
  2
EPLAN813
 70
     0
 62
    40
  6
Continuous
370
    50
390
F
347
46
348
0
1001
AcAecLayerStandard
1000

1000
3D-Grafik.Thermische Auslegung.Verlustleistungsdichte gering
  0
LAYER
  5
87
330
2
100
AcDbSymbolTableRecord
100
AcDbLayerTableRecord
  2
EPLAN814
 70
     0
 62
    30
  6
Continuous
370
    50
390
F
347
46
348
0
1001
AcAecLayerStandard
1000

1000
3D-Grafik.Thermische Auslegung.Verlustleistungsdichte mittel
  0
LAYER
  5
88
330
2
100
AcDbSymbolTableRecord
100
AcDbLayerTableRecord
  2
EPLAN815
 70
     0
 62
    20
  6
Continuous
370
    50
390
F
347
46
348
0
1001
AcAecLayerStandard
1000

1000
3D-Grafik.Thermische Auslegung.Verlustleistungsdichte hoch
  0
LAYER
  5
89
330
2
100
AcDbSymbolTableRecord
100
AcDbLayerTableRecord
  2
EPLAN816
 70
     0
 62
    10
  6
Continuous
370
    50
390
F
347
46
348
0
1001
AcAecLayerStandard
1000

1000
3D-Grafik.Thermische Auslegung.Verlustleistungsdichte sehr hoch
  0
LAYER
  5
8A
330
2
100
AcDbSymbolTableRecord
100
AcDbLayerTableRecord
  2
EPLAN817
 70
     0
 62
   150
  6
Continuous
370
    50
390
F
347
46
348
0
1001
AcAecLayerStandard
1000

1000
3D-Grafik.Thermische Auslegung.Optimal klimatisierter Bereich
  0
LAYER
  5
8B
330
2
100
AcDbSymbolTableRecord
100
AcDbLayerTableRecord
  2
EPLAN818
 70
     0
 62
     4
  6
Continuous
370
    50
390
F
347
46
348
0
1001
AcAecLayerStandard
1000

1000
3D-Grafik.Thermische Auslegung.Lüftungstechnischer Sperrraum
  0
LAYER
  5
8C
330
2
100
AcDbSymbolTableRecord
100
AcDbLayerTableRecord
  2
EPLAN819
 70
     0
 62
   240
  6
Continuous
370
   200
390
F
347
46
348
0
1001
AcAecLayerStandard
1000

1000
Symbolgrafik.Verbindungssymbole.Autoconnecting.P&ID.EN1861.Rohrleitung, allgemein
  0
LAYER
  5
8D
330
2
100
AcDbSymbolTableRecord
100
AcDbLayerTableRecord
  2
EPLAN820
 70
     0
 62
   240
  6
Continuous
370
   100
390
F
347
46
348
0
1001
AcAecLayerStandard
1000

1000
Symbolgrafik.Verbindungssymbole.Autoconnecting.P&ID.EN1861.Kältemittel Hauptkreislauf 
  0
LAYER
  5
8E
330
2
100
AcDbSymbolTableRecord
100
AcDbLayerTableRecord
  2
EPLAN821
 70
     0
 62
   240
  6
Continuous
370
    50
390
F
347
46
348
0
1001
AcAecLayerStandard
1000

1000
Symbolgrafik.Verbindungssymbole.Autoconnecting.P&ID.EN1861.Kältemittel Nebenkreislauf 
  0
LAYER
  5
8F
330
2
100
AcDbSymbolTableRecord
100
AcDbLayerTableRecord
  2
EPLAN822
 70
     0
 62
   240
  6
EPL_DASHDOT
370
   100
390
F
347
46
348
0
1001
AcAecLayerStandard
1000

1000
Symbolgrafik.Verbindungssymbole.Autoconnecting.P&ID.EN1861.Lösungen
  0
LAYER
  5
90
330
2
100
AcDbSymbolTableRecord
100
AcDbLayerTableRecord
  2
EPLAN823
 70
     0
 62
   240
  6
EPL_DASH2
370
    50
390
F
347
46
348
0
1001
AcAecLayerStandard
1000

1000
Symbolgrafik.Verbindungssymbole.Autoconnecting.P&ID.EN1861.Kühlwasser
  0
LAYER
  5
91
330
2
100
AcDbSymbolTableRecord
100
AcDbLayerTableRecord
  2
EPLAN824
 70
     0
 62
   240
  6
EPL_DASHDOT
370
    25
390
F
347
46
348
0
1001
AcAecLayerStandard
1000

1000
Symbolgrafik.Verbindungssymbole.Autoconnecting.P&ID.EN1861.Sonstige Stoffe
  0
LAYER
  5
92
330
2
100
AcDbSymbolTableRecord
100
AcDbLayerTableRecord
  2
EPLAN825
 70
     0
 62
   240
  6
Continuous
370
   100
390
F
347
46
348
0
1001
AcAecLayerStandard
1000

1000
Symbolgrafik.Verbindungssymbole.Autoconnecting.P&ID.EN1861.Kühlender oder erwärmender Stoff
  0
LAYER
  5
93
330
2
100
AcDbSymbolTableRecord
100
AcDbLayerTableRecord
  2
EPLAN826
 70
     0
 62
  -240
  6
Continuous
290
     0
370
    35
390
F
347
46
348
0
1001
AcAecLayerStandard
1000

1000
Eigenschaftsplatzierung.Anschlussbezeichnungen.P&ID
  0
LAYER
  5
94
330
2
100
AcDbSymbolTableRecord
100
AcDbLayerTableRecord
  2
EPLAN827
 70
     0
 62
    -7
  6
Continuous
290
     0
370
    35
390
F
347
46
348
0
1001
AcAecLayerStandard
1000

1000
Eigenschaftsplatzierung.Anschlussbeschreibungen.P&ID
  0
LAYER
  5
95
330
2
100
AcDbSymbolTableRecord
100
AcDbLayerTableRecord
  2
EPLAN828
 70
     0
 62
   240
  6
Continuous
370
   200
390
F
347
46
348
0
1001
AcAecLayerStandard
1000

1000
Symbolgrafik.Verbindungssymbole.Autoconnecting.P&ID.EN1861.Rohrleitung wärmegedämmt
  0
LAYER
  5
96
330
2
100
AcDbSymbolTableRecord
100
AcDbLayerTableRecord
  2
EPLAN829
 70
     0
 62
   240
  6
Continuous
370
   158
390
F
347
46
348
0
1001
AcAecLayerStandard
1000

1000
Symbolgrafik.Verbindungssymbole.Autoconnecting.P&ID.EN1861.Rohrleitung, beheizt oder gekühlt
  0
LAYER
  5
97
330
2
100
AcDbSymbolTableRecord
100
AcDbLayerTableRecord
  2
EPLAN830
 70
     0
 62
   240
  6
Continuous
370
   200
390
F
347
46
348
0
1001
AcAecLayerStandard
1000

1000
Symbolgrafik.Verbindungssymbole.Autoconnecting.P&ID.EN1861.Rohrleitung, beheizt oder gekühlt und wärmegedämmt
  0
LAYER
  5
98
330
2
100
AcDbSymbolTableRecord
100
AcDbLayerTableRecord
  2
EPLAN831
 70
     0
 62
   240
  6
Continuous
370
   100
390
F
347
46
348
0
1001
AcAecLayerStandard
1000

1000
Symbolgrafik.Verbindungssymbole.Autoconnecting.P&ID.EN1861.Wirklinie, allgemein
  0
LAYER
  5
99
330
2
100
AcDbSymbolTableRecord
100
AcDbLayerTableRecord
  2
EPLAN832
 70
     0
 62
    73
  6
Continuous
370
    35
390
F
347
46
348
0
1001
AcAecLayerStandard
1000

1000
Eigenschaftsplatzierung.Querverweise.P&ID
  0
LAYER
  5
9A
330
2
100
AcDbSymbolTableRecord
100
AcDbLayerTableRecord
  2
Sichtbar (ISO)
 70
     0
 62
     7
  6
Continuous
370
    35
390
F
347
46
348
0
1001
AcAecLayerStandard
1000

1000
Sichtbar (ISO)
  0
LAYER
  5
9B
330
2
100
AcDbSymbolTableRecord
100
AcDbLayerTableRecord
  2
Rahmen (ISO)
 70
     0
 62
     7
  6
Continuous
370
    35
390
F
347
46
348
0
1001
AcAecLayerStandard
1000

1000
Rahmen (ISO)
  0
LAYER
  5
9C
330
2
100
AcDbSymbolTableRecord
100
AcDbLayerTableRecord
  2
Rahmen 1 (ISO)
 70
     0
 62
     7
  6
Continuous
370
    18
390
F
347
46
348
0
1001
AcAecLayerStandard
1000

1000
Rahmen 1 (ISO)
  0
LAYER
  5
9D
330
2
100
AcDbSymbolTableRecord
100
AcDbLayerTableRecord
  2
SICHTBAR__ISO_
 70
     0
 62
     7
  6
Continuous
370
    25
390
F
347
46
348
0
1001
AcAecLayerStandard
1000

1000
SICHTBAR__ISO_
  0
ENDTAB
  0
TABLE
  2
STYLE
  5
3
330
0
100
AcDbSymbolTable
 70
     2
  0
STYLE
  5
11
330
3
100
AcDbSymbolTableRecord
100
AcDbTextStyleTableRecord
  2
Standard
 70
     0
 40
0.0
 41
1.0
 50
0.0
 71
     0
 42
2.5
  3
txt
  4

  0
STYLE
  5
11A
330
3
100
AcDbSymbolTableRecord
100
AcDbTextStyleTableRecord
  2
Tahoma
 70
     0
 40
0.0
 41
1.0
 50
0.0
 71
     0
 42
2.5
  3

  4

1001
ACAD
1000
Tahoma
1071
      256
  0
ENDTAB
  0
TABLE
  2
VIEW
  5
6
330
0
100
AcDbSymbolTable
 70
     0
  0
ENDTAB
  0
TABLE
  2
UCS
  5
7
330
0
100
AcDbSymbolTable
 70
     0
  0
ENDTAB
  0
TABLE
  2
APPID
  5
9
330
0
100
AcDbSymbolTable
 70
     2
  0
APPID
  5
12
330
9
100
AcDbSymbolTableRecord
100
AcDbRegAppTableRecord
  2
ACAD
 70
     0
  0
APPID
  5
70
330
9
100
AcDbSymbolTableRecord
100
AcDbRegAppTableRecord
  2
AcAecLayerStandard
 70
     0
  0
ENDTAB
  0
TABLE
  2
DIMSTYLE
  5
A
330
0
100
AcDbSymbolTable
 70
     1
100
AcDbDimStyleTable
  0
DIMSTYLE
105
27
330
A
100
AcDbSymbolTableRecord
100
AcDbDimStyleTableRecord
  2
ISO-25
 70
     0
 41
2.5
 42
0.625
 43
3.75
 44
1.25
 73
     0
 74
     0
 77
     1
 78
     8
140
2.5
141
2.5
143
0.03937007874016
147
0.625
171
     3
172
     1
178
     0
271
     2
272
     2
274
     3
278
    44
283
     0
284
     8
340
11
  0
ENDTAB
  0
TABLE
  2
BLOCK_RECORD
  5
1
330
0
100
AcDbSymbolTable
 70
     2
  0
BLOCK_RECORD
  5
1F
330
1
100
AcDbSymbolTableRecord
100
AcDbBlockTableRecord
  2
*Model_Space
340
22
 70
     0
280
     1
281
     0
  0
BLOCK_RECORD
  5
1B
330
1
100
AcDbSymbolTableRecord
100
AcDbBlockTableRecord
  2
*Paper_Space
340
1E
 70
     0
280
     1
281
     0
  0
BLOCK_RECORD
  5
23
330
1
100
AcDbSymbolTableRecord
100
AcDbBlockTableRecord
  2
*Paper_Space0
340
26
 70
     0
280
     1
281
     0
  0
BLOCK_RECORD
  5
25C
330
1
100
AcDbSymbolTableRecord
100
AcDbBlockTableRecord
  2
EPLSYM_LibrarySPECIAL_Symbol12_Variant0_Placement8
340
0
102
{BLKREFS
331
261
102
}
 70
     0
280
     1
281
     0
  0
ENDTAB
  0
ENDSEC
  0
SECTION
  2
BLOCKS
  0
BLOCK
  5
20
330
1F
100
AcDbEntity
  8
0
100
AcDbBlockBegin
  2
*Model_Space
 70
     0
 10
0.0
 20
0.0
 30
0.0
  3
*Model_Space
  1

  0
ENDBLK
  5
21
330
1F
100
AcDbEntity
  8
0
100
AcDbBlockEnd
  0
BLOCK
  5
1C
330
1B
100
AcDbEntity
 67
     1
  8
0
100
AcDbBlockBegin
  2
*Paper_Space
 70
     0
 10
0.0
 20
0.0
 30
0.0
  3
*Paper_Space
  1

  0
ENDBLK
  5
1D
330
1B
100
AcDbEntity
 67
     1
  8
0
100
AcDbBlockEnd
  0
BLOCK
  5
24
330
23
100
AcDbEntity
  8
0
100
AcDbBlockBegin
  2
*Paper_Space0
 70
     0
 10
0.0
 20
0.0
 30
0.0
  3
*Paper_Space0
  1

  0
ENDBLK
  5
25
330
23
100
AcDbEntity
  8
0
100
AcDbBlockEnd
  0
BLOCK
  5
25D
330
25C
100
AcDbEntity
  8
0
100
AcDbBlockBegin
  2
EPLSYM_LibrarySPECIAL_Symbol12_Variant0_Placement8
 70
     2
 10
0.0
 20
0.0
 30
0.0
  3
EPLSYM_LibrarySPECIAL_Symbol12_Variant0_Placement8
  1

  0
ATTDEF
  5
25F
330
25C
100
AcDbEntity
  8
EPLAN_Property
100
AcDbText
 10
-4.882701600000001
 20
-4.938299606796118
 30
0.0
 40
1.6254
  1
17_20450
  7
Tahoma
 72
     1
 11
0.0
 21
-5.400000000000001
 31
0.0
100
AcDbAttributeDefinition
  3
Enter the legend item number
  2
Legend_Item
 70
     0
 74
     1
280
     0
  0
LWPOLYLINE
  5
260
102
{ACAD_REACTORS
330
9E
102
}
330
25C
100
AcDbEntity
  8
EPLAN_Symbol
 48
4.0
100
AcDbPolyline
 90
        4
 70
     1
 43
0.0
 10
0.0
 20
-90.0
 10
30.0
 20
-90.0
 10
30.0
 20
0.0
 10
0.0
 20
0.0
  0
ENDBLK
  5
25E
330
25C
100
AcDbEntity
  8
0
100
AcDbBlockEnd
  0
ENDSEC
  0
SECTION
  2
ENTITIES
  0
LINE
  5
9F
102
{ACAD_REACTORS
330
9E
102
}
330
1F
100
AcDbEntity
  8
EPLAN_Graphic
370
     0
100
AcDbLine
 10
186.993999999999
 20
216.0
 30
0.0
 11
183.0
 21
216.0
 31
0.0
  0
LINE
  5
A0
102
{ACAD_REACTORS
330
9E
102
}
330
1F
100
AcDbEntity
  8
EPLAN_Graphic
370
     0
100
AcDbLine
 10
183.0
 20
216.0
 30
0.0
 11
183.0
 21
126.036
 31
0.0
  0
LINE
  5
A1
102
{ACAD_REACTORS
330
9E
102
}
330
1F
100
AcDbEntity
  8
EPLAN_Graphic
370
     0
100
AcDbLine
 10
185.499
 20
207.55338
 30
0.0
 11
185.499
 21
206.45382
 31
0.0
  0
LINE
  5
A2
102
{ACAD_REACTORS
330
9E
102
}
330
1F
100
AcDbEntity
  8
EPLAN_Graphic
370
     0
100
AcDbLine
 10
186.898439999997
 20
216.0
 30
0.0
 11
186.898439999997
 21
126.036
 31
0.0
  0
LINE
  5
A3
102
{ACAD_REACTORS
330
9E
102
}
330
1F
100
AcDbEntity
  8
EPLAN_Graphic
370
     0
100
AcDbLine
 10
185.698919999999
 20
193.808880000001
 30
0.0
 11
183.0
 21
193.808880000001
 31
0.0
  0
LINE
  5
A4
102
{ACAD_REACTORS
330
9E
102
}
330
1F
100
AcDbEntity
  8
EPLAN_Graphic
370
     0
100
AcDbLine
 10
183.0
 20
193.808880000001
 30
0.0
 11
183.0
 21
195.0084
 31
0.0
  0
LINE
  5
A5
102
{ACAD_REACTORS
330
9E
102
}
330
1F
100
AcDbEntity
  8
EPLAN_Graphic
370
     0
100
AcDbLine
 10
183.0
 20
195.0084
 30
0.0
 11
185.698919999999
 21
195.0084
 31
0.0
  0
LINE
  5
A6
102
{ACAD_REACTORS
330
9E
102
}
330
1F
100
AcDbEntity
  8
EPLAN_Graphic
370
     0
100
AcDbLine
 10
185.698919999999
 20
195.0084
 30
0.0
 11
185.698919999999
 21
193.808880000001
 31
0.0
  0
LINE
  5
A7
102
{ACAD_REACTORS
330
9E
102
}
330
1F
100
AcDbEntity
  8
EPLAN_Graphic
370
     0
100
AcDbLine
 10
185.698919999999
 20
195.60816
 30
0.0
 11
183.0
 21
195.60816
 31
0.0
  0
LINE
  5
A8
102
{ACAD_REACTORS
330
9E
102
}
330
1F
100
AcDbEntity
  8
EPLAN_Graphic
370
     0
100
AcDbLine
 10
183.0
 20
195.60816
 30
0.0
 11
183.0
 21
196.80768
 31
0.0
  0
LINE
  5
A9
102
{ACAD_REACTORS
330
9E
102
}
330
1F
100
AcDbEntity
  8
EPLAN_Graphic
370
     0
100
AcDbLine
 10
183.0
 20
196.80768
 30
0.0
 11
185.698919999999
 21
196.80768
 31
0.0
  0
LINE
  5
AA
102
{ACAD_REACTORS
330
9E
102
}
330
1F
100
AcDbEntity
  8
EPLAN_Graphic
370
     0
100
AcDbLine
 10
185.698919999999
 20
196.80768
 30
0.0
 11
185.698919999999
 21
195.60816
 31
0.0
  0
LINE
  5
AB
102
{ACAD_REACTORS
330
9E
102
}
330
1F
100
AcDbEntity
  8
EPLAN_Graphic
370
     0
100
AcDbLine
 10
185.698919999999
 20
197.40744
 30
0.0
 11
183.0
 21
197.40744
 31
0.0
  0
LINE
  5
AC
102
{ACAD_REACTORS
330
9E
102
}
330
1F
100
AcDbEntity
  8
EPLAN_Graphic
370
     0
100
AcDbLine
 10
183.0
 20
197.40744
 30
0.0
 11
183.0
 21
198.60696
 31
0.0
  0
LINE
  5
AD
102
{ACAD_REACTORS
330
9E
102
}
330
1F
100
AcDbEntity
  8
EPLAN_Graphic
370
     0
100
AcDbLine
 10
183.0
 20
198.60696
 30
0.0
 11
185.698919999999
 21
198.60696
 31
0.0
  0
LINE
  5
AE
102
{ACAD_REACTORS
330
9E
102
}
330
1F
100
AcDbEntity
  8
EPLAN_Graphic
370
     0
100
AcDbLine
 10
185.698919999999
 20
198.60696
 30
0.0
 11
185.698919999999
 21
197.40744
 31
0.0
  0
LINE
  5
AF
102
{ACAD_REACTORS
330
9E
102
}
330
1F
100
AcDbEntity
  8
EPLAN_Graphic
370
     0
100
AcDbLine
 10
185.698919999999
 20
199.20672
 30
0.0
 11
183.0
 21
199.20672
 31
0.0
  0
LINE
  5
B0
102
{ACAD_REACTORS
330
9E
102
}
330
1F
100
AcDbEntity
  8
EPLAN_Graphic
370
     0
100
AcDbLine
 10
183.0
 20
199.20672
 30
0.0
 11
183.0
 21
200.40624
 31
0.0
  0
LINE
  5
B1
102
{ACAD_REACTORS
330
9E
102
}
330
1F
100
AcDbEntity
  8
EPLAN_Graphic
370
     0
100
AcDbLine
 10
183.0
 20
200.40624
 30
0.0
 11
185.698919999999
 21
200.40624
 31
0.0
  0
LINE
  5
B2
102
{ACAD_REACTORS
330
9E
102
}
330
1F
100
AcDbEntity
  8
EPLAN_Graphic
370
     0
100
AcDbLine
 10
185.698919999999
 20
200.40624
 30
0.0
 11
185.698919999999
 21
199.20672
 31
0.0
  0
LINE
  5
B3
102
{ACAD_REACTORS
330
9E
102
}
330
1F
100
AcDbEntity
  8
EPLAN_Graphic
370
     0
100
AcDbLine
 10
185.698919999999
 20
201.006
 30
0.0
 11
183.0
 21
201.006
 31
0.0
  0
LINE
  5
B4
102
{ACAD_REACTORS
330
9E
102
}
330
1F
100
AcDbEntity
  8
EPLAN_Graphic
370
     0
100
AcDbLine
 10
183.0
 20
201.006
 30
0.0
 11
183.0
 21
202.20552
 31
0.0
  0
LINE
  5
B5
102
{ACAD_REACTORS
330
9E
102
}
330
1F
100
AcDbEntity
  8
EPLAN_Graphic
370
     0
100
AcDbLine
 10
183.0
 20
202.20552
 30
0.0
 11
185.698919999999
 21
202.20552
 31
0.0
  0
LINE
  5
B6
102
{ACAD_REACTORS
330
9E
102
}
330
1F
100
AcDbEntity
  8
EPLAN_Graphic
370
     0
100
AcDbLine
 10
185.698919999999
 20
202.20552
 30
0.0
 11
185.698919999999
 21
201.006
 31
0.0
  0
LINE
  5
B7
102
{ACAD_REACTORS
330
9E
102
}
330
1F
100
AcDbEntity
  8
EPLAN_Graphic
370
     0
100
AcDbLine
 10
185.698919999999
 20
202.80528
 30
0.0
 11
183.0
 21
202.80528
 31
0.0
  0
LINE
  5
B8
102
{ACAD_REACTORS
330
9E
102
}
330
1F
100
AcDbEntity
  8
EPLAN_Graphic
370
     0
100
AcDbLine
 10
183.0
 20
202.80528
 30
0.0
 11
183.0
 21
204.0048
 31
0.0
  0
LINE
  5
B9
102
{ACAD_REACTORS
330
9E
102
}
330
1F
100
AcDbEntity
  8
EPLAN_Graphic
370
     0
100
AcDbLine
 10
183.0
 20
204.0048
 30
0.0
 11
185.698919999999
 21
204.0048
 31
0.0
  0
LINE
  5
BA
102
{ACAD_REACTORS
330
9E
102
}
330
1F
100
AcDbEntity
  8
EPLAN_Graphic
370
     0
100
AcDbLine
 10
185.698919999999
 20
204.0048
 30
0.0
 11
185.698919999999
 21
202.80528
 31
0.0
  0
LINE
  5
BB
102
{ACAD_REACTORS
330
9E
102
}
330
1F
100
AcDbEntity
  8
EPLAN_Graphic
370
     0
100
AcDbLine
 10
185.698919999999
 20
204.60456
 30
0.0
 11
183.0
 21
204.60456
 31
0.0
  0
LINE
  5
BC
102
{ACAD_REACTORS
330
9E
102
}
330
1F
100
AcDbEntity
  8
EPLAN_Graphic
370
     0
100
AcDbLine
 10
183.0
 20
204.60456
 30
0.0
 11
183.0
 21
205.80408
 31
0.0
  0
LINE
  5
BD
102
{ACAD_REACTORS
330
9E
102
}
330
1F
100
AcDbEntity
  8
EPLAN_Graphic
370
     0
100
AcDbLine
 10
183.0
 20
205.80408
 30
0.0
 11
185.698919999999
 21
205.80408
 31
0.0
  0
LINE
  5
BE
102
{ACAD_REACTORS
330
9E
102
}
330
1F
100
AcDbEntity
  8
EPLAN_Graphic
370
     0
100
AcDbLine
 10
185.698919999999
 20
205.80408
 30
0.0
 11
185.698919999999
 21
204.60456
 31
0.0
  0
LINE
  5
BF
102
{ACAD_REACTORS
330
9E
102
}
330
1F
100
AcDbEntity
  8
EPLAN_Graphic
370
     0
100
AcDbLine
 10
185.698919999999
 20
206.40384
 30
0.0
 11
183.0
 21
206.40384
 31
0.0
  0
LINE
  5
C0
102
{ACAD_REACTORS
330
9E
102
}
330
1F
100
AcDbEntity
  8
EPLAN_Graphic
370
     0
100
AcDbLine
 10
183.0
 20
206.40384
 30
0.0
 11
183.0
 21
207.60336
 31
0.0
  0
LINE
  5
C1
102
{ACAD_REACTORS
330
9E
102
}
330
1F
100
AcDbEntity
  8
EPLAN_Graphic
370
     0
100
AcDbLine
 10
183.0
 20
207.60336
 30
0.0
 11
185.698919999999
 21
207.60336
 31
0.0
  0
LINE
  5
C2
102
{ACAD_REACTORS
330
9E
102
}
330
1F
100
AcDbEntity
  8
EPLAN_Graphic
370
     0
100
AcDbLine
 10
185.698919999999
 20
207.60336
 30
0.0
 11
185.698919999999
 21
206.40384
 31
0.0
  0
LINE
  5
C3
102
{ACAD_REACTORS
330
9E
102
}
330
1F
100
AcDbEntity
  8
EPLAN_Graphic
370
     0
100
AcDbLine
 10
183.0
 20
207.55338
 30
0.0
 11
183.0
 21
206.45382
 31
0.0
  0
LINE
  5
C4
102
{ACAD_REACTORS
330
9E
102
}
330
1F
100
AcDbEntity
  8
EPLAN_Graphic
370
     0
100
AcDbLine
 10
183.0
 20
207.55338
 30
0.0
 11
185.499
 21
207.55338
 31
0.0
  0
LINE
  5
C5
102
{ACAD_REACTORS
330
9E
102
}
330
1F
100
AcDbEntity
  8
EPLAN_Graphic
370
     0
100
AcDbLine
 10
185.499
 20
206.45382
 30
0.0
 11
183.0
 21
206.45382
 31
0.0
  0
LINE
  5
C6
102
{ACAD_REACTORS
330
9E
102
}
330
1F
100
AcDbEntity
  8
EPLAN_Graphic
370
     0
100
AcDbLine
 10
183.0
 20
205.7541
 30
0.0
 11
183.0
 21
204.65454
 31
0.0
  0
LINE
  5
C7
102
{ACAD_REACTORS
330
9E
102
}
330
1F
100
AcDbEntity
  8
EPLAN_Graphic
370
     0
100
AcDbLine
 10
183.0
 20
205.7541
 30
0.0
 11
185.499
 21
205.7541
 31
0.0
  0
LINE
  5
C8
102
{ACAD_REACTORS
330
9E
102
}
330
1F
100
AcDbEntity
  8
EPLAN_Graphic
370
     0
100
AcDbLine
 10
185.499
 20
204.65454
 30
0.0
 11
183.0
 21
204.65454
 31
0.0
  0
LINE
  5
C9
102
{ACAD_REACTORS
330
9E
102
}
330
1F
100
AcDbEntity
  8
EPLAN_Graphic
370
     0
100
AcDbLine
 10
183.0
 20
203.95482
 30
0.0
 11
183.0
 21
202.85526
 31
0.0
  0
LINE
  5
CA
102
{ACAD_REACTORS
330
9E
102
}
330
1F
100
AcDbEntity
  8
EPLAN_Graphic
370
     0
100
AcDbLine
 10
183.0
 20
203.95482
 30
0.0
 11
185.499
 21
203.95482
 31
0.0
  0
LINE
  5
CB
102
{ACAD_REACTORS
330
9E
102
}
330
1F
100
AcDbEntity
  8
EPLAN_Graphic
370
     0
100
AcDbLine
 10
185.499
 20
202.85526
 30
0.0
 11
183.0
 21
202.85526
 31
0.0
  0
LINE
  5
CC
102
{ACAD_REACTORS
330
9E
102
}
330
1F
100
AcDbEntity
  8
EPLAN_Graphic
370
     0
100
AcDbLine
 10
183.0
 20
202.15554
 30
0.0
 11
183.0
 21
201.05598
 31
0.0
  0
LINE
  5
CD
102
{ACAD_REACTORS
330
9E
102
}
330
1F
100
AcDbEntity
  8
EPLAN_Graphic
370
     0
100
AcDbLine
 10
183.0
 20
202.15554
 30
0.0
 11
185.499
 21
202.15554
 31
0.0
  0
LINE
  5
CE
102
{ACAD_REACTORS
330
9E
102
}
330
1F
100
AcDbEntity
  8
EPLAN_Graphic
370
     0
100
AcDbLine
 10
185.499
 20
201.05598
 30
0.0
 11
183.0
 21
201.05598
 31
0.0
  0
LINE
  5
CF
102
{ACAD_REACTORS
330
9E
102
}
330
1F
100
AcDbEntity
  8
EPLAN_Graphic
370
     0
100
AcDbLine
 10
183.0
 20
200.35626
 30
0.0
 11
183.0
 21
199.2567
 31
0.0
  0
LINE
  5
D0
102
{ACAD_REACTORS
330
9E
102
}
330
1F
100
AcDbEntity
  8
EPLAN_Graphic
370
     0
100
AcDbLine
 10
183.0
 20
200.35626
 30
0.0
 11
185.499
 21
200.35626
 31
0.0
  0
LINE
  5
D1
102
{ACAD_REACTORS
330
9E
102
}
330
1F
100
AcDbEntity
  8
EPLAN_Graphic
370
     0
100
AcDbLine
 10
185.499
 20
199.2567
 30
0.0
 11
183.0
 21
199.2567
 31
0.0
  0
LINE
  5
D2
102
{ACAD_REACTORS
330
9E
102
}
330
1F
100
AcDbEntity
  8
EPLAN_Graphic
370
     0
100
AcDbLine
 10
183.0
 20
198.55698
 30
0.0
 11
183.0
 21
197.45742
 31
0.0
  0
LINE
  5
D3
102
{ACAD_REACTORS
330
9E
102
}
330
1F
100
AcDbEntity
  8
EPLAN_Graphic
370
     0
100
AcDbLine
 10
183.0
 20
198.55698
 30
0.0
 11
185.499
 21
198.55698
 31
0.0
  0
LINE
  5
D4
102
{ACAD_REACTORS
330
9E
102
}
330
1F
100
AcDbEntity
  8
EPLAN_Graphic
370
     0
100
AcDbLine
 10
185.499
 20
197.45742
 30
0.0
 11
183.0
 21
197.45742
 31
0.0
  0
LINE
  5
D5
102
{ACAD_REACTORS
330
9E
102
}
330
1F
100
AcDbEntity
  8
EPLAN_Graphic
370
     0
100
AcDbLine
 10
183.0
 20
196.7577
 30
0.0
 11
183.0
 21
195.65814
 31
0.0
  0
LINE
  5
D6
102
{ACAD_REACTORS
330
9E
102
}
330
1F
100
AcDbEntity
  8
EPLAN_Graphic
370
     0
100
AcDbLine
 10
183.0
 20
196.7577
 30
0.0
 11
185.499
 21
196.7577
 31
0.0
  0
LINE
  5
D7
102
{ACAD_REACTORS
330
9E
102
}
330
1F
100
AcDbEntity
  8
EPLAN_Graphic
370
     0
100
AcDbLine
 10
185.499
 20
195.65814
 30
0.0
 11
183.0
 21
195.65814
 31
0.0
  0
LINE
  5
D8
102
{ACAD_REACTORS
330
9E
102
}
330
1F
100
AcDbEntity
  8
EPLAN_Graphic
370
     0
100
AcDbLine
 10
183.0
 20
194.95842
 30
0.0
 11
183.0
 21
193.85886
 31
0.0
  0
LINE
  5
D9
102
{ACAD_REACTORS
330
9E
102
}
330
1F
100
AcDbEntity
  8
EPLAN_Graphic
370
     0
100
AcDbLine
 10
183.0
 20
194.95842
 30
0.0
 11
185.499
 21
194.95842
 31
0.0
  0
LINE
  5
DA
102
{ACAD_REACTORS
330
9E
102
}
330
1F
100
AcDbEntity
  8
EPLAN_Graphic
370
     0
100
AcDbLine
 10
185.499
 20
193.85886
 30
0.0
 11
183.0
 21
193.85886
 31
0.0
  0
LINE
  5
DB
102
{ACAD_REACTORS
330
9E
102
}
330
1F
100
AcDbEntity
  8
EPLAN_Graphic
370
     0
100
AcDbLine
 10
185.499
 20
205.7541
 30
0.0
 11
185.499
 21
204.65454
 31
0.0
  0
LINE
  5
DC
102
{ACAD_REACTORS
330
9E
102
}
330
1F
100
AcDbEntity
  8
EPLAN_Graphic
370
     0
100
AcDbLine
 10
185.499
 20
203.95482
 30
0.0
 11
185.499
 21
202.85526
 31
0.0
  0
LINE
  5
DD
102
{ACAD_REACTORS
330
9E
102
}
330
1F
100
AcDbEntity
  8
EPLAN_Graphic
370
     0
100
AcDbLine
 10
185.499
 20
202.15554
 30
0.0
 11
185.499
 21
201.05598
 31
0.0
  0
LINE
  5
DE
102
{ACAD_REACTORS
330
9E
102
}
330
1F
100
AcDbEntity
  8
EPLAN_Graphic
370
     0
100
AcDbLine
 10
185.499
 20
200.35626
 30
0.0
 11
185.499
 21
199.2567
 31
0.0
  0
LINE
  5
DF
102
{ACAD_REACTORS
330
9E
102
}
330
1F
100
AcDbEntity
  8
EPLAN_Graphic
370
     0
100
AcDbLine
 10
185.499
 20
198.55698
 30
0.0
 11
185.499
 21
197.45742
 31
0.0
  0
LINE
  5
E0
102
{ACAD_REACTORS
330
9E
102
}
330
1F
100
AcDbEntity
  8
EPLAN_Graphic
370
     0
100
AcDbLine
 10
185.499
 20
196.7577
 30
0.0
 11
185.499
 21
195.65814
 31
0.0
  0
LINE
  5
E1
102
{ACAD_REACTORS
330
9E
102
}
330
1F
100
AcDbEntity
  8
EPLAN_Graphic
370
     0
100
AcDbLine
 10
185.499
 20
194.95842
 30
0.0
 11
185.499
 21
193.85886
 31
0.0
  0
LINE
  5
E2
102
{ACAD_REACTORS
330
9E
102
}
330
1F
100
AcDbEntity
  8
EPLAN_Graphic
370
     0
100
AcDbLine
 10
185.698919999999
 20
197.40744
 30
0.0
 11
185.698919999999
 21
196.80768
 31
0.0
  0
LINE
  5
E3
102
{ACAD_REACTORS
330
9E
102
}
330
1F
100
AcDbEntity
  8
EPLAN_Graphic
370
     0
100
AcDbLine
 10
194.995199999998
 20
126.036
 30
0.0
 11
200.9928
 21
126.036
 31
0.0
  0
LINE
  5
E4
102
{ACAD_REACTORS
330
9E
102
}
330
1F
100
AcDbEntity
  8
EPLAN_Graphic
370
     0
100
AcDbLine
 10
208.993999999999
 20
216.0
 30
0.0
 11
212.987999999998
 21
216.0
 31
0.0
  0
LINE
  5
E5
102
{ACAD_REACTORS
330
9E
102
}
330
1F
100
AcDbEntity
  8
EPLAN_Graphic
370
     0
100
AcDbLine
 10
209.08956
 20
216.0
 30
0.0
 11
209.08956
 21
126.036
 31
0.0
  0
LINE
  5
E6
102
{ACAD_REACTORS
330
9E
102
}
330
1F
100
AcDbEntity
  8
EPLAN_Graphic
370
     0
100
AcDbLine
 10
212.987999999998
 20
216.0
 30
0.0
 11
212.987999999998
 21
126.036
 31
0.0
  0
LINE
  5
E7
102
{ACAD_REACTORS
330
9E
102
}
330
1F
100
AcDbEntity
  8
EPLAN_Graphic
370
     0
100
AcDbLine
 10
210.488999999998
 20
207.55338
 30
0.0
 11
210.488999999998
 21
206.45382
 31
0.0
  0
LINE
  5
E8
102
{ACAD_REACTORS
330
9E
102
}
330
1F
100
AcDbEntity
  8
EPLAN_Graphic
370
     0
100
AcDbLine
 10
210.289079999999
 20
193.808880000001
 30
0.0
 11
212.987999999998
 21
193.808880000001
 31
0.0
  0
LINE
  5
E9
102
{ACAD_REACTORS
330
9E
102
}
330
1F
100
AcDbEntity
  8
EPLAN_Graphic
370
     0
100
AcDbLine
 10
212.987999999998
 20
195.0084
 30
0.0
 11
210.289079999999
 21
195.0084
 31
0.0
  0
LINE
  5
EA
102
{ACAD_REACTORS
330
9E
102
}
330
1F
100
AcDbEntity
  8
EPLAN_Graphic
370
     0
100
AcDbLine
 10
210.289079999999
 20
195.0084
 30
0.0
 11
210.289079999999
 21
193.808880000001
 31
0.0
  0
LINE
  5
EB
102
{ACAD_REACTORS
330
9E
102
}
330
1F
100
AcDbEntity
  8
EPLAN_Graphic
370
     0
100
AcDbLine
 10
210.289079999999
 20
195.60816
 30
0.0
 11
212.987999999998
 21
195.60816
 31
0.0
  0
LINE
  5
EC
102
{ACAD_REACTORS
330
9E
102
}
330
1F
100
AcDbEntity
  8
EPLAN_Graphic
370
     0
100
AcDbLine
 10
212.987999999998
 20
196.80768
 30
0.0
 11
210.289079999999
 21
196.80768
 31
0.0
  0
LINE
  5
ED
102
{ACAD_REACTORS
330
9E
102
}
330
1F
100
AcDbEntity
  8
EPLAN_Graphic
370
     0
100
AcDbLine
 10
210.289079999999
 20
196.80768
 30
0.0
 11
210.289079999999
 21
195.60816
 31
0.0
  0
LINE
  5
EE
102
{ACAD_REACTORS
330
9E
102
}
330
1F
100
AcDbEntity
  8
EPLAN_Graphic
370
     0
100
AcDbLine
 10
210.289079999999
 20
197.40744
 30
0.0
 11
212.987999999998
 21
197.40744
 31
0.0
  0
LINE
  5
EF
102
{ACAD_REACTORS
330
9E
102
}
330
1F
100
AcDbEntity
  8
EPLAN_Graphic
370
     0
100
AcDbLine
 10
212.987999999998
 20
198.60696
 30
0.0
 11
210.289079999999
 21
198.60696
 31
0.0
  0
LINE
  5
F0
102
{ACAD_REACTORS
330
9E
102
}
330
1F
100
AcDbEntity
  8
EPLAN_Graphic
370
     0
100
AcDbLine
 10
210.289079999999
 20
198.60696
 30
0.0
 11
210.289079999999
 21
197.40744
 31
0.0
  0
LINE
  5
F1
102
{ACAD_REACTORS
330
9E
102
}
330
1F
100
AcDbEntity
  8
EPLAN_Graphic
370
     0
100
AcDbLine
 10
210.289079999999
 20
199.20672
 30
0.0
 11
212.987999999998
 21
199.20672
 31
0.0
  0
LINE
  5
F2
102
{ACAD_REACTORS
330
9E
102
}
330
1F
100
AcDbEntity
  8
EPLAN_Graphic
370
     0
100
AcDbLine
 10
212.987999999998
 20
200.40624
 30
0.0
 11
210.289079999999
 21
200.40624
 31
0.0
  0
LINE
  5
F3
102
{ACAD_REACTORS
330
9E
102
}
330
1F
100
AcDbEntity
  8
EPLAN_Graphic
370
     0
100
AcDbLine
 10
210.289079999999
 20
200.40624
 30
0.0
 11
210.289079999999
 21
199.20672
 31
0.0
  0
LINE
  5
F4
102
{ACAD_REACTORS
330
9E
102
}
330
1F
100
AcDbEntity
  8
EPLAN_Graphic
370
     0
100
AcDbLine
 10
210.289079999999
 20
201.006
 30
0.0
 11
212.987999999998
 21
201.006
 31
0.0
  0
LINE
  5
F5
102
{ACAD_REACTORS
330
9E
102
}
330
1F
100
AcDbEntity
  8
EPLAN_Graphic
370
     0
100
AcDbLine
 10
212.987999999998
 20
202.20552
 30
0.0
 11
210.289079999999
 21
202.20552
 31
0.0
  0
LINE
  5
F6
102
{ACAD_REACTORS
330
9E
102
}
330
1F
100
AcDbEntity
  8
EPLAN_Graphic
370
     0
100
AcDbLine
 10
210.289079999999
 20
202.20552
 30
0.0
 11
210.289079999999
 21
201.006
 31
0.0
  0
LINE
  5
F7
102
{ACAD_REACTORS
330
9E
102
}
330
1F
100
AcDbEntity
  8
EPLAN_Graphic
370
     0
100
AcDbLine
 10
210.289079999999
 20
202.80528
 30
0.0
 11
212.987999999998
 21
202.80528
 31
0.0
  0
LINE
  5
F8
102
{ACAD_REACTORS
330
9E
102
}
330
1F
100
AcDbEntity
  8
EPLAN_Graphic
370
     0
100
AcDbLine
 10
212.987999999998
 20
204.0048
 30
0.0
 11
210.289079999999
 21
204.0048
 31
0.0
  0
LINE
  5
F9
102
{ACAD_REACTORS
330
9E
102
}
330
1F
100
AcDbEntity
  8
EPLAN_Graphic
370
     0
100
AcDbLine
 10
210.289079999999
 20
204.0048
 30
0.0
 11
210.289079999999
 21
202.80528
 31
0.0
  0
LINE
  5
FA
102
{ACAD_REACTORS
330
9E
102
}
330
1F
100
AcDbEntity
  8
EPLAN_Graphic
370
     0
100
AcDbLine
 10
210.289079999999
 20
204.60456
 30
0.0
 11
212.987999999998
 21
204.60456
 31
0.0
  0
LINE
  5
FB
102
{ACAD_REACTORS
330
9E
102
}
330
1F
100
AcDbEntity
  8
EPLAN_Graphic
370
     0
100
AcDbLine
 10
212.987999999998
 20
205.80408
 30
0.0
 11
210.289079999999
 21
205.80408
 31
0.0
  0
LINE
  5
FC
102
{ACAD_REACTORS
330
9E
102
}
330
1F
100
AcDbEntity
  8
EPLAN_Graphic
370
     0
100
AcDbLine
 10
210.289079999999
 20
205.80408
 30
0.0
 11
210.289079999999
 21
204.60456
 31
0.0
  0
LINE
  5
FD
102
{ACAD_REACTORS
330
9E
102
}
330
1F
100
AcDbEntity
  8
EPLAN_Graphic
370
     0
100
AcDbLine
 10
210.289079999999
 20
206.40384
 30
0.0
 11
212.987999999998
 21
206.40384
 31
0.0
  0
LINE
  5
FE
102
{ACAD_REACTORS
330
9E
102
}
330
1F
100
AcDbEntity
  8
EPLAN_Graphic
370
     0
100
AcDbLine
 10
212.987999999998
 20
206.40384
 30
0.0
 11
212.987999999998
 21
207.60336
 31
0.0
  0
LINE
  5
FF
102
{ACAD_REACTORS
330
9E
102
}
330
1F
100
AcDbEntity
  8
EPLAN_Graphic
370
     0
100
AcDbLine
 10
212.987999999998
 20
207.60336
 30
0.0
 11
210.289079999999
 21
207.60336
 31
0.0
  0
LINE
  5
100
102
{ACAD_REACTORS
330
9E
102
}
330
1F
100
AcDbEntity
  8
EPLAN_Graphic
370
     0
100
AcDbLine
 10
210.289079999999
 20
207.60336
 30
0.0
 11
210.289079999999
 21
206.40384
 31
0.0
  0
LINE
  5
101
102
{ACAD_REACTORS
330
9E
102
}
330
1F
100
AcDbEntity
  8
EPLAN_Graphic
370
     0
100
AcDbLine
 10
212.987999999998
 20
207.55338
 30
0.0
 11
212.987999999998
 21
206.45382
 31
0.0
  0
LINE
  5
102
102
{ACAD_REACTORS
330
9E
102
}
330
1F
100
AcDbEntity
  8
EPLAN_Graphic
370
     0
100
AcDbLine
 10
212.987999999998
 20
207.55338
 30
0.0
 11
210.488999999998
 21
207.55338
 31
0.0
  0
LINE
  5
103
102
{ACAD_REACTORS
330
9E
102
}
330
1F
100
AcDbEntity
  8
EPLAN_Graphic
370
     0
100
AcDbLine
 10
210.488999999998
 20
206.45382
 30
0.0
 11
212.987999999998
 21
206.45382
 31
0.0
  0
LINE
  5
104
102
{ACAD_REACTORS
330
9E
102
}
330
1F
100
AcDbEntity
  8
EPLAN_Graphic
370
     0
100
AcDbLine
 10
212.987999999998
 20
205.7541
 30
0.0
 11
210.488999999998
 21
205.7541
 31
0.0
  0
LINE
  5
105
102
{ACAD_REACTORS
330
9E
102
}
330
1F
100
AcDbEntity
  8
EPLAN_Graphic
370
     0
100
AcDbLine
 10
210.488999999998
 20
204.65454
 30
0.0
 11
212.987999999998
 21
204.65454
 31
0.0
  0
LINE
  5
106
102
{ACAD_REACTORS
330
9E
102
}
330
1F
100
AcDbEntity
  8
EPLAN_Graphic
370
     0
100
AcDbLine
 10
212.987999999998
 20
203.95482
 30
0.0
 11
210.488999999998
 21
203.95482
 31
0.0
  0
LINE
  5
107
102
{ACAD_REACTORS
330
9E
102
}
330
1F
100
AcDbEntity
  8
EPLAN_Graphic
370
     0
100
AcDbLine
 10
210.488999999998
 20
202.85526
 30
0.0
 11
212.987999999998
 21
202.85526
 31
0.0
  0
LINE
  5
108
102
{ACAD_REACTORS
330
9E
102
}
330
1F
100
AcDbEntity
  8
EPLAN_Graphic
370
     0
100
AcDbLine
 10
212.987999999998
 20
202.15554
 30
0.0
 11
210.488999999998
 21
202.15554
 31
0.0
  0
LINE
  5
109
102
{ACAD_REACTORS
330
9E
102
}
330
1F
100
AcDbEntity
  8
EPLAN_Graphic
370
     0
100
AcDbLine
 10
210.488999999998
 20
201.05598
 30
0.0
 11
212.987999999998
 21
201.05598
 31
0.0
  0
LINE
  5
10A
102
{ACAD_REACTORS
330
9E
102
}
330
1F
100
AcDbEntity
  8
EPLAN_Graphic
370
     0
100
AcDbLine
 10
212.987999999998
 20
200.35626
 30
0.0
 11
210.488999999998
 21
200.35626
 31
0.0
  0
LINE
  5
10B
102
{ACAD_REACTORS
330
9E
102
}
330
1F
100
AcDbEntity
  8
EPLAN_Graphic
370
     0
100
AcDbLine
 10
210.488999999998
 20
199.2567
 30
0.0
 11
212.987999999998
 21
199.2567
 31
0.0
  0
LINE
  5
10C
102
{ACAD_REACTORS
330
9E
102
}
330
1F
100
AcDbEntity
  8
EPLAN_Graphic
370
     0
100
AcDbLine
 10
212.987999999998
 20
198.55698
 30
0.0
 11
210.488999999998
 21
198.55698
 31
0.0
  0
LINE
  5
10D
102
{ACAD_REACTORS
330
9E
102
}
330
1F
100
AcDbEntity
  8
EPLAN_Graphic
370
     0
100
AcDbLine
 10
210.488999999998
 20
197.45742
 30
0.0
 11
212.987999999998
 21
197.45742
 31
0.0
  0
LINE
  5
10E
102
{ACAD_REACTORS
330
9E
102
}
330
1F
100
AcDbEntity
  8
EPLAN_Graphic
370
     0
100
AcDbLine
 10
212.987999999998
 20
196.7577
 30
0.0
 11
210.488999999998
 21
196.7577
 31
0.0
  0
LINE
  5
10F
102
{ACAD_REACTORS
330
9E
102
}
330
1F
100
AcDbEntity
  8
EPLAN_Graphic
370
     0
100
AcDbLine
 10
210.488999999998
 20
195.65814
 30
0.0
 11
212.987999999998
 21
195.65814
 31
0.0
  0
LINE
  5
110
102
{ACAD_REACTORS
330
9E
102
}
330
1F
100
AcDbEntity
  8
EPLAN_Graphic
370
     0
100
AcDbLine
 10
212.987999999998
 20
194.95842
 30
0.0
 11
210.488999999998
 21
194.95842
 31
0.0
  0
LINE
  5
111
102
{ACAD_REACTORS
330
9E
102
}
330
1F
100
AcDbEntity
  8
EPLAN_Graphic
370
     0
100
AcDbLine
 10
210.488999999998
 20
193.85886
 30
0.0
 11
212.987999999998
 21
193.85886
 31
0.0
  0
LINE
  5
112
102
{ACAD_REACTORS
330
9E
102
}
330
1F
100
AcDbEntity
  8
EPLAN_Graphic
370
     0
100
AcDbLine
 10
210.488999999998
 20
205.7541
 30
0.0
 11
210.488999999998
 21
204.65454
 31
0.0
  0
LINE
  5
113
102
{ACAD_REACTORS
330
9E
102
}
330
1F
100
AcDbEntity
  8
EPLAN_Graphic
370
     0
100
AcDbLine
 10
210.488999999998
 20
203.95482
 30
0.0
 11
210.488999999998
 21
202.85526
 31
0.0
  0
LINE
  5
114
102
{ACAD_REACTORS
330
9E
102
}
330
1F
100
AcDbEntity
  8
EPLAN_Graphic
370
     0
100
AcDbLine
 10
210.488999999998
 20
202.15554
 30
0.0
 11
210.488999999998
 21
201.05598
 31
0.0
  0
LINE
  5
115
102
{ACAD_REACTORS
330
9E
102
}
330
1F
100
AcDbEntity
  8
EPLAN_Graphic
370
     0
100
AcDbLine
 10
210.488999999998
 20
200.35626
 30
0.0
 11
210.488999999998
 21
199.2567
 31
0.0
  0
LINE
  5
116
102
{ACAD_REACTORS
330
9E
102
}
330
1F
100
AcDbEntity
  8
EPLAN_Graphic
370
     0
100
AcDbLine
 10
210.488999999998
 20
198.55698
 30
0.0
 11
210.488999999998
 21
197.45742
 31
0.0
  0
LINE
  5
117
102
{ACAD_REACTORS
330
9E
102
}
330
1F
100
AcDbEntity
  8
EPLAN_Graphic
370
     0
100
AcDbLine
 10
210.488999999998
 20
196.7577
 30
0.0
 11
210.488999999998
 21
195.65814
 31
0.0
  0
LINE
  5
118
102
{ACAD_REACTORS
330
9E
102
}
330
1F
100
AcDbEntity
  8
EPLAN_Graphic
370
     0
100
AcDbLine
 10
210.488999999998
 20
194.95842
 30
0.0
 11
210.488999999998
 21
193.85886
 31
0.0
  0
LINE
  5
119
102
{ACAD_REACTORS
330
9E
102
}
330
1F
100
AcDbEntity
  8
EPLAN_Graphic
370
     0
100
AcDbLine
 10
190.2046655085
 20
177.536
 30
0.0
 11
196.080556451998
 21
177.536
 31
0.0
  0
TEXT
  5
11B
102
{ACAD_REACTORS
330
9E
102
}
330
1F
100
AcDbEntity
  8
EPLAN_Graphic
 62
   240
100
AcDbText
 10
190.2187862151
 20
178.04376584737
 30
0.0
 40
1.199999999999729
  1
P00~07
  7
Tahoma
100
AcDbText
  0
LINE
  5
11C
102
{ACAD_REACTORS
330
9E
102
}
330
1F
100
AcDbEntity
  8
EPLAN_Graphic
370
     0
100
AcDbLine
 10
200.2046655085
 20
177.536
 30
0.0
 11
206.080556451998
 21
177.536
 31
0.0
  0
TEXT
  5
11D
102
{ACAD_REACTORS
330
9E
102
}
330
1F
100
AcDbEntity
  8
EPLAN_Graphic
 62
   240
100
AcDbText
 10
200.2187862151
 20
178.04376584737
 30
0.0
 40
1.199999999999729
  1
P20~27
  7
Tahoma
100
AcDbText
  0
LINE
  5
11E
102
{ACAD_REACTORS
330
9E
102
}
330
1F
100
AcDbEntity
  8
EPLAN_Graphic
370
     0
100
AcDbLine
 10
186.993999999999
 20
126.036
 30
0.0
 11
208.993999999999
 21
126.036
 31
0.0
  0
LWPOLYLINE
  5
11F
102
{ACAD_REACTORS
330
9E
102
}
330
1F
100
AcDbEntity
  8
EPLAN_Graphic
370
     0
100
AcDbPolyline
 90
        4
 70
     1
 43
0.0
 10
205.694
 20
200.836
 10
203.993999999999
 20
200.836
 10
203.993999999999
 20
202.036
 10
205.694
 20
202.036
  0
LWPOLYLINE
  5
120
102
{ACAD_REACTORS
330
9E
102
}
330
1F
100
AcDbEntity
  8
EPLAN_Graphic
370
     0
100
AcDbPolyline
 90
        4
 70
     1
 43
0.0
 10
205.694
 20
203.636
 10
203.993999999999
 20
203.636
 10
203.993999999999
 20
204.836
 10
205.694
 20
204.836
  0
LWPOLYLINE
  5
121
102
{ACAD_REACTORS
330
9E
102
}
330
1F
100
AcDbEntity
  8
EPLAN_Graphic
370
     0
100
AcDbPolyline
 90
        4
 70
     1
 43
0.0
 10
205.694
 20
206.436
 10
203.993999999999
 20
206.436
 10
203.993999999999
 20
207.636
 10
205.694
 20
207.636
  0
TEXT
  5
122
102
{ACAD_REACTORS
330
9E
102
}
330
1F
100
AcDbEntity
  8
EPLAN_Graphic
 62
   240
100
AcDbText
 10
198.852587204699
 20
203.48578170061
 30
0.0
 40
1.199999999999729
  1
RUN
  7
Tahoma
100
AcDbText
  0
TEXT
  5
123
102
{ACAD_REACTORS
330
9E
102
}
330
1F
100
AcDbEntity
  8
EPLAN_Graphic
 62
   240
100
AcDbText
 10
198.863679081198
 20
206.36045555899
 30
0.0
 40
1.199999999999729
  1
PWR
  7
Tahoma
100
AcDbText
  0
TEXT
  5
124
102
{ACAD_REACTORS
330
9E
102
}
330
1F
100
AcDbEntity
  8
EPLAN_Graphic
 62
   240
100
AcDbText
 10
198.839236175998
 20
200.73507218186
 30
0.0
 40
1.199999999999729
  1
ERR
  7
Tahoma
100
AcDbText
  0
TEXT
  5
125
102
{ACAD_REACTORS
330
9E
102
}
330
1F
100
AcDbEntity
  8
EPLAN_Graphic
 62
   240
100
AcDbText
 10
188.846482917597
 20
212.57046683093
 30
0.0
 40
1.799999999999589
  1
XGB
  7
Tahoma
100
AcDbText
  0
TEXT
  5
126
102
{ACAD_REACTORS
330
9E
102
}
330
1F
100
AcDbEntity
  8
EPLAN_Graphic
 62
   240
100
AcDbText
 10
187.804650809299
 20
209.681803387221
 30
0.0
 40
1.499999999999654
  1
XBM-DN16S
  7
Tahoma
100
AcDbText
  0
TEXT
  5
127
102
{ACAD_REACTORS
330
9E
102
}
330
1F
100
AcDbEntity
  8
EPLAN_Graphic
 62
   240
100
AcDbText
 10
191.7444553596
 20
196.81096356284
 30
0.0
 40
1.199999999999729
  1
RS-232C
  7
Tahoma
100
AcDbText
  0
TEXT
  5
128
102
{ACAD_REACTORS
330
9E
102
}
330
1F
100
AcDbEntity
  8
EPLAN_Graphic
 62
   240
100
AcDbText
 10
203.1082040033
 20
192.17143127871
 30
0.0
 40
1.199999999999729
  1
RUN
  7
Tahoma
100
AcDbText
  0
TEXT
  5
129
102
{ACAD_REACTORS
330
9E
102
}
330
1F
100
AcDbEntity
  8
EPLAN_Graphic
 62
   240
100
AcDbText
 10
203.009806869199
 20
184.04539818678
 30
0.0
 40
1.199999999999729
  1
STOP
  7
Tahoma
100
AcDbText
  0
LINE
  5
12A
102
{ACAD_REACTORS
330
9E
102
}
330
1F
100
AcDbEntity
  8
EPLAN_Graphic
370
     0
100
AcDbLine
 10
208.0283276222
 20
214.87482621827
 30
0.0
 11
187.9596723779
 21
214.87482621827
 31
0.0
  0
LINE
  5
12B
102
{ACAD_REACTORS
330
9E
102
}
330
1F
100
AcDbEntity
  8
EPLAN_Graphic
370
     0
100
AcDbLine
 10
187.9596723779
 20
212.14577156016
 30
0.0
 11
208.0283276222
 21
212.14577156016
 31
0.0
  0
LINE
  5
12C
102
{ACAD_REACTORS
330
9E
102
}
330
1F
100
AcDbEntity
  8
EPLAN_Graphic
370
     0
100
AcDbLine
 10
208.0283276222
 20
212.14577156016
 30
0.0
 11
208.0283276222
 21
214.87482621827
 31
0.0
  0
LINE
  5
12D
102
{ACAD_REACTORS
330
9E
102
}
330
1F
100
AcDbEntity
  8
EPLAN_Graphic
370
     0
100
AcDbLine
 10
187.9596723779
 20
212.14577156016
 30
0.0
 11
187.9596723779
 21
214.87482621827
 31
0.0
  0
LINE
  5
12E
102
{ACAD_REACTORS
330
9E
102
}
330
1F
100
AcDbEntity
  8
EPLAN_Graphic
370
     0
100
AcDbLine
 10
187.9596723779
 20
211.887986876081
 30
0.0
 11
208.0283276222
 21
211.887986876081
 31
0.0
  0
LINE
  5
12F
102
{ACAD_REACTORS
330
9E
102
}
330
1F
100
AcDbEntity
  8
EPLAN_Graphic
370
     0
100
AcDbLine
 10
208.293999999998
 20
165.486
 30
0.0
 11
208.293999999998
 21
162.986
 31
0.0
  0
LINE
  5
130
102
{ACAD_REACTORS
330
9E
102
}
330
1F
100
AcDbEntity
  8
EPLAN_Graphic
370
     0
100
AcDbLine
 10
208.293999999998
 20
162.986
 30
0.0
 11
208.993999999999
 21
162.986
 31
0.0
  0
LINE
  5
131
102
{ACAD_REACTORS
330
9E
102
}
330
1F
100
AcDbEntity
  8
EPLAN_Graphic
370
     0
100
AcDbLine
 10
208.993999999999
 20
165.486
 30
0.0
 11
208.293999999998
 21
165.486
 31
0.0
  0
LINE
  5
132
102
{ACAD_REACTORS
330
9E
102
}
330
1F
100
AcDbEntity
  8
EPLAN_Graphic
370
     0
100
AcDbLine
 10
187.694
 20
165.486
 30
0.0
 11
187.694
 21
162.986
 31
0.0
  0
LINE
  5
133
102
{ACAD_REACTORS
330
9E
102
}
330
1F
100
AcDbEntity
  8
EPLAN_Graphic
370
     0
100
AcDbLine
 10
187.694
 20
162.986
 30
0.0
 11
186.993999999999
 21
162.986
 31
0.0
  0
LINE
  5
134
102
{ACAD_REACTORS
330
9E
102
}
330
1F
100
AcDbEntity
  8
EPLAN_Graphic
370
     0
100
AcDbLine
 10
186.993999999999
 20
165.486
 30
0.0
 11
187.694
 21
165.486
 31
0.0
  0
LINE
  5
135
102
{ACAD_REACTORS
330
9E
102
}
330
1F
100
AcDbEntity
  8
EPLAN_Graphic
370
     0
100
AcDbLine
 10
204.093999999997
 20
206.486
 30
0.0
 11
204.843999999997
 21
206.486
 31
0.0
  0
LINE
  5
136
102
{ACAD_REACTORS
330
9E
102
}
330
1F
100
AcDbEntity
  8
EPLAN_Graphic
370
     0
100
AcDbLine
 10
204.093999999997
 20
207.586
 30
0.0
 11
204.843999999997
 21
207.586
 31
0.0
  0
LINE
  5
137
102
{ACAD_REACTORS
330
9E
102
}
330
1F
100
AcDbEntity
  8
EPLAN_Graphic
370
     0
100
AcDbLine
 10
204.043999999998
 20
207.636
 30
0.0
 11
204.093999999997
 21
207.586
 31
0.0
  0
LINE
  5
138
102
{ACAD_REACTORS
330
9E
102
}
330
1F
100
AcDbEntity
  8
EPLAN_Graphic
370
     0
100
AcDbLine
 10
204.093999999997
 20
206.486
 30
0.0
 11
204.043999999998
 21
206.436
 31
0.0
  0
LINE
  5
139
102
{ACAD_REACTORS
330
9E
102
}
330
1F
100
AcDbEntity
  8
EPLAN_Graphic
370
     0
100
AcDbLine
 10
204.093999999997
 20
207.586
 30
0.0
 11
204.093999999997
 21
206.486
 31
0.0
  0
LINE
  5
13A
102
{ACAD_REACTORS
330
9E
102
}
330
1F
100
AcDbEntity
  8
EPLAN_Graphic
370
     0
100
AcDbLine
 10
204.093999999997
 20
206.486
 30
0.0
 11
204.093999999997
 21
207.586
 31
0.0
  0
LINE
  5
13B
102
{ACAD_REACTORS
330
9E
102
}
330
1F
100
AcDbEntity
  8
EPLAN_Graphic
370
     0
100
AcDbLine
 10
205.593999999997
 20
206.486
 30
0.0
 11
204.843999999997
 21
206.486
 31
0.0
  0
LINE
  5
13C
102
{ACAD_REACTORS
330
9E
102
}
330
1F
100
AcDbEntity
  8
EPLAN_Graphic
370
     0
100
AcDbLine
 10
205.593999999997
 20
207.586
 30
0.0
 11
204.843999999997
 21
207.586
 31
0.0
  0
LINE
  5
13D
102
{ACAD_REACTORS
330
9E
102
}
330
1F
100
AcDbEntity
  8
EPLAN_Graphic
370
     0
100
AcDbLine
 10
205.644
 20
207.636
 30
0.0
 11
205.593999999997
 21
207.586
 31
0.0
  0
LINE
  5
13E
102
{ACAD_REACTORS
330
9E
102
}
330
1F
100
AcDbEntity
  8
EPLAN_Graphic
370
     0
100
AcDbLine
 10
205.593999999997
 20
206.486
 30
0.0
 11
205.644
 21
206.436
 31
0.0
  0
LINE
  5
13F
102
{ACAD_REACTORS
330
9E
102
}
330
1F
100
AcDbEntity
  8
EPLAN_Graphic
370
     0
100
AcDbLine
 10
205.593999999997
 20
206.486
 30
0.0
 11
205.593999999997
 21
207.586
 31
0.0
  0
LINE
  5
140
102
{ACAD_REACTORS
330
9E
102
}
330
1F
100
AcDbEntity
  8
EPLAN_Graphic
370
     0
100
AcDbLine
 10
204.093999999997
 20
203.686
 30
0.0
 11
204.843999999997
 21
203.686
 31
0.0
  0
LINE
  5
141
102
{ACAD_REACTORS
330
9E
102
}
330
1F
100
AcDbEntity
  8
EPLAN_Graphic
370
     0
100
AcDbLine
 10
204.093999999997
 20
204.786
 30
0.0
 11
204.843999999997
 21
204.786
 31
0.0
  0
LINE
  5
142
102
{ACAD_REACTORS
330
9E
102
}
330
1F
100
AcDbEntity
  8
EPLAN_Graphic
370
     0
100
AcDbLine
 10
204.043999999998
 20
204.836
 30
0.0
 11
204.093999999997
 21
204.786
 31
0.0
  0
LINE
  5
143
102
{ACAD_REACTORS
330
9E
102
}
330
1F
100
AcDbEntity
  8
EPLAN_Graphic
370
     0
100
AcDbLine
 10
204.093999999997
 20
203.686
 30
0.0
 11
204.043999999998
 21
203.636
 31
0.0
  0
LINE
  5
144
102
{ACAD_REACTORS
330
9E
102
}
330
1F
100
AcDbEntity
  8
EPLAN_Graphic
370
     0
100
AcDbLine
 10
204.093999999997
 20
204.786
 30
0.0
 11
204.093999999997
 21
203.686
 31
0.0
  0
LINE
  5
145
102
{ACAD_REACTORS
330
9E
102
}
330
1F
100
AcDbEntity
  8
EPLAN_Graphic
370
     0
100
AcDbLine
 10
204.093999999997
 20
203.686
 30
0.0
 11
204.093999999997
 21
204.786
 31
0.0
  0
LINE
  5
146
102
{ACAD_REACTORS
330
9E
102
}
330
1F
100
AcDbEntity
  8
EPLAN_Graphic
370
     0
100
AcDbLine
 10
205.593999999997
 20
203.686
 30
0.0
 11
204.843999999997
 21
203.686
 31
0.0
  0
LINE
  5
147
102
{ACAD_REACTORS
330
9E
102
}
330
1F
100
AcDbEntity
  8
EPLAN_Graphic
370
     0
100
AcDbLine
 10
205.593999999997
 20
204.786
 30
0.0
 11
204.843999999997
 21
204.786
 31
0.0
  0
LINE
  5
148
102
{ACAD_REACTORS
330
9E
102
}
330
1F
100
AcDbEntity
  8
EPLAN_Graphic
370
     0
100
AcDbLine
 10
205.644
 20
204.836
 30
0.0
 11
205.593999999997
 21
204.786
 31
0.0
  0
LINE
  5
149
102
{ACAD_REACTORS
330
9E
102
}
330
1F
100
AcDbEntity
  8
EPLAN_Graphic
370
     0
100
AcDbLine
 10
205.593999999997
 20
203.686
 30
0.0
 11
205.644
 21
203.636
 31
0.0
  0
LINE
  5
14A
102
{ACAD_REACTORS
330
9E
102
}
330
1F
100
AcDbEntity
  8
EPLAN_Graphic
370
     0
100
AcDbLine
 10
205.593999999997
 20
203.686
 30
0.0
 11
205.593999999997
 21
204.786
 31
0.0
  0
LINE
  5
14B
102
{ACAD_REACTORS
330
9E
102
}
330
1F
100
AcDbEntity
  8
EPLAN_Graphic
370
     0
100
AcDbLine
 10
204.093999999997
 20
200.886
 30
0.0
 11
204.843999999997
 21
200.886
 31
0.0
  0
LINE
  5
14C
102
{ACAD_REACTORS
330
9E
102
}
330
1F
100
AcDbEntity
  8
EPLAN_Graphic
370
     0
100
AcDbLine
 10
204.093999999997
 20
201.986
 30
0.0
 11
204.843999999997
 21
201.986
 31
0.0
  0
LINE
  5
14D
102
{ACAD_REACTORS
330
9E
102
}
330
1F
100
AcDbEntity
  8
EPLAN_Graphic
370
     0
100
AcDbLine
 10
204.043999999998
 20
202.036
 30
0.0
 11
204.093999999997
 21
201.986
 31
0.0
  0
LINE
  5
14E
102
{ACAD_REACTORS
330
9E
102
}
330
1F
100
AcDbEntity
  8
EPLAN_Graphic
370
     0
100
AcDbLine
 10
204.093999999997
 20
200.886
 30
0.0
 11
204.043999999998
 21
200.836
 31
0.0
  0
LINE
  5
14F
102
{ACAD_REACTORS
330
9E
102
}
330
1F
100
AcDbEntity
  8
EPLAN_Graphic
370
     0
100
AcDbLine
 10
204.093999999997
 20
201.986
 30
0.0
 11
204.093999999997
 21
200.886
 31
0.0
  0
LINE
  5
150
102
{ACAD_REACTORS
330
9E
102
}
330
1F
100
AcDbEntity
  8
EPLAN_Graphic
370
     0
100
AcDbLine
 10
204.093999999997
 20
200.886
 30
0.0
 11
204.093999999997
 21
201.986
 31
0.0
  0
LINE
  5
151
102
{ACAD_REACTORS
330
9E
102
}
330
1F
100
AcDbEntity
  8
EPLAN_Graphic
370
     0
100
AcDbLine
 10
205.593999999997
 20
200.886
 30
0.0
 11
204.843999999997
 21
200.886
 31
0.0
  0
LINE
  5
152
102
{ACAD_REACTORS
330
9E
102
}
330
1F
100
AcDbEntity
  8
EPLAN_Graphic
370
     0
100
AcDbLine
 10
205.593999999997
 20
201.986
 30
0.0
 11
204.843999999997
 21
201.986
 31
0.0
  0
LINE
  5
153
102
{ACAD_REACTORS
330
9E
102
}
330
1F
100
AcDbEntity
  8
EPLAN_Graphic
370
     0
100
AcDbLine
 10
205.644
 20
202.036
 30
0.0
 11
205.593999999997
 21
201.986
 31
0.0
  0
LINE
  5
154
102
{ACAD_REACTORS
330
9E
102
}
330
1F
100
AcDbEntity
  8
EPLAN_Graphic
370
     0
100
AcDbLine
 10
205.593999999997
 20
200.886
 30
0.0
 11
205.644
 21
200.836
 31
0.0
  0
LINE
  5
155
102
{ACAD_REACTORS
330
9E
102
}
330
1F
100
AcDbEntity
  8
EPLAN_Graphic
370
     0
100
AcDbLine
 10
205.593999999997
 20
200.886
 30
0.0
 11
205.593999999997
 21
201.986
 31
0.0
  0
LINE
  5
156
102
{ACAD_REACTORS
330
9E
102
}
330
1F
100
AcDbEntity
  8
EPLAN_Graphic
370
     0
100
AcDbLine
 10
203.743999999999
 20
190.936
 30
0.0
 11
206.144
 21
190.936
 31
0.0
  0
LINE
  5
157
102
{ACAD_REACTORS
330
9E
102
}
330
1F
100
AcDbEntity
  8
EPLAN_Graphic
370
     0
100
AcDbLine
 10
203.444
 20
191.236
 30
0.0
 11
206.444
 21
191.236
 31
0.0
  0
LINE
  5
158
102
{ACAD_REACTORS
330
9E
102
}
330
1F
100
AcDbEntity
  8
EPLAN_Graphic
370
     0
100
AcDbLine
 10
206.144
 20
190.936
 30
0.0
 11
206.144
 21
186.536
 31
0.0
  0
LINE
  5
159
102
{ACAD_REACTORS
330
9E
102
}
330
1F
100
AcDbEntity
  8
EPLAN_Graphic
370
     0
100
AcDbLine
 10
206.444
 20
191.236
 30
0.0
 11
206.444
 21
186.236
 31
0.0
  0
LINE
  5
15A
102
{ACAD_REACTORS
330
9E
102
}
330
1F
100
AcDbEntity
  8
EPLAN_Graphic
370
     0
100
AcDbLine
 10
206.144
 20
186.536
 30
0.0
 11
203.743999999999
 21
186.536
 31
0.0
  0
LINE
  5
15B
102
{ACAD_REACTORS
330
9E
102
}
330
1F
100
AcDbEntity
  8
EPLAN_Graphic
370
     0
100
AcDbLine
 10
206.444
 20
186.236
 30
0.0
 11
203.444
 21
186.236
 31
0.0
  0
LINE
  5
15C
102
{ACAD_REACTORS
330
9E
102
}
330
1F
100
AcDbEntity
  8
EPLAN_Graphic
370
     0
100
AcDbLine
 10
203.743999999999
 20
186.536
 30
0.0
 11
203.743999999999
 21
190.936
 31
0.0
  0
LINE
  5
15D
102
{ACAD_REACTORS
330
9E
102
}
330
1F
100
AcDbEntity
  8
EPLAN_Graphic
370
     0
100
AcDbLine
 10
203.444
 20
186.236
 30
0.0
 11
203.444
 21
191.236
 31
0.0
  0
CIRCLE
  5
15E
102
{ACAD_REACTORS
330
9E
102
}
330
1F
100
AcDbEntity
  8
EPLAN_Graphic
370
     0
100
AcDbCircle
 10
195.043999999998
 20
188.736
 30
0.0
 40
6.25
  0
CIRCLE
  5
15F
102
{ACAD_REACTORS
330
9E
102
}
330
1F
100
AcDbEntity
  8
EPLAN_Graphic
370
     0
100
AcDbCircle
 10
195.043999999998
 20
188.736
 30
0.0
 40
6.55
  0
LINE
  5
160
102
{ACAD_REACTORS
330
9E
102
}
330
1F
100
AcDbEntity
  8
EPLAN_Graphic
370
     0
100
AcDbLine
 10
203.444
 20
191.236
 30
0.0
 11
203.743999999999
 21
190.936
 31
0.0
  0
LINE
  5
161
102
{ACAD_REACTORS
330
9E
102
}
330
1F
100
AcDbEntity
  8
EPLAN_Graphic
370
     0
100
AcDbLine
 10
206.144
 20
190.936
 30
0.0
 11
206.444
 21
191.236
 31
0.0
  0
LINE
  5
162
102
{ACAD_REACTORS
330
9E
102
}
330
1F
100
AcDbEntity
  8
EPLAN_Graphic
370
     0
100
AcDbLine
 10
203.743999999999
 20
186.536
 30
0.0
 11
203.444
 21
186.236
 31
0.0
  0
LINE
  5
163
102
{ACAD_REACTORS
330
9E
102
}
330
1F
100
AcDbEntity
  8
EPLAN_Graphic
370
     0
100
AcDbLine
 10
206.144
 20
186.536
 30
0.0
 11
206.444
 21
186.236
 31
0.0
  0
LINE
  5
164
102
{ACAD_REACTORS
330
9E
102
}
330
1F
100
AcDbEntity
  8
EPLAN_Graphic
370
     0
100
AcDbLine
 10
183.0
 20
126.036
 30
0.0
 11
212.987999999998
 21
126.036
 31
0.0
  0
LINE
  5
165
102
{ACAD_REACTORS
330
9E
102
}
330
1F
100
AcDbEntity
  8
EPLAN_Graphic
370
     0
100
AcDbLine
 10
193.263999999999
 20
186.236
 30
0.0
 11
192.050674090598
 21
186.236
 31
0.0
  0
LINE
  5
166
102
{ACAD_REACTORS
330
9E
102
}
330
1F
100
AcDbEntity
  8
EPLAN_Graphic
370
     0
100
AcDbLine
 10
193.263999999999
 20
191.236
 30
0.0
 11
192.050674090598
 21
191.236
 31
0.0
  0
LINE
  5
167
102
{ACAD_REACTORS
330
9E
102
}
330
1F
100
AcDbEntity
  8
EPLAN_Graphic
370
     0
100
AcDbLine
 10
197.444
 20
188.036
 30
0.0
 11
195.043999999998
 21
188.036
 31
0.0
  0
LINE
  5
168
102
{ACAD_REACTORS
330
9E
102
}
330
1F
100
AcDbEntity
  8
EPLAN_Graphic
370
     0
100
AcDbLine
 10
197.444
 20
189.436
 30
0.0
 11
195.043999999998
 21
189.436
 31
0.0
  0
LINE
  5
169
102
{ACAD_REACTORS
330
9E
102
}
330
1F
100
AcDbEntity
  8
EPLAN_Graphic
370
     0
100
AcDbLine
 10
193.263999999999
 20
192.20610086309
 30
0.0
 11
193.263999999999
 21
191.236
 31
0.0
  0
LINE
  5
16A
102
{ACAD_REACTORS
330
9E
102
}
330
1F
100
AcDbEntity
  8
EPLAN_Graphic
370
     0
100
AcDbLine
 10
193.263999999999
 20
186.236
 30
0.0
 11
193.263999999999
 21
185.26589913691
 31
0.0
  0
LINE
  5
16B
102
{ACAD_REACTORS
330
9E
102
}
330
1F
100
AcDbEntity
  8
EPLAN_Graphic
370
     0
100
AcDbLine
 10
198.343999999997
 20
189.55982088314
 30
0.0
 11
198.343999999997
 21
187.91217911685
 31
0.0
  0
CIRCLE
  5
16C
102
{ACAD_REACTORS
330
9E
102
}
330
1F
100
AcDbEntity
  8
EPLAN_Graphic
370
     0
100
AcDbCircle
 10
196.644
 20
186.736
 30
0.0
 40
0.560520448586431
  0
CIRCLE
  5
16D
102
{ACAD_REACTORS
330
9E
102
}
330
1F
100
AcDbEntity
  8
EPLAN_Graphic
370
     0
100
AcDbCircle
 10
194.644
 20
186.236
 30
0.0
 40
0.560520448586431
  0
CIRCLE
  5
16E
102
{ACAD_REACTORS
330
9E
102
}
330
1F
100
AcDbEntity
  8
EPLAN_Graphic
370
     0
100
AcDbCircle
 10
192.644
 20
187.736
 30
0.0
 40
0.560520448586431
  0
LINE
  5
16F
102
{ACAD_REACTORS
330
9E
102
}
330
1F
100
AcDbEntity
  8
EPLAN_Graphic
370
     0
100
AcDbLine
 10
198.855996740898
 20
189.55982088314
 30
0.0
 11
198.343999999997
 21
189.55982088314
 31
0.0
  0
CIRCLE
  5
170
102
{ACAD_REACTORS
330
9E
102
}
330
1F
100
AcDbEntity
  8
EPLAN_Graphic
370
     0
100
AcDbCircle
 10
196.644
 20
190.736
 30
0.0
 40
0.560520448586431
  0
CIRCLE
  5
171
102
{ACAD_REACTORS
330
9E
102
}
330
1F
100
AcDbEntity
  8
EPLAN_Graphic
370
     0
100
AcDbCircle
 10
194.644
 20
191.236
 30
0.0
 40
0.560520448586431
  0
CIRCLE
  5
172
102
{ACAD_REACTORS
330
9E
102
}
330
1F
100
AcDbEntity
  8
EPLAN_Graphic
370
     0
100
AcDbCircle
 10
192.644
 20
189.736
 30
0.0
 40
0.560520448586431
  0
LINE
  5
173
102
{ACAD_REACTORS
330
9E
102
}
330
1F
100
AcDbEntity
  8
EPLAN_Graphic
370
     0
100
AcDbLine
 10
195.043999999998
 20
189.436
 30
0.0
 11
195.043999999998
 21
188.036
 31
0.0
  0
LINE
  5
174
102
{ACAD_REACTORS
330
9E
102
}
330
1F
100
AcDbEntity
  8
EPLAN_Graphic
370
     0
100
AcDbLine
 10
197.444
 20
189.436
 30
0.0
 11
197.444
 21
188.036
 31
0.0
  0
LINE
  5
175
102
{ACAD_REACTORS
330
9E
102
}
330
1F
100
AcDbEntity
  8
EPLAN_Graphic
370
     0
100
AcDbLine
 10
198.855996740898
 20
187.91217911685
 30
0.0
 11
198.343999999997
 21
187.91217911685
 31
0.0
  0
ARC
  5
176
102
{ACAD_REACTORS
330
9E
102
}
330
1F
100
AcDbEntity
  8
EPLAN_Graphic
370
     0
100
AcDbCircle
 10
195.043999999998
 20
188.736
 30
0.0
 40
3.9
100
AcDbArc
 50
12.1948020956333
 51
117.1557093774678
  0
ARC
  5
177
102
{ACAD_REACTORS
330
9E
102
}
330
1F
100
AcDbEntity
  8
EPLAN_Graphic
370
     0
100
AcDbCircle
 10
195.043999999998
 20
188.736
 30
0.0
 40
3.9
100
AcDbArc
 50
140.1316584499923
 51
219.8683415500078
  0
ARC
  5
178
102
{ACAD_REACTORS
330
9E
102
}
330
1F
100
AcDbEntity
  8
EPLAN_Graphic
370
     0
100
AcDbCircle
 10
195.043999999998
 20
188.736
 30
0.0
 40
3.9
100
AcDbArc
 50
242.8442906225318
 51
347.8051979043667
  0
CIRCLE
  5
179
102
{ACAD_REACTORS
330
9E
102
}
330
1F
100
AcDbEntity
  8
EPLAN_Graphic
370
     0
100
AcDbCircle
 10
195.043999999998
 20
188.736
 30
0.0
 40
4.75
  0
LWPOLYLINE
  5
17A
102
{ACAD_REACTORS
330
9E
102
}
330
1F
100
AcDbEntity
  8
EPLAN_Graphic
370
     0
100
AcDbPolyline
 90
        4
 70
     1
 43
0.0
 10
205.944
 20
186.736
 10
205.944
 20
188.736
 10
203.944
 20
188.736
 10
203.944
 20
186.736
  0
HATCH
  5
17B
330
1F
100
AcDbEntity
  8
EPLAN_Graphic
370
     0
100
AcDbHatch
 10
0.0
 20
0.0
 30
0.0
210
0.0
220
0.0
230
1.0
  2
SOLID
 70
     1
 71
     0
 91
        1
 92
        2
 72
     0
 73
     1
 93
        4
 10
205.944
 20
186.736
 10
205.944
 20
188.736
 10
203.944
 20
188.736
 10
203.944
 20
186.736
 97
        0
 75
     0
 76
     1
 98
        0
  0
LWPOLYLINE
  5
17C
102
{ACAD_REACTORS
330
9E
102
}
330
1F
100
AcDbEntity
  8
EPLAN_Graphic
370
     0
100
AcDbPolyline
 90
        4
 70
     1
 43
0.0
 10
203.944
 20
190.736
 10
205.944
 20
190.736
 10
205.944
 20
186.736
 10
203.944
 20
186.736
  0
LINE
  5
17D
102
{ACAD_REACTORS
330
9E
102
}
330
1F
100
AcDbEntity
  8
EPLAN_Graphic
370
     0
100
AcDbLine
 10
203.944
 20
188.736
 30
0.0
 11
205.944
 21
188.736
 31
0.0
  0
LINE
  5
17E
102
{ACAD_REACTORS
330
9E
102
}
330
1F
100
AcDbEntity
  8
EPLAN_Graphic
370
     0
100
AcDbLine
 10
188.793999999998
 20
130.536
 30
0.0
 11
197.194
 21
130.536
 31
0.0
  0
LINE
  5
17F
102
{ACAD_REACTORS
330
9E
102
}
330
1F
100
AcDbEntity
  8
EPLAN_Graphic
370
     0
100
AcDbLine
 10
198.793999999998
 20
130.536
 30
0.0
 11
207.194
 21
130.536
 31
0.0
  0
LINE
  5
180
102
{ACAD_REACTORS
330
9E
102
}
330
1F
100
AcDbEntity
  8
EPLAN_Graphic
370
     0
100
AcDbLine
 10
188.793999999998
 20
176.536
 30
0.0
 11
197.194
 21
176.536
 31
0.0
  0
LINE
  5
181
102
{ACAD_REACTORS
330
9E
102
}
330
1F
100
AcDbEntity
  8
EPLAN_Graphic
370
     0
100
AcDbLine
 10
198.793999999998
 20
176.536
 30
0.0
 11
207.194
 21
176.536
 31
0.0
  0
LINE
  5
182
102
{ACAD_REACTORS
330
9E
102
}
330
1F
100
AcDbEntity
  8
EPLAN_Graphic
370
     0
100
AcDbLine
 10
188.793999999998
 20
130.536
 30
0.0
 11
188.793999999998
 21
176.536
 31
0.0
  0
LINE
  5
183
102
{ACAD_REACTORS
330
9E
102
}
330
1F
100
AcDbEntity
  8
EPLAN_Graphic
370
     0
100
AcDbLine
 10
197.194
 20
130.536
 30
0.0
 11
197.194
 21
176.536
 31
0.0
  0
LINE
  5
184
102
{ACAD_REACTORS
330
9E
102
}
330
1F
100
AcDbEntity
  8
EPLAN_Graphic
370
     0
100
AcDbLine
 10
198.793999999998
 20
130.536
 30
0.0
 11
198.793999999998
 21
176.536
 31
0.0
  0
LINE
  5
185
102
{ACAD_REACTORS
330
9E
102
}
330
1F
100
AcDbEntity
  8
EPLAN_Graphic
370
     0
100
AcDbLine
 10
207.194
 20
130.536
 30
0.0
 11
207.194
 21
176.536
 31
0.0
  0
LINE
  5
186
102
{ACAD_REACTORS
330
9E
102
}
330
1F
100
AcDbEntity
  8
EPLAN_Graphic
370
     0
100
AcDbLine
 10
196.993999999999
 20
176.036
 30
0.0
 11
188.993999999999
 21
176.036
 31
0.0
  0
LINE
  5
187
102
{ACAD_REACTORS
330
9E
102
}
330
1F
100
AcDbEntity
  8
EPLAN_Graphic
370
     0
100
AcDbLine
 10
188.993999999999
 20
131.036
 30
0.0
 11
196.993999999999
 21
131.036
 31
0.0
  0
LINE
  5
188
102
{ACAD_REACTORS
330
9E
102
}
330
1F
100
AcDbEntity
  8
EPLAN_Graphic
370
     0
100
AcDbLine
 10
196.993999999999
 20
131.036
 30
0.0
 11
196.993999999999
 21
176.036
 31
0.0
  0
LINE
  5
189
102
{ACAD_REACTORS
330
9E
102
}
330
1F
100
AcDbEntity
  8
EPLAN_Graphic
370
     0
100
AcDbLine
 10
188.993999999999
 20
131.036
 30
0.0
 11
188.993999999999
 21
176.036
 31
0.0
  0
LWPOLYLINE
  5
18A
102
{ACAD_REACTORS
330
9E
102
}
330
1F
100
AcDbEntity
  8
EPLAN_Graphic
370
     0
100
AcDbPolyline
 90
        4
 70
     1
 43
0.0
 10
194.593999999997
 20
155.156
 10
193.894
 20
155.156
 10
193.894
 20
154.456
 10
194.593999999997
 20
154.456
  0
LWPOLYLINE
  5
18B
102
{ACAD_REACTORS
330
9E
102
}
330
1F
100
AcDbEntity
  8
EPLAN_Graphic
370
     0
100
AcDbPolyline
 90
        4
 70
     1
 43
0.0
 10
191.394
 20
155.156
 10
192.093999999997
 20
155.156
 10
192.093999999997
 20
154.456
 10
191.394
 20
154.456
  0
LWPOLYLINE
  5
18C
102
{ACAD_REACTORS
330
9E
102
}
330
1F
100
AcDbEntity
  8
EPLAN_Graphic
370
     0
100
AcDbPolyline
 90
        4
 70
     1
 43
0.0
 10
194.593999999997
 20
157.696
 10
193.894
 20
157.696
 10
193.894
 20
156.996
 10
194.593999999997
 20
156.996
  0
LWPOLYLINE
  5
18D
102
{ACAD_REACTORS
330
9E
102
}
330
1F
100
AcDbEntity
  8
EPLAN_Graphic
370
     0
100
AcDbPolyline
 90
        4
 70
     1
 43
0.0
 10
191.394
 20
157.696
 10
192.093999999997
 20
157.696
 10
192.093999999997
 20
156.996
 10
191.394
 20
156.996
  0
LWPOLYLINE
  5
18E
102
{ACAD_REACTORS
330
9E
102
}
330
1F
100
AcDbEntity
  8
EPLAN_Graphic
370
     0
100
AcDbPolyline
 90
        4
 70
     1
 43
0.0
 10
194.593999999997
 20
160.236
 10
193.894
 20
160.236
 10
193.894
 20
159.536
 10
194.593999999997
 20
159.536
  0
LWPOLYLINE
  5
18F
102
{ACAD_REACTORS
330
9E
102
}
330
1F
100
AcDbEntity
  8
EPLAN_Graphic
370
     0
100
AcDbPolyline
 90
        4
 70
     1
 43
0.0
 10
191.394
 20
160.236
 10
192.093999999997
 20
160.236
 10
192.093999999997
 20
159.536
 10
191.394
 20
159.536
  0
LWPOLYLINE
  5
190
102
{ACAD_REACTORS
330
9E
102
}
330
1F
100
AcDbEntity
  8
EPLAN_Graphic
370
     0
100
AcDbPolyline
 90
        4
 70
     1
 43
0.0
 10
194.593999999997
 20
162.776
 10
193.894
 20
162.776
 10
193.894
 20
162.076
 10
194.593999999997
 20
162.076
  0
LWPOLYLINE
  5
191
102
{ACAD_REACTORS
330
9E
102
}
330
1F
100
AcDbEntity
  8
EPLAN_Graphic
370
     0
100
AcDbPolyline
 90
        4
 70
     1
 43
0.0
 10
191.394
 20
162.776
 10
192.093999999997
 20
162.776
 10
192.093999999997
 20
162.076
 10
191.394
 20
162.076
  0
LWPOLYLINE
  5
192
102
{ACAD_REACTORS
330
9E
102
}
330
1F
100
AcDbEntity
  8
EPLAN_Graphic
370
     0
100
AcDbPolyline
 90
        4
 70
     1
 43
0.0
 10
194.593999999997
 20
165.316
 10
193.894
 20
165.316
 10
193.894
 20
164.616
 10
194.593999999997
 20
164.616
  0
LWPOLYLINE
  5
193
102
{ACAD_REACTORS
330
9E
102
}
330
1F
100
AcDbEntity
  8
EPLAN_Graphic
370
     0
100
AcDbPolyline
 90
        4
 70
     1
 43
0.0
 10
191.394
 20
165.316
 10
192.093999999997
 20
165.316
 10
192.093999999997
 20
164.616
 10
191.394
 20
164.616
  0
LWPOLYLINE
  5
194
102
{ACAD_REACTORS
330
9E
102
}
330
1F
100
AcDbEntity
  8
EPLAN_Graphic
370
     0
100
AcDbPolyline
 90
        4
 70
     1
 43
0.0
 10
194.593999999997
 20
151.916
 10
193.894
 20
151.916
 10
193.894
 20
152.616
 10
194.593999999997
 20
152.616
  0
LWPOLYLINE
  5
195
102
{ACAD_REACTORS
330
9E
102
}
330
1F
100
AcDbEntity
  8
EPLAN_Graphic
370
     0
100
AcDbPolyline
 90
        4
 70
     1
 43
0.0
 10
191.394
 20
151.916
 10
192.093999999997
 20
151.916
 10
192.093999999997
 20
152.616
 10
191.394
 20
152.616
  0
LWPOLYLINE
  5
196
102
{ACAD_REACTORS
330
9E
102
}
330
1F
100
AcDbEntity
  8
EPLAN_Graphic
370
     0
100
AcDbPolyline
 90
        4
 70
     1
 43
0.0
 10
194.593999999997
 20
149.376
 10
193.894
 20
149.376
 10
193.894
 20
150.076
 10
194.593999999997
 20
150.076
  0
LWPOLYLINE
  5
197
102
{ACAD_REACTORS
330
9E
102
}
330
1F
100
AcDbEntity
  8
EPLAN_Graphic
370
     0
100
AcDbPolyline
 90
        4
 70
     1
 43
0.0
 10
191.394
 20
149.376
 10
192.093999999997
 20
149.376
 10
192.093999999997
 20
150.076
 10
191.394
 20
150.076
  0
LWPOLYLINE
  5
198
102
{ACAD_REACTORS
330
9E
102
}
330
1F
100
AcDbEntity
  8
EPLAN_Graphic
370
     0
100
AcDbPolyline
 90
        4
 70
     1
 43
0.0
 10
194.593999999997
 20
146.836
 10
193.894
 20
146.836
 10
193.894
 20
147.536
 10
194.593999999997
 20
147.536
  0
LWPOLYLINE
  5
199
102
{ACAD_REACTORS
330
9E
102
}
330
1F
100
AcDbEntity
  8
EPLAN_Graphic
370
     0
100
AcDbPolyline
 90
        4
 70
     1
 43
0.0
 10
191.394
 20
146.836
 10
192.093999999997
 20
146.836
 10
192.093999999997
 20
147.536
 10
191.394
 20
147.536
  0
LWPOLYLINE
  5
19A
102
{ACAD_REACTORS
330
9E
102
}
330
1F
100
AcDbEntity
  8
EPLAN_Graphic
370
     0
100
AcDbPolyline
 90
        4
 70
     1
 43
0.0
 10
194.593999999997
 20
144.296
 10
193.894
 20
144.296
 10
193.894
 20
144.996
 10
194.593999999997
 20
144.996
  0
LWPOLYLINE
  5
19B
102
{ACAD_REACTORS
330
9E
102
}
330
1F
100
AcDbEntity
  8
EPLAN_Graphic
370
     0
100
AcDbPolyline
 90
        4
 70
     1
 43
0.0
 10
191.394
 20
144.296
 10
192.093999999997
 20
144.296
 10
192.093999999997
 20
144.996
 10
191.394
 20
144.996
  0
LWPOLYLINE
  5
19C
102
{ACAD_REACTORS
330
9E
102
}
330
1F
100
AcDbEntity
  8
EPLAN_Graphic
370
     0
100
AcDbPolyline
 90
        4
 70
     1
 43
0.0
 10
194.593999999997
 20
141.756
 10
193.894
 20
141.756
 10
193.894
 20
142.456
 10
194.593999999997
 20
142.456
  0
LWPOLYLINE
  5
19D
102
{ACAD_REACTORS
330
9E
102
}
330
1F
100
AcDbEntity
  8
EPLAN_Graphic
370
     0
100
AcDbPolyline
 90
        4
 70
     1
 43
0.0
 10
191.394
 20
141.756
 10
192.093999999997
 20
141.756
 10
192.093999999997
 20
142.456
 10
191.394
 20
142.456
  0
LWPOLYLINE
  5
19E
102
{ACAD_REACTORS
330
9E
102
}
330
1F
100
AcDbEntity
  8
EPLAN_Graphic
370
     0
100
AcDbPolyline
 90
        4
 70
     1
 43
0.0
 10
195.493999999999
 20
176.036
 10
190.493999999999
 20
176.036
 10
190.493999999999
 20
168.036
 10
195.493999999999
 20
168.036
  0
LWPOLYLINE
  5
19F
102
{ACAD_REACTORS
330
9E
102
}
330
1F
100
AcDbEntity
  8
EPLAN_Graphic
370
     0
100
AcDbPolyline
 90
        4
 70
     1
 43
0.0
 10
195.493999999999
 20
139.036
 10
190.493999999999
 20
139.036
 10
190.493999999999
 20
131.036
 10
195.493999999999
 20
131.036
  0
LWPOLYLINE
  5
1A0
102
{ACAD_REACTORS
330
9E
102
}
330
1F
100
AcDbEntity
  8
EPLAN_Graphic
370
     0
100
AcDbPolyline
 90
        4
 70
     0
 43
0.0
 10
195.493999999999
 20
138.23725466347
 10
196.194
 20
138.23725466347
 10
196.194
 20
168.93725466347
 10
195.493999999999
 20
168.93725466347
  0
LWPOLYLINE
  5
1A1
102
{ACAD_REACTORS
330
9E
102
}
330
1F
100
AcDbEntity
  8
EPLAN_Graphic
370
     0
100
AcDbPolyline
 90
        4
 70
     0
 43
0.0
 10
190.493999999999
 20
168.93725466347
 10
189.793999999998
 20
168.93725466347
 10
189.793999999998
 20
138.23725466347
 10
190.493999999999
 20
138.23725466347
  0
LINE
  5
1A2
102
{ACAD_REACTORS
330
9E
102
}
330
1F
100
AcDbEntity
  8
EPLAN_Graphic
370
     0
100
AcDbLine
 10
196.993999999999
 20
133.836
 30
0.0
 11
195.493999999999
 21
133.836
 31
0.0
  0
LINE
  5
1A3
102
{ACAD_REACTORS
330
9E
102
}
330
1F
100
AcDbEntity
  8
EPLAN_Graphic
370
     0
100
AcDbLine
 10
196.993999999999
 20
173.236
 30
0.0
 11
195.493999999999
 21
173.236
 31
0.0
  0
LINE
  5
1A4
102
{ACAD_REACTORS
330
9E
102
}
330
1F
100
AcDbEntity
  8
EPLAN_Graphic
370
     0
100
AcDbLine
 10
190.493999999999
 20
173.236
 30
0.0
 11
188.993999999999
 21
173.236
 31
0.0
  0
CIRCLE
  5
1A5
102
{ACAD_REACTORS
330
9E
102
}
330
1F
100
AcDbEntity
  8
EPLAN_Graphic
370
     0
100
AcDbCircle
 10
192.993999999999
 20
173.856
 30
0.0
 40
1.3
  0
CIRCLE
  5
1A6
102
{ACAD_REACTORS
330
9E
102
}
330
1F
100
AcDbEntity
  8
EPLAN_Graphic
370
     0
100
AcDbCircle
 10
192.993999999999
 20
133.216
 30
0.0
 40
1.3
  0
LINE
  5
1A7
102
{ACAD_REACTORS
330
9E
102
}
330
1F
100
AcDbEntity
  8
EPLAN_Graphic
370
     0
100
AcDbLine
 10
190.493999999999
 20
133.836
 30
0.0
 11
188.993999999999
 21
133.836
 31
0.0
  0
LINE
  5
1A8
102
{ACAD_REACTORS
330
9E
102
}
330
1F
100
AcDbEntity
  8
EPLAN_Graphic
370
     0
100
AcDbLine
 10
206.993999999999
 20
176.036
 30
0.0
 11
198.993999999999
 21
176.036
 31
0.0
  0
LINE
  5
1A9
102
{ACAD_REACTORS
330
9E
102
}
330
1F
100
AcDbEntity
  8
EPLAN_Graphic
370
     0
100
AcDbLine
 10
198.993999999999
 20
131.036
 30
0.0
 11
206.993999999999
 21
131.036
 31
0.0
  0
LINE
  5
1AA
102
{ACAD_REACTORS
330
9E
102
}
330
1F
100
AcDbEntity
  8
EPLAN_Graphic
370
     0
100
AcDbLine
 10
206.993999999999
 20
131.036
 30
0.0
 11
206.993999999999
 21
176.036
 31
0.0
  0
LINE
  5
1AB
102
{ACAD_REACTORS
330
9E
102
}
330
1F
100
AcDbEntity
  8
EPLAN_Graphic
370
     0
100
AcDbLine
 10
198.993999999999
 20
131.036
 30
0.0
 11
198.993999999999
 21
176.036
 31
0.0
  0
LWPOLYLINE
  5
1AC
102
{ACAD_REACTORS
330
9E
102
}
330
1F
100
AcDbEntity
  8
EPLAN_Graphic
370
     0
100
AcDbPolyline
 90
        4
 70
     1
 43
0.0
 10
204.593999999997
 20
155.156
 10
203.894
 20
155.156
 10
203.894
 20
154.456
 10
204.593999999997
 20
154.456
  0
LWPOLYLINE
  5
1AD
102
{ACAD_REACTORS
330
9E
102
}
330
1F
100
AcDbEntity
  8
EPLAN_Graphic
370
     0
100
AcDbPolyline
 90
        4
 70
     1
 43
0.0
 10
201.394
 20
155.156
 10
202.093999999997
 20
155.156
 10
202.093999999997
 20
154.456
 10
201.394
 20
154.456
  0
LWPOLYLINE
  5
1AE
102
{ACAD_REACTORS
330
9E
102
}
330
1F
100
AcDbEntity
  8
EPLAN_Graphic
370
     0
100
AcDbPolyline
 90
        4
 70
     1
 43
0.0
 10
204.593999999997
 20
157.696
 10
203.894
 20
157.696
 10
203.894
 20
156.996
 10
204.593999999997
 20
156.996
  0
LWPOLYLINE
  5
1AF
102
{ACAD_REACTORS
330
9E
102
}
330
1F
100
AcDbEntity
  8
EPLAN_Graphic
370
     0
100
AcDbPolyline
 90
        4
 70
     1
 43
0.0
 10
201.394
 20
157.696
 10
202.093999999997
 20
157.696
 10
202.093999999997
 20
156.996
 10
201.394
 20
156.996
  0
LWPOLYLINE
  5
1B0
102
{ACAD_REACTORS
330
9E
102
}
330
1F
100
AcDbEntity
  8
EPLAN_Graphic
370
     0
100
AcDbPolyline
 90
        4
 70
     1
 43
0.0
 10
204.593999999997
 20
160.236
 10
203.894
 20
160.236
 10
203.894
 20
159.536
 10
204.593999999997
 20
159.536
  0
LWPOLYLINE
  5
1B1
102
{ACAD_REACTORS
330
9E
102
}
330
1F
100
AcDbEntity
  8
EPLAN_Graphic
370
     0
100
AcDbPolyline
 90
        4
 70
     1
 43
0.0
 10
201.394
 20
160.236
 10
202.093999999997
 20
160.236
 10
202.093999999997
 20
159.536
 10
201.394
 20
159.536
  0
LWPOLYLINE
  5
1B2
102
{ACAD_REACTORS
330
9E
102
}
330
1F
100
AcDbEntity
  8
EPLAN_Graphic
370
     0
100
AcDbPolyline
 90
        4
 70
     1
 43
0.0
 10
204.593999999997
 20
162.776
 10
203.894
 20
162.776
 10
203.894
 20
162.076
 10
204.593999999997
 20
162.076
  0
LWPOLYLINE
  5
1B3
102
{ACAD_REACTORS
330
9E
102
}
330
1F
100
AcDbEntity
  8
EPLAN_Graphic
370
     0
100
AcDbPolyline
 90
        4
 70
     1
 43
0.0
 10
201.394
 20
162.776
 10
202.093999999997
 20
162.776
 10
202.093999999997
 20
162.076
 10
201.394
 20
162.076
  0
LWPOLYLINE
  5
1B4
102
{ACAD_REACTORS
330
9E
102
}
330
1F
100
AcDbEntity
  8
EPLAN_Graphic
370
     0
100
AcDbPolyline
 90
        4
 70
     1
 43
0.0
 10
204.593999999997
 20
165.316
 10
203.894
 20
165.316
 10
203.894
 20
164.616
 10
204.593999999997
 20
164.616
  0
LWPOLYLINE
  5
1B5
102
{ACAD_REACTORS
330
9E
102
}
330
1F
100
AcDbEntity
  8
EPLAN_Graphic
370
     0
100
AcDbPolyline
 90
        4
 70
     1
 43
0.0
 10
201.394
 20
165.316
 10
202.093999999997
 20
165.316
 10
202.093999999997
 20
164.616
 10
201.394
 20
164.616
  0
LWPOLYLINE
  5
1B6
102
{ACAD_REACTORS
330
9E
102
}
330
1F
100
AcDbEntity
  8
EPLAN_Graphic
370
     0
100
AcDbPolyline
 90
        4
 70
     1
 43
0.0
 10
204.593999999997
 20
151.916
 10
203.894
 20
151.916
 10
203.894
 20
152.616
 10
204.593999999997
 20
152.616
  0
LWPOLYLINE
  5
1B7
102
{ACAD_REACTORS
330
9E
102
}
330
1F
100
AcDbEntity
  8
EPLAN_Graphic
370
     0
100
AcDbPolyline
 90
        4
 70
     1
 43
0.0
 10
201.394
 20
151.916
 10
202.093999999997
 20
151.916
 10
202.093999999997
 20
152.616
 10
201.394
 20
152.616
  0
LWPOLYLINE
  5
1B8
102
{ACAD_REACTORS
330
9E
102
}
330
1F
100
AcDbEntity
  8
EPLAN_Graphic
370
     0
100
AcDbPolyline
 90
        4
 70
     1
 43
0.0
 10
204.593999999997
 20
149.376
 10
203.894
 20
149.376
 10
203.894
 20
150.076
 10
204.593999999997
 20
150.076
  0
LWPOLYLINE
  5
1B9
102
{ACAD_REACTORS
330
9E
102
}
330
1F
100
AcDbEntity
  8
EPLAN_Graphic
370
     0
100
AcDbPolyline
 90
        4
 70
     1
 43
0.0
 10
201.394
 20
149.376
 10
202.093999999997
 20
149.376
 10
202.093999999997
 20
150.076
 10
201.394
 20
150.076
  0
LWPOLYLINE
  5
1BA
102
{ACAD_REACTORS
330
9E
102
}
330
1F
100
AcDbEntity
  8
EPLAN_Graphic
370
     0
100
AcDbPolyline
 90
        4
 70
     1
 43
0.0
 10
204.593999999997
 20
146.836
 10
203.894
 20
146.836
 10
203.894
 20
147.536
 10
204.593999999997
 20
147.536
  0
LWPOLYLINE
  5
1BB
102
{ACAD_REACTORS
330
9E
102
}
330
1F
100
AcDbEntity
  8
EPLAN_Graphic
370
     0
100
AcDbPolyline
 90
        4
 70
     1
 43
0.0
 10
201.394
 20
146.836
 10
202.093999999997
 20
146.836
 10
202.093999999997
 20
147.536
 10
201.394
 20
147.536
  0
LWPOLYLINE
  5
1BC
102
{ACAD_REACTORS
330
9E
102
}
330
1F
100
AcDbEntity
  8
EPLAN_Graphic
370
     0
100
AcDbPolyline
 90
        4
 70
     1
 43
0.0
 10
204.593999999997
 20
144.296
 10
203.894
 20
144.296
 10
203.894
 20
144.996
 10
204.593999999997
 20
144.996
  0
LWPOLYLINE
  5
1BD
102
{ACAD_REACTORS
330
9E
102
}
330
1F
100
AcDbEntity
  8
EPLAN_Graphic
370
     0
100
AcDbPolyline
 90
        4
 70
     1
 43
0.0
 10
201.394
 20
144.296
 10
202.093999999997
 20
144.296
 10
202.093999999997
 20
144.996
 10
201.394
 20
144.996
  0
LWPOLYLINE
  5
1BE
102
{ACAD_REACTORS
330
9E
102
}
330
1F
100
AcDbEntity
  8
EPLAN_Graphic
370
     0
100
AcDbPolyline
 90
        4
 70
     1
 43
0.0
 10
204.593999999997
 20
141.756
 10
203.894
 20
141.756
 10
203.894
 20
142.456
 10
204.593999999997
 20
142.456
  0
LWPOLYLINE
  5
1BF
102
{ACAD_REACTORS
330
9E
102
}
330
1F
100
AcDbEntity
  8
EPLAN_Graphic
370
     0
100
AcDbPolyline
 90
        4
 70
     1
 43
0.0
 10
201.394
 20
141.756
 10
202.093999999997
 20
141.756
 10
202.093999999997
 20
142.456
 10
201.394
 20
142.456
  0
LWPOLYLINE
  5
1C0
102
{ACAD_REACTORS
330
9E
102
}
330
1F
100
AcDbEntity
  8
EPLAN_Graphic
370
     0
100
AcDbPolyline
 90
        4
 70
     1
 43
0.0
 10
205.493999999999
 20
176.036
 10
200.493999999999
 20
176.036
 10
200.493999999999
 20
168.036
 10
205.493999999999
 20
168.036
  0
LWPOLYLINE
  5
1C1
102
{ACAD_REACTORS
330
9E
102
}
330
1F
100
AcDbEntity
  8
EPLAN_Graphic
370
     0
100
AcDbPolyline
 90
        4
 70
     1
 43
0.0
 10
205.493999999999
 20
139.036
 10
200.493999999999
 20
139.036
 10
200.493999999999
 20
131.036
 10
205.493999999999
 20
131.036
  0
LWPOLYLINE
  5
1C2
102
{ACAD_REACTORS
330
9E
102
}
330
1F
100
AcDbEntity
  8
EPLAN_Graphic
370
     0
100
AcDbPolyline
 90
        4
 70
     0
 43
0.0
 10
205.493999999999
 20
138.23725466347
 10
206.194
 20
138.23725466347
 10
206.194
 20
168.93725466347
 10
205.493999999999
 20
168.93725466347
  0
LWPOLYLINE
  5
1C3
102
{ACAD_REACTORS
330
9E
102
}
330
1F
100
AcDbEntity
  8
EPLAN_Graphic
370
     0
100
AcDbPolyline
 90
        4
 70
     0
 43
0.0
 10
200.493999999999
 20
168.93725466347
 10
199.793999999998
 20
168.93725466347
 10
199.793999999998
 20
138.23725466347
 10
200.493999999999
 20
138.23725466347
  0
LINE
  5
1C4
102
{ACAD_REACTORS
330
9E
102
}
330
1F
100
AcDbEntity
  8
EPLAN_Graphic
370
     0
100
AcDbLine
 10
206.993999999999
 20
133.836
 30
0.0
 11
205.493999999999
 21
133.836
 31
0.0
  0
LINE
  5
1C5
102
{ACAD_REACTORS
330
9E
102
}
330
1F
100
AcDbEntity
  8
EPLAN_Graphic
370
     0
100
AcDbLine
 10
206.993999999999
 20
173.236
 30
0.0
 11
205.493999999999
 21
173.236
 31
0.0
  0
LINE
  5
1C6
102
{ACAD_REACTORS
330
9E
102
}
330
1F
100
AcDbEntity
  8
EPLAN_Graphic
370
     0
100
AcDbLine
 10
200.493999999999
 20
173.236
 30
0.0
 11
198.993999999999
 21
173.236
 31
0.0
  0
CIRCLE
  5
1C7
102
{ACAD_REACTORS
330
9E
102
}
330
1F
100
AcDbEntity
  8
EPLAN_Graphic
370
     0
100
AcDbCircle
 10
202.993999999999
 20
173.856
 30
0.0
 40
1.3
  0
CIRCLE
  5
1C8
102
{ACAD_REACTORS
330
9E
102
}
330
1F
100
AcDbEntity
  8
EPLAN_Graphic
370
     0
100
AcDbCircle
 10
202.993999999999
 20
133.216
 30
0.0
 40
1.3
  0
LINE
  5
1C9
102
{ACAD_REACTORS
330
9E
102
}
330
1F
100
AcDbEntity
  8
EPLAN_Graphic
370
     0
100
AcDbLine
 10
200.493999999999
 20
133.836
 30
0.0
 11
198.993999999999
 21
133.836
 31
0.0
  0
LINE
  5
1CA
102
{ACAD_REACTORS
330
9E
102
}
330
1F
100
AcDbEntity
  8
EPLAN_Graphic
370
     0
100
AcDbLine
 10
187.498199999998
 20
165.804166368
 30
0.0
 11
186.896880623997
 21
165.804166368
 31
0.0
  0
TEXT
  5
1CB
102
{ACAD_REACTORS
330
9E
102
}
330
1F
100
AcDbEntity
  8
EPLAN_Graphic
 62
   240
100
AcDbText
 10
184.5117456963992
 20
170.4542286777701
 30
0.0
 40
0.9999999999997699
  1
P0
  7
Tahoma
 72
     1
 11
185.266245696399
 21
170.95422867777
 31
0.0
100
AcDbText
 73
     2
  0
TEXT
  5
1CC
102
{ACAD_REACTORS
330
9E
102
}
330
1F
100
AcDbEntity
  8
EPLAN_Graphic
 62
   240
100
AcDbText
 10
184.2957420066001
 20
167.6236438137601
 30
0.0
 40
0.9999999999997699
  1
0
  7
Tahoma
 72
     1
 11
184.6712420066
 21
168.12364381376
 31
0.0
100
AcDbText
 73
     2
  0
TEXT
  5
1CD
102
{ACAD_REACTORS
330
9E
102
}
330
1F
100
AcDbEntity
  8
EPLAN_Graphic
 62
   240
100
AcDbText
 10
184.1636784085001
 20
163.8512566343701
 30
0.0
 40
0.9999999999997699
  1
1
  7
Tahoma
 72
     1
 11
184.5391784085
 21
164.35125663437
 31
0.0
100
AcDbText
 73
     2
  0
TEXT
  5
1CE
102
{ACAD_REACTORS
330
9E
102
}
330
1F
100
AcDbEntity
  8
EPLAN_Graphic
 62
   240
100
AcDbText
 10
184.2957420066001
 20
160.6292426937601
 30
0.0
 40
0.9999999999997699
  1
2
  7
Tahoma
 72
     1
 11
184.6712420066
 21
161.12924269376
 31
0.0
100
AcDbText
 73
     2
  0
TEXT
  5
1CF
102
{ACAD_REACTORS
330
9E
102
}
330
1F
100
AcDbEntity
  8
EPLAN_Graphic
 62
   240
100
AcDbText
 10
184.2957420066001
 20
156.8568555143702
 30
0.0
 40
0.9999999999997699
  1
3
  7
Tahoma
 72
     1
 11
184.6712420066
 21
157.35685551437
 31
0.0
100
AcDbText
 73
     2
  0
TEXT
  5
1D0
102
{ACAD_REACTORS
330
9E
102
}
330
1F
100
AcDbEntity
  8
EPLAN_Graphic
 62
   240
100
AcDbText
 10
184.2957420066001
 20
153.6348415737602
 30
0.0
 40
0.9999999999997699
  1
4
  7
Tahoma
 72
     1
 11
184.6712420066
 21
154.13484157376
 31
0.0
100
AcDbText
 73
     2
  0
TEXT
  5
1D1
102
{ACAD_REACTORS
330
9E
102
}
330
1F
100
AcDbEntity
  8
EPLAN_Graphic
 62
   240
100
AcDbText
 10
184.2957420066001
 20
149.8624543943702
 30
0.0
 40
0.9999999999997699
  1
5
  7
Tahoma
 72
     1
 11
184.6712420066
 21
150.36245439437
 31
0.0
100
AcDbText
 73
     2
  0
TEXT
  5
1D2
102
{ACAD_REACTORS
330
9E
102
}
330
1F
100
AcDbEntity
  8
EPLAN_Graphic
 62
   240
100
AcDbText
 10
184.2957420066001
 20
146.6404404537601
 30
0.0
 40
0.9999999999997699
  1
6
  7
Tahoma
 72
     1
 11
184.6712420066
 21
147.14044045376
 31
0.0
100
AcDbText
 73
     2
  0
TEXT
  5
1D3
102
{ACAD_REACTORS
330
9E
102
}
330
1F
100
AcDbEntity
  8
EPLAN_Graphic
 62
   240
100
AcDbText
 10
184.2957420066001
 20
142.8680532743711
 30
0.0
 40
0.9999999999997699
  1
7
  7
Tahoma
 72
     1
 11
184.6712420066
 21
143.368053274371
 31
0.0
100
AcDbText
 73
     2
  0
LWPOLYLINE
  5
1D4
102
{ACAD_REACTORS
330
9E
102
}
330
1F
100
AcDbEntity
  8
EPLAN_Graphic
370
     0
100
AcDbPolyline
 90
        2
 70
     1
 43
0.0
 10
186.096435979998
 20
168.24268042798
 42
1.0
 10
185.691771156198
 20
168.24268042798
 42
1.0
  0
HATCH
  5
1D5
330
1F
100
AcDbEntity
  8
EPLAN_Graphic
370
     0
100
AcDbHatch
 10
0.0
 20
0.0
 30
0.0
210
0.0
220
0.0
230
1.0
  2
SOLID
 70
     1
 71
     0
 91
        1
 92
        2
 72
     1
 73
     1
 93
        2
 10
186.096435979998
 20
168.24268042798
 42
1.0
 10
185.691771156198
 20
168.24268042798
 42
1.0
 97
        0
 75
     0
 76
     1
 98
        0
  0
CIRCLE
  5
1D6
102
{ACAD_REACTORS
330
9E
102
}
330
1F
100
AcDbEntity
  8
EPLAN_Graphic
370
     0
100
AcDbCircle
 10
185.894103568098
 20
168.24268042798
 30
0.0
 40
0.2023324118844441
  0
LWPOLYLINE
  5
1D7
102
{ACAD_REACTORS
330
9E
102
}
330
1F
100
AcDbEntity
  8
EPLAN_Graphic
370
     0
100
AcDbPolyline
 90
        2
 70
     1
 43
0.0
 10
186.096435979998
 20
164.74547986798
 42
1.0
 10
185.691771156198
 20
164.74547986798
 42
1.0
  0
HATCH
  5
1D8
330
1F
100
AcDbEntity
  8
EPLAN_Graphic
370
     0
100
AcDbHatch
 10
0.0
 20
0.0
 30
0.0
210
0.0
220
0.0
230
1.0
  2
SOLID
 70
     1
 71
     0
 91
        1
 92
        2
 72
     1
 73
     1
 93
        2
 10
186.096435979998
 20
164.74547986798
 42
1.0
 10
185.691771156198
 20
164.74547986798
 42
1.0
 97
        0
 75
     0
 76
     1
 98
        0
  0
CIRCLE
  5
1D9
102
{ACAD_REACTORS
330
9E
102
}
330
1F
100
AcDbEntity
  8
EPLAN_Graphic
370
     0
100
AcDbCircle
 10
185.894103568098
 20
164.74547986798
 30
0.0
 40
0.2023324118844441
  0
LWPOLYLINE
  5
1DA
102
{ACAD_REACTORS
330
9E
102
}
330
1F
100
AcDbEntity
  8
EPLAN_Graphic
370
     0
100
AcDbPolyline
 90
        2
 70
     1
 43
0.0
 10
186.096435979998
 20
161.24827930798
 42
1.0
 10
185.691771156198
 20
161.24827930798
 42
1.0
  0
HATCH
  5
1DB
330
1F
100
AcDbEntity
  8
EPLAN_Graphic
370
     0
100
AcDbHatch
 10
0.0
 20
0.0
 30
0.0
210
0.0
220
0.0
230
1.0
  2
SOLID
 70
     1
 71
     0
 91
        1
 92
        2
 72
     1
 73
     1
 93
        2
 10
186.096435979998
 20
161.24827930798
 42
1.0
 10
185.691771156198
 20
161.24827930798
 42
1.0
 97
        0
 75
     0
 76
     1
 98
        0
  0
CIRCLE
  5
1DC
102
{ACAD_REACTORS
330
9E
102
}
330
1F
100
AcDbEntity
  8
EPLAN_Graphic
370
     0
100
AcDbCircle
 10
185.894103568098
 20
161.24827930798
 30
0.0
 40
0.2023324118844441
  0
LWPOLYLINE
  5
1DD
102
{ACAD_REACTORS
330
9E
102
}
330
1F
100
AcDbEntity
  8
EPLAN_Graphic
370
     0
100
AcDbPolyline
 90
        2
 70
     1
 43
0.0
 10
186.096435979998
 20
157.751078747981
 42
1.0
 10
185.691771156198
 20
157.751078747981
 42
1.0
  0
HATCH
  5
1DE
330
1F
100
AcDbEntity
  8
EPLAN_Graphic
370
     0
100
AcDbHatch
 10
0.0
 20
0.0
 30
0.0
210
0.0
220
0.0
230
1.0
  2
SOLID
 70
     1
 71
     0
 91
        1
 92
        2
 72
     1
 73
     1
 93
        2
 10
186.096435979998
 20
157.751078747981
 42
1.0
 10
185.691771156198
 20
157.751078747981
 42
1.0
 97
        0
 75
     0
 76
     1
 98
        0
  0
CIRCLE
  5
1DF
102
{ACAD_REACTORS
330
9E
102
}
330
1F
100
AcDbEntity
  8
EPLAN_Graphic
370
     0
100
AcDbCircle
 10
185.894103568098
 20
157.751078747981
 30
0.0
 40
0.2023324118844441
  0
LWPOLYLINE
  5
1E0
102
{ACAD_REACTORS
330
9E
102
}
330
1F
100
AcDbEntity
  8
EPLAN_Graphic
370
     0
100
AcDbPolyline
 90
        2
 70
     1
 43
0.0
 10
186.096435979998
 20
154.25387818798
 42
1.0
 10
185.691771156198
 20
154.25387818798
 42
1.0
  0
HATCH
  5
1E1
330
1F
100
AcDbEntity
  8
EPLAN_Graphic
370
     0
100
AcDbHatch
 10
0.0
 20
0.0
 30
0.0
210
0.0
220
0.0
230
1.0
  2
SOLID
 70
     1
 71
     0
 91
        1
 92
        2
 72
     1
 73
     1
 93
        2
 10
186.096435979998
 20
154.25387818798
 42
1.0
 10
185.691771156198
 20
154.25387818798
 42
1.0
 97
        0
 75
     0
 76
     1
 98
        0
  0
CIRCLE
  5
1E2
102
{ACAD_REACTORS
330
9E
102
}
330
1F
100
AcDbEntity
  8
EPLAN_Graphic
370
     0
100
AcDbCircle
 10
185.894103568098
 20
154.25387818798
 30
0.0
 40
0.2023324118844441
  0
LWPOLYLINE
  5
1E3
102
{ACAD_REACTORS
330
9E
102
}
330
1F
100
AcDbEntity
  8
EPLAN_Graphic
370
     0
100
AcDbPolyline
 90
        2
 70
     1
 43
0.0
 10
186.096435979998
 20
150.75667762798
 42
1.0
 10
185.691771156198
 20
150.75667762798
 42
1.0
  0
HATCH
  5
1E4
330
1F
100
AcDbEntity
  8
EPLAN_Graphic
370
     0
100
AcDbHatch
 10
0.0
 20
0.0
 30
0.0
210
0.0
220
0.0
230
1.0
  2
SOLID
 70
     1
 71
     0
 91
        1
 92
        2
 72
     1
 73
     1
 93
        2
 10
186.096435979998
 20
150.75667762798
 42
1.0
 10
185.691771156198
 20
150.75667762798
 42
1.0
 97
        0
 75
     0
 76
     1
 98
        0
  0
CIRCLE
  5
1E5
102
{ACAD_REACTORS
330
9E
102
}
330
1F
100
AcDbEntity
  8
EPLAN_Graphic
370
     0
100
AcDbCircle
 10
185.894103568098
 20
150.75667762798
 30
0.0
 40
0.2023324118844441
  0
LWPOLYLINE
  5
1E6
102
{ACAD_REACTORS
330
9E
102
}
330
1F
100
AcDbEntity
  8
EPLAN_Graphic
370
     0
100
AcDbPolyline
 90
        2
 70
     1
 43
0.0
 10
186.096435979998
 20
147.25947706798
 42
1.0
 10
185.691771156198
 20
147.25947706798
 42
1.0
  0
HATCH
  5
1E7
330
1F
100
AcDbEntity
  8
EPLAN_Graphic
370
     0
100
AcDbHatch
 10
0.0
 20
0.0
 30
0.0
210
0.0
220
0.0
230
1.0
  2
SOLID
 70
     1
 71
     0
 91
        1
 92
        2
 72
     1
 73
     1
 93
        2
 10
186.096435979998
 20
147.25947706798
 42
1.0
 10
185.691771156198
 20
147.25947706798
 42
1.0
 97
        0
 75
     0
 76
     1
 98
        0
  0
CIRCLE
  5
1E8
102
{ACAD_REACTORS
330
9E
102
}
330
1F
100
AcDbEntity
  8
EPLAN_Graphic
370
     0
100
AcDbCircle
 10
185.894103568098
 20
147.25947706798
 30
0.0
 40
0.2023324118844441
  0
LWPOLYLINE
  5
1E9
102
{ACAD_REACTORS
330
9E
102
}
330
1F
100
AcDbEntity
  8
EPLAN_Graphic
370
     0
100
AcDbPolyline
 90
        2
 70
     1
 43
0.0
 10
186.096435979998
 20
143.76227650798
 42
1.0
 10
185.691771156198
 20
143.76227650798
 42
1.0
  0
HATCH
  5
1EA
330
1F
100
AcDbEntity
  8
EPLAN_Graphic
370
     0
100
AcDbHatch
 10
0.0
 20
0.0
 30
0.0
210
0.0
220
0.0
230
1.0
  2
SOLID
 70
     1
 71
     0
 91
        1
 92
        2
 72
     1
 73
     1
 93
        2
 10
186.096435979998
 20
143.76227650798
 42
1.0
 10
185.691771156198
 20
143.76227650798
 42
1.0
 97
        0
 75
     0
 76
     1
 98
        0
  0
CIRCLE
  5
1EB
102
{ACAD_REACTORS
330
9E
102
}
330
1F
100
AcDbEntity
  8
EPLAN_Graphic
370
     0
100
AcDbCircle
 10
185.894103568098
 20
143.76227650798
 30
0.0
 40
0.2023324118844441
  0
LINE
  5
1EC
102
{ACAD_REACTORS
330
9E
102
}
330
1F
100
AcDbEntity
  8
EPLAN_Graphic
370
     0
100
AcDbLine
 10
186.540023424001
 20
134.7740183856
 30
0.0
 11
186.540023424001
 21
141.7684195056
 31
0.0
  0
LINE
  5
1ED
102
{ACAD_REACTORS
330
9E
102
}
330
1F
100
AcDbEntity
  8
EPLAN_Graphic
370
     0
100
AcDbLine
 10
186.540023424001
 20
141.7684195056
 30
0.0
 11
186.540023424001
 21
171.6460239856
 31
0.0
  0
LWPOLYLINE
  5
1EE
102
{ACAD_REACTORS
330
9E
102
}
330
1F
100
AcDbEntity
  8
EPLAN_Graphic
370
     0
100
AcDbPolyline
 90
        7
 70
     1
 43
0.0
 10
186.440023423998
 20
172.083992392
 10
184.142023024
 20
172.083992392
 10
184.142023024
 20
172.083992392
 10
184.142023024
 20
169.9460239856
 10
184.142023024
 20
169.9460239856
 10
186.440023423998
 20
169.9460239856
 10
186.440023423998
 20
169.9460239856
  0
LWPOLYLINE
  5
1EF
102
{ACAD_REACTORS
330
9E
102
}
330
1F
100
AcDbEntity
  8
EPLAN_Graphic
370
     0
100
AcDbPolyline
 90
        7
 70
     1
 43
0.0
 10
186.540023424001
 20
169.7460239856
 10
184.042023023998
 20
169.7460239856
 10
184.042023023998
 20
169.7460239856
 10
184.042023023998
 20
172.283992392
 10
184.042023023998
 20
172.283992392
 10
186.540023424001
 20
172.283992392
 10
186.540023424001
 20
172.283992392
  0
LINE
  5
1F0
102
{ACAD_REACTORS
330
9E
102
}
330
1F
100
AcDbEntity
  8
EPLAN_Graphic
370
     0
100
AcDbLine
 10
186.540023424001
 20
169.7460239856
 30
0.0
 11
186.540023424001
 21
172.283992392
 31
0.0
  0
LINE
  5
1F1
102
{ACAD_REACTORS
330
9E
102
}
330
1F
100
AcDbEntity
  8
EPLAN_Graphic
370
     0
100
AcDbLine
 10
186.440023423998
 20
169.9460239856
 30
0.0
 11
186.440023423998
 21
172.083992392
 31
0.0
  0
LINE
  5
1F2
102
{ACAD_REACTORS
330
9E
102
}
330
1F
100
AcDbEntity
  8
EPLAN_Graphic
370
     0
100
AcDbLine
 10
184.042023023998
 20
134.7740183856
 30
0.0
 11
184.042023023998
 21
141.7684195056
 31
0.0
  0
LINE
  5
1F3
102
{ACAD_REACTORS
330
9E
102
}
330
1F
100
AcDbEntity
  8
EPLAN_Graphic
370
     0
100
AcDbLine
 10
184.042023023998
 20
141.7684195056
 30
0.0
 11
184.042023023998
 21
143.6684195056
 31
0.0
  0
LINE
  5
1F4
102
{ACAD_REACTORS
330
9E
102
}
330
1F
100
AcDbEntity
  8
EPLAN_Graphic
370
     0
100
AcDbLine
 10
184.042023023998
 20
141.7684195056
 30
0.0
 11
184.042023023998
 21
145.2656200656
 31
0.0
  0
LINE
  5
1F5
102
{ACAD_REACTORS
330
9E
102
}
330
1F
100
AcDbEntity
  8
EPLAN_Graphic
370
     0
100
AcDbLine
 10
184.042023023998
 20
145.2656200656
 30
0.0
 11
184.042023023998
 21
166.2488234256
 31
0.0
  0
LINE
  5
1F6
102
{ACAD_REACTORS
330
9E
102
}
330
1F
100
AcDbEntity
  8
EPLAN_Graphic
370
     0
100
AcDbLine
 10
184.042023023998
 20
166.2488234256
 30
0.0
 11
184.042023023998
 21
169.7460239856
 31
0.0
  0
LINE
  5
1F7
102
{ACAD_REACTORS
330
9E
102
}
330
1F
100
AcDbEntity
  8
EPLAN_Graphic
370
     0
100
AcDbLine
 10
186.540023424001
 20
172.283992392
 30
0.0
 11
184.042023023998
 21
172.283992392
 31
0.0
  0
LINE
  5
1F8
102
{ACAD_REACTORS
330
9E
102
}
330
1F
100
AcDbEntity
  8
EPLAN_Graphic
370
     0
100
AcDbLine
 10
186.440023423998
 20
172.083992392
 30
0.0
 11
184.142023024
 21
172.083992392
 31
0.0
  0
LINE
  5
1F9
102
{ACAD_REACTORS
330
9E
102
}
330
1F
100
AcDbEntity
  8
EPLAN_Graphic
370
     0
100
AcDbLine
 10
184.042023023998
 20
166.2488234256
 30
0.0
 11
186.540023424001
 21
166.2488234256
 31
0.0
  0
LINE
  5
1FA
102
{ACAD_REACTORS
330
9E
102
}
330
1F
100
AcDbEntity
  8
EPLAN_Graphic
370
     0
100
AcDbLine
 10
184.042023023998
 20
162.7516228656
 30
0.0
 11
186.540023424001
 21
162.7516228656
 31
0.0
  0
LINE
  5
1FB
102
{ACAD_REACTORS
330
9E
102
}
330
1F
100
AcDbEntity
  8
EPLAN_Graphic
370
     0
100
AcDbLine
 10
186.540023424001
 20
169.7460239856
 30
0.0
 11
184.042023023998
 21
169.7460239856
 31
0.0
  0
LINE
  5
1FC
102
{ACAD_REACTORS
330
9E
102
}
330
1F
100
AcDbEntity
  8
EPLAN_Graphic
370
     0
100
AcDbLine
 10
186.440023423998
 20
169.9460239856
 30
0.0
 11
184.142023024
 21
169.9460239856
 31
0.0
  0
LINE
  5
1FD
102
{ACAD_REACTORS
330
9E
102
}
330
1F
100
AcDbEntity
  8
EPLAN_Graphic
370
     0
100
AcDbLine
 10
184.042023023998
 20
155.7572217456
 30
0.0
 11
186.540023424001
 21
155.7572217456
 31
0.0
  0
LINE
  5
1FE
102
{ACAD_REACTORS
330
9E
102
}
330
1F
100
AcDbEntity
  8
EPLAN_Graphic
370
     0
100
AcDbLine
 10
184.042023023998
 20
152.2600211856
 30
0.0
 11
186.540023424001
 21
152.2600211856
 31
0.0
  0
LINE
  5
1FF
102
{ACAD_REACTORS
330
9E
102
}
330
1F
100
AcDbEntity
  8
EPLAN_Graphic
370
     0
100
AcDbLine
 10
184.042023023998
 20
148.7628206256
 30
0.0
 11
186.540023424001
 21
148.7628206256
 31
0.0
  0
LINE
  5
200
102
{ACAD_REACTORS
330
9E
102
}
330
1F
100
AcDbEntity
  8
EPLAN_Graphic
370
     0
100
AcDbLine
 10
184.042023023998
 20
145.2656200656
 30
0.0
 11
186.540023424001
 21
145.2656200656
 31
0.0
  0
LINE
  5
201
102
{ACAD_REACTORS
330
9E
102
}
330
1F
100
AcDbEntity
  8
EPLAN_Graphic
370
     0
100
AcDbLine
 10
184.042023023998
 20
141.7684195056
 30
0.0
 11
186.540023424001
 21
141.7684195056
 31
0.0
  0
LINE
  5
202
102
{ACAD_REACTORS
330
9E
102
}
330
1F
100
AcDbEntity
  8
EPLAN_Graphic
370
     0
100
AcDbLine
 10
184.042023023998
 20
159.2544223056
 30
0.0
 11
186.540023424001
 21
159.2544223056
 31
0.0
  0
LINE
  5
203
102
{ACAD_REACTORS
330
9E
102
}
330
1F
100
AcDbEntity
  8
EPLAN_Graphic
370
     0
100
AcDbLine
 10
184.042023023998
 20
169.7460239856
 30
0.0
 11
184.042023023998
 21
172.283992392
 31
0.0
  0
LINE
  5
204
102
{ACAD_REACTORS
330
9E
102
}
330
1F
100
AcDbEntity
  8
EPLAN_Graphic
370
     0
100
AcDbLine
 10
184.142023024
 20
169.9460239856
 30
0.0
 11
184.142023024
 21
172.083992392
 31
0.0
  0
LINE
  5
205
102
{ACAD_REACTORS
330
9E
102
}
330
1F
100
AcDbEntity
  8
EPLAN_Graphic
370
     0
100
AcDbLine
 10
185.291023223999
 20
169.7460239856
 30
0.0
 11
185.291023223999
 21
134.7740183856
 31
0.0
  0
LINE
  5
206
102
{ACAD_REACTORS
330
9E
102
}
330
1F
100
AcDbEntity
  8
EPLAN_Graphic
370
     0
100
AcDbLine
 10
184.042023023998
 20
134.7740183856
 30
0.0
 11
186.540023424001
 21
134.7740183856
 31
0.0
  0
TEXT
  5
207
102
{ACAD_REACTORS
330
9E
102
}
330
1F
100
AcDbEntity
  8
EPLAN_Graphic
 62
   240
100
AcDbText
 10
185.1272114969979
 20
136.9964159473302
 30
0.0
 40
0.7999999999998175
  1
COM
 50
90.00000000000018
  7
Tahoma
 72
     1
 11
184.727211496998
 21
138.13961594733
 31
0.0
100
AcDbText
 73
     2
  0
LWPOLYLINE
  5
208
102
{ACAD_REACTORS
330
9E
102
}
330
1F
100
AcDbEntity
  8
EPLAN_Graphic
370
     0
100
AcDbPolyline
 90
        2
 70
     1
 43
0.0
 10
186.096435979998
 20
138.24197731846
 42
1.0
 10
185.691771156198
 20
138.24197731846
 42
1.0
  0
HATCH
  5
209
330
1F
100
AcDbEntity
  8
EPLAN_Graphic
370
     0
100
AcDbHatch
 10
0.0
 20
0.0
 30
0.0
210
0.0
220
0.0
230
1.0
  2
SOLID
 70
     1
 71
     0
 91
        1
 92
        2
 72
     1
 73
     1
 93
        2
 10
186.096435979998
 20
138.24197731846
 42
1.0
 10
185.691771156198
 20
138.24197731846
 42
1.0
 97
        0
 75
     0
 76
     1
 98
        0
  0
CIRCLE
  5
20A
102
{ACAD_REACTORS
330
9E
102
}
330
1F
100
AcDbEntity
  8
EPLAN_Graphic
370
     0
100
AcDbCircle
 10
185.894103568098
 20
138.24197731846
 30
0.0
 40
0.2023324118844441
  0
LINE
  5
20B
102
{ACAD_REACTORS
330
9E
102
}
330
1F
100
AcDbEntity
  8
EPLAN_Graphic
370
     0
100
AcDbLine
 10
209.447976575997
 20
134.7740183856
 30
0.0
 11
209.447976575997
 21
171.6460239856
 31
0.0
  0
LWPOLYLINE
  5
20C
102
{ACAD_REACTORS
330
9E
102
}
330
1F
100
AcDbEntity
  8
EPLAN_Graphic
370
     0
100
AcDbPolyline
 90
        8
 70
     1
 43
0.0
 10
209.547976575999
 20
172.08399239201
 10
211.845976975997
 20
172.083992392
 10
211.845976975997
 20
172.083992392
 10
211.845976975997
 20
169.9460239856
 10
211.845976975997
 20
169.9460239856
 10
209.547976575999
 20
169.9460239856
 10
209.547976575999
 20
169.9460239856
 10
209.547976575999
 20
172.083992392
  0
LWPOLYLINE
  5
20D
102
{ACAD_REACTORS
330
9E
102
}
330
1F
100
AcDbEntity
  8
EPLAN_Graphic
370
     0
100
AcDbPolyline
 90
        7
 70
     1
 43
0.0
 10
209.447976575997
 20
169.7460239856
 10
211.945976976
 20
169.7460239856
 10
211.945976976
 20
169.7460239856
 10
211.945976976
 20
172.283992392
 10
211.945976976
 20
172.283992392
 10
209.447976575997
 20
172.283992392
 10
209.447976575997
 20
172.283992392
  0
LINE
  5
20E
102
{ACAD_REACTORS
330
9E
102
}
330
1F
100
AcDbEntity
  8
EPLAN_Graphic
370
     0
100
AcDbLine
 10
211.945976976
 20
134.7740183856
 30
0.0
 11
211.945976976
 21
143.6684195056
 31
0.0
  0
LINE
  5
20F
102
{ACAD_REACTORS
330
9E
102
}
330
1F
100
AcDbEntity
  8
EPLAN_Graphic
370
     0
100
AcDbLine
 10
211.945976976
 20
141.7684195056
 30
0.0
 11
211.945976976
 21
145.2656200656
 31
0.0
  0
LINE
  5
210
102
{ACAD_REACTORS
330
9E
102
}
330
1F
100
AcDbEntity
  8
EPLAN_Graphic
370
     0
100
AcDbLine
 10
211.945976976
 20
145.2656200656
 30
0.0
 11
211.945976976
 21
166.2488234256
 31
0.0
  0
LINE
  5
211
102
{ACAD_REACTORS
330
9E
102
}
330
1F
100
AcDbEntity
  8
EPLAN_Graphic
370
     0
100
AcDbLine
 10
211.945976976
 20
166.2488234256
 30
0.0
 11
211.945976976
 21
169.7460239856
 31
0.0
  0
LINE
  5
212
102
{ACAD_REACTORS
330
9E
102
}
330
1F
100
AcDbEntity
  8
EPLAN_Graphic
370
     0
100
AcDbLine
 10
209.447976575997
 20
172.283992392
 30
0.0
 11
211.945976976
 21
172.283992392
 31
0.0
  0
LINE
  5
213
102
{ACAD_REACTORS
330
9E
102
}
330
1F
100
AcDbEntity
  8
EPLAN_Graphic
370
     0
100
AcDbLine
 10
209.547976575999
 20
172.08399239201
 30
0.0
 11
211.845976975997
 21
172.083992392
 31
0.0
  0
LINE
  5
214
102
{ACAD_REACTORS
330
9E
102
}
330
1F
100
AcDbEntity
  8
EPLAN_Graphic
370
     0
100
AcDbLine
 10
211.945976976
 20
166.2488234256
 30
0.0
 11
209.447976575997
 21
166.2488234256
 31
0.0
  0
LINE
  5
215
102
{ACAD_REACTORS
330
9E
102
}
330
1F
100
AcDbEntity
  8
EPLAN_Graphic
370
     0
100
AcDbLine
 10
211.945976976
 20
162.75162286561
 30
0.0
 11
209.447976575997
 21
162.75162286561
 31
0.0
  0
LINE
  5
216
102
{ACAD_REACTORS
330
9E
102
}
330
1F
100
AcDbEntity
  8
EPLAN_Graphic
370
     0
100
AcDbLine
 10
209.447976575997
 20
169.7460239856
 30
0.0
 11
211.945976976
 21
169.7460239856
 31
0.0
  0
LINE
  5
217
102
{ACAD_REACTORS
330
9E
102
}
330
1F
100
AcDbEntity
  8
EPLAN_Graphic
370
     0
100
AcDbLine
 10
209.547976575999
 20
169.9460239856
 30
0.0
 11
211.845976975997
 21
169.9460239856
 31
0.0
  0
LINE
  5
218
102
{ACAD_REACTORS
330
9E
102
}
330
1F
100
AcDbEntity
  8
EPLAN_Graphic
370
     0
100
AcDbLine
 10
211.945976976
 20
155.7572217456
 30
0.0
 11
209.447976575997
 21
155.7572217456
 31
0.0
  0
LINE
  5
219
102
{ACAD_REACTORS
330
9E
102
}
330
1F
100
AcDbEntity
  8
EPLAN_Graphic
370
     0
100
AcDbLine
 10
211.945976976
 20
152.2600211856
 30
0.0
 11
209.447976575997
 21
152.2600211856
 31
0.0
  0
LINE
  5
21A
102
{ACAD_REACTORS
330
9E
102
}
330
1F
100
AcDbEntity
  8
EPLAN_Graphic
370
     0
100
AcDbLine
 10
211.945976976
 20
148.7628206256
 30
0.0
 11
209.447976575997
 21
148.7628206256
 31
0.0
  0
LINE
  5
21B
102
{ACAD_REACTORS
330
9E
102
}
330
1F
100
AcDbEntity
  8
EPLAN_Graphic
370
     0
100
AcDbLine
 10
211.945976976
 20
145.2656200656
 30
0.0
 11
209.447976575997
 21
145.2656200656
 31
0.0
  0
LINE
  5
21C
102
{ACAD_REACTORS
330
9E
102
}
330
1F
100
AcDbEntity
  8
EPLAN_Graphic
370
     0
100
AcDbLine
 10
211.945976976
 20
141.7684195056
 30
0.0
 11
209.447976575997
 21
141.7684195056
 31
0.0
  0
LINE
  5
21D
102
{ACAD_REACTORS
330
9E
102
}
330
1F
100
AcDbEntity
  8
EPLAN_Graphic
370
     0
100
AcDbLine
 10
211.945976976
 20
159.2544223056
 30
0.0
 11
209.447976575997
 21
159.2544223056
 31
0.0
  0
LINE
  5
21E
102
{ACAD_REACTORS
330
9E
102
}
330
1F
100
AcDbEntity
  8
EPLAN_Graphic
370
     0
100
AcDbLine
 10
211.945976976
 20
169.7460239856
 30
0.0
 11
211.945976976
 21
172.283992392
 31
0.0
  0
LINE
  5
21F
102
{ACAD_REACTORS
330
9E
102
}
330
1F
100
AcDbEntity
  8
EPLAN_Graphic
370
     0
100
AcDbLine
 10
211.845976975997
 20
169.9460239856
 30
0.0
 11
211.845976975997
 21
172.083992392
 31
0.0
  0
TEXT
  5
220
102
{ACAD_REACTORS
330
9E
102
}
330
1F
100
AcDbEntity
  8
EPLAN_Graphic
 62
   240
100
AcDbText
 10
209.9176992483982
 20
170.4542286777701
 30
0.0
 40
0.9999999999997699
  1
P2
  7
Tahoma
 72
     1
 11
210.672199248398
 21
170.95422867777
 31
0.0
100
AcDbText
 73
     2
  0
TEXT
  5
221
102
{ACAD_REACTORS
330
9E
102
}
330
1F
100
AcDbEntity
  8
EPLAN_Graphic
 62
   240
100
AcDbText
 10
209.7016955585991
 20
167.6236438137601
 30
0.0
 40
0.9999999999997699
  1
0
  7
Tahoma
 72
     1
 11
210.077195558599
 21
168.12364381376
 31
0.0
100
AcDbText
 73
     2
  0
TEXT
  5
222
102
{ACAD_REACTORS
330
9E
102
}
330
1F
100
AcDbEntity
  8
EPLAN_Graphic
 62
   240
100
AcDbText
 10
209.5696319605001
 20
163.8512566343701
 30
0.0
 40
0.9999999999997699
  1
1
  7
Tahoma
 72
     1
 11
209.9451319605
 21
164.35125663437
 31
0.0
100
AcDbText
 73
     2
  0
TEXT
  5
223
102
{ACAD_REACTORS
330
9E
102
}
330
1F
100
AcDbEntity
  8
EPLAN_Graphic
 62
   240
100
AcDbText
 10
209.7016955585991
 20
160.6292426937601
 30
0.0
 40
0.9999999999997699
  1
2
  7
Tahoma
 72
     1
 11
210.077195558599
 21
161.12924269376
 31
0.0
100
AcDbText
 73
     2
  0
TEXT
  5
224
102
{ACAD_REACTORS
330
9E
102
}
330
1F
100
AcDbEntity
  8
EPLAN_Graphic
 62
   240
100
AcDbText
 10
209.7016955585991
 20
156.8568555143702
 30
0.0
 40
0.9999999999997699
  1
3
  7
Tahoma
 72
     1
 11
210.077195558599
 21
157.35685551437
 31
0.0
100
AcDbText
 73
     2
  0
TEXT
  5
225
102
{ACAD_REACTORS
330
9E
102
}
330
1F
100
AcDbEntity
  8
EPLAN_Graphic
 62
   240
100
AcDbText
 10
209.7016955585991
 20
153.6348415737602
 30
0.0
 40
0.9999999999997699
  1
4
  7
Tahoma
 72
     1
 11
210.077195558599
 21
154.13484157376
 31
0.0
100
AcDbText
 73
     2
  0
TEXT
  5
226
102
{ACAD_REACTORS
330
9E
102
}
330
1F
100
AcDbEntity
  8
EPLAN_Graphic
 62
   240
100
AcDbText
 10
209.7016955585991
 20
149.8624543943702
 30
0.0
 40
0.9999999999997699
  1
5
  7
Tahoma
 72
     1
 11
210.077195558599
 21
150.36245439437
 31
0.0
100
AcDbText
 73
     2
  0
TEXT
  5
227
102
{ACAD_REACTORS
330
9E
102
}
330
1F
100
AcDbEntity
  8
EPLAN_Graphic
 62
   240
100
AcDbText
 10
209.7016955585991
 20
146.6404404537601
 30
0.0
 40
0.9999999999997699
  1
6
  7
Tahoma
 72
     1
 11
210.077195558599
 21
147.14044045376
 31
0.0
100
AcDbText
 73
     2
  0
TEXT
  5
228
102
{ACAD_REACTORS
330
9E
102
}
330
1F
100
AcDbEntity
  8
EPLAN_Graphic
 62
   240
100
AcDbText
 10
209.7016955585991
 20
142.8680532743711
 30
0.0
 40
0.9999999999997699
  1
7
  7
Tahoma
 72
     1
 11
210.077195558599
 21
143.368053274371
 31
0.0
100
AcDbText
 73
     2
  0
LINE
  5
229
102
{ACAD_REACTORS
330
9E
102
}
330
1F
100
AcDbEntity
  8
EPLAN_Graphic
370
     0
100
AcDbLine
 10
210.696976775998
 20
169.7460239856
 30
0.0
 11
210.696976775998
 21
134.7740183856
 31
0.0
  0
LWPOLYLINE
  5
22A
102
{ACAD_REACTORS
330
9E
102
}
330
1F
100
AcDbEntity
  8
EPLAN_Graphic
370
     0
100
AcDbPolyline
 90
        2
 70
     1
 43
0.0
 10
211.502389531997
 20
168.24268042798
 42
1.0
 10
211.097724708197
 20
168.24268042798
 42
1.0
  0
HATCH
  5
22B
330
1F
100
AcDbEntity
  8
EPLAN_Graphic
370
     0
100
AcDbHatch
 10
0.0
 20
0.0
 30
0.0
210
0.0
220
0.0
230
1.0
  2
SOLID
 70
     1
 71
     0
 91
        1
 92
        2
 72
     1
 73
     1
 93
        2
 10
211.502389531997
 20
168.24268042798
 42
1.0
 10
211.097724708197
 20
168.24268042798
 42
1.0
 97
        0
 75
     0
 76
     1
 98
        0
  0
CIRCLE
  5
22C
102
{ACAD_REACTORS
330
9E
102
}
330
1F
100
AcDbEntity
  8
EPLAN_Graphic
370
     0
100
AcDbCircle
 10
211.300057120097
 20
168.24268042798
 30
0.0
 40
0.2023324118844441
  0
LWPOLYLINE
  5
22D
102
{ACAD_REACTORS
330
9E
102
}
330
1F
100
AcDbEntity
  8
EPLAN_Graphic
370
     0
100
AcDbPolyline
 90
        2
 70
     1
 43
0.0
 10
211.502389531997
 20
164.74547986798
 42
1.0
 10
211.097724708197
 20
164.74547986798
 42
1.0
  0
HATCH
  5
22E
330
1F
100
AcDbEntity
  8
EPLAN_Graphic
370
     0
100
AcDbHatch
 10
0.0
 20
0.0
 30
0.0
210
0.0
220
0.0
230
1.0
  2
SOLID
 70
     1
 71
     0
 91
        1
 92
        2
 72
     1
 73
     1
 93
        2
 10
211.502389531997
 20
164.74547986798
 42
1.0
 10
211.097724708197
 20
164.74547986798
 42
1.0
 97
        0
 75
     0
 76
     1
 98
        0
  0
CIRCLE
  5
22F
102
{ACAD_REACTORS
330
9E
102
}
330
1F
100
AcDbEntity
  8
EPLAN_Graphic
370
     0
100
AcDbCircle
 10
211.300057120097
 20
164.74547986798
 30
0.0
 40
0.2023324118844441
  0
LWPOLYLINE
  5
230
102
{ACAD_REACTORS
330
9E
102
}
330
1F
100
AcDbEntity
  8
EPLAN_Graphic
370
     0
100
AcDbPolyline
 90
        2
 70
     1
 43
0.0
 10
211.502389531997
 20
161.24827930798
 42
1.0
 10
211.097724708197
 20
161.24827930798
 42
1.0
  0
HATCH
  5
231
330
1F
100
AcDbEntity
  8
EPLAN_Graphic
370
     0
100
AcDbHatch
 10
0.0
 20
0.0
 30
0.0
210
0.0
220
0.0
230
1.0
  2
SOLID
 70
     1
 71
     0
 91
        1
 92
        2
 72
     1
 73
     1
 93
        2
 10
211.502389531997
 20
161.24827930798
 42
1.0
 10
211.097724708197
 20
161.24827930798
 42
1.0
 97
        0
 75
     0
 76
     1
 98
        0
  0
CIRCLE
  5
232
102
{ACAD_REACTORS
330
9E
102
}
330
1F
100
AcDbEntity
  8
EPLAN_Graphic
370
     0
100
AcDbCircle
 10
211.300057120097
 20
161.24827930798
 30
0.0
 40
0.2023324118844441
  0
LWPOLYLINE
  5
233
102
{ACAD_REACTORS
330
9E
102
}
330
1F
100
AcDbEntity
  8
EPLAN_Graphic
370
     0
100
AcDbPolyline
 90
        2
 70
     1
 43
0.0
 10
211.502389531997
 20
157.751078747981
 42
1.0
 10
211.097724708197
 20
157.751078747981
 42
1.0
  0
HATCH
  5
234
330
1F
100
AcDbEntity
  8
EPLAN_Graphic
370
     0
100
AcDbHatch
 10
0.0
 20
0.0
 30
0.0
210
0.0
220
0.0
230
1.0
  2
SOLID
 70
     1
 71
     0
 91
        1
 92
        2
 72
     1
 73
     1
 93
        2
 10
211.502389531997
 20
157.751078747981
 42
1.0
 10
211.097724708197
 20
157.751078747981
 42
1.0
 97
        0
 75
     0
 76
     1
 98
        0
  0
CIRCLE
  5
235
102
{ACAD_REACTORS
330
9E
102
}
330
1F
100
AcDbEntity
  8
EPLAN_Graphic
370
     0
100
AcDbCircle
 10
211.300057120097
 20
157.751078747981
 30
0.0
 40
0.2023324118844441
  0
LWPOLYLINE
  5
236
102
{ACAD_REACTORS
330
9E
102
}
330
1F
100
AcDbEntity
  8
EPLAN_Graphic
370
     0
100
AcDbPolyline
 90
        2
 70
     1
 43
0.0
 10
211.502389531997
 20
154.25387818798
 42
1.0
 10
211.097724708197
 20
154.25387818798
 42
1.0
  0
HATCH
  5
237
330
1F
100
AcDbEntity
  8
EPLAN_Graphic
370
     0
100
AcDbHatch
 10
0.0
 20
0.0
 30
0.0
210
0.0
220
0.0
230
1.0
  2
SOLID
 70
     1
 71
     0
 91
        1
 92
        2
 72
     1
 73
     1
 93
        2
 10
211.502389531997
 20
154.25387818798
 42
1.0
 10
211.097724708197
 20
154.25387818798
 42
1.0
 97
        0
 75
     0
 76
     1
 98
        0
  0
CIRCLE
  5
238
102
{ACAD_REACTORS
330
9E
102
}
330
1F
100
AcDbEntity
  8
EPLAN_Graphic
370
     0
100
AcDbCircle
 10
211.300057120097
 20
154.25387818798
 30
0.0
 40
0.2023324118844441
  0
LWPOLYLINE
  5
239
102
{ACAD_REACTORS
330
9E
102
}
330
1F
100
AcDbEntity
  8
EPLAN_Graphic
370
     0
100
AcDbPolyline
 90
        2
 70
     1
 43
0.0
 10
211.502389531997
 20
150.75667762798
 42
1.0
 10
211.097724708197
 20
150.75667762798
 42
1.0
  0
HATCH
  5
23A
330
1F
100
AcDbEntity
  8
EPLAN_Graphic
370
     0
100
AcDbHatch
 10
0.0
 20
0.0
 30
0.0
210
0.0
220
0.0
230
1.0
  2
SOLID
 70
     1
 71
     0
 91
        1
 92
        2
 72
     1
 73
     1
 93
        2
 10
211.502389531997
 20
150.75667762798
 42
1.0
 10
211.097724708197
 20
150.75667762798
 42
1.0
 97
        0
 75
     0
 76
     1
 98
        0
  0
CIRCLE
  5
23B
102
{ACAD_REACTORS
330
9E
102
}
330
1F
100
AcDbEntity
  8
EPLAN_Graphic
370
     0
100
AcDbCircle
 10
211.300057120097
 20
150.75667762798
 30
0.0
 40
0.2023324118844441
  0
LWPOLYLINE
  5
23C
102
{ACAD_REACTORS
330
9E
102
}
330
1F
100
AcDbEntity
  8
EPLAN_Graphic
370
     0
100
AcDbPolyline
 90
        2
 70
     1
 43
0.0
 10
211.502389531997
 20
147.25947706798
 42
1.0
 10
211.097724708197
 20
147.25947706798
 42
1.0
  0
HATCH
  5
23D
330
1F
100
AcDbEntity
  8
EPLAN_Graphic
370
     0
100
AcDbHatch
 10
0.0
 20
0.0
 30
0.0
210
0.0
220
0.0
230
1.0
  2
SOLID
 70
     1
 71
     0
 91
        1
 92
        2
 72
     1
 73
     1
 93
        2
 10
211.502389531997
 20
147.25947706798
 42
1.0
 10
211.097724708197
 20
147.25947706798
 42
1.0
 97
        0
 75
     0
 76
     1
 98
        0
  0
CIRCLE
  5
23E
102
{ACAD_REACTORS
330
9E
102
}
330
1F
100
AcDbEntity
  8
EPLAN_Graphic
370
     0
100
AcDbCircle
 10
211.300057120097
 20
147.25947706798
 30
0.0
 40
0.2023324118844441
  0
LWPOLYLINE
  5
23F
102
{ACAD_REACTORS
330
9E
102
}
330
1F
100
AcDbEntity
  8
EPLAN_Graphic
370
     0
100
AcDbPolyline
 90
        2
 70
     1
 43
0.0
 10
211.502389531997
 20
143.76227650798
 42
1.0
 10
211.097724708197
 20
143.76227650798
 42
1.0
  0
HATCH
  5
240
330
1F
100
AcDbEntity
  8
EPLAN_Graphic
370
     0
100
AcDbHatch
 10
0.0
 20
0.0
 30
0.0
210
0.0
220
0.0
230
1.0
  2
SOLID
 70
     1
 71
     0
 91
        1
 92
        2
 72
     1
 73
     1
 93
        2
 10
211.502389531997
 20
143.76227650798
 42
1.0
 10
211.097724708197
 20
143.76227650798
 42
1.0
 97
        0
 75
     0
 76
     1
 98
        0
  0
CIRCLE
  5
241
102
{ACAD_REACTORS
330
9E
102
}
330
1F
100
AcDbEntity
  8
EPLAN_Graphic
370
     0
100
AcDbCircle
 10
211.300057120097
 20
143.76227650798
 30
0.0
 40
0.2023324118844441
  0
LINE
  5
242
102
{ACAD_REACTORS
330
9E
102
}
330
1F
100
AcDbEntity
  8
EPLAN_Graphic
370
     0
100
AcDbLine
 10
209.447976575997
 20
134.7740183856
 30
0.0
 11
211.945976976
 21
134.7740183856
 31
0.0
  0
TEXT
  5
243
102
{ACAD_REACTORS
330
9E
102
}
330
1F
100
AcDbEntity
  8
EPLAN_Graphic
 62
   240
100
AcDbText
 10
210.5331650489969
 20
135.7878502878606
 30
0.0
 40
0.7999999999998175
  1
DC12/24V
 50
90.00000000000018
  7
Tahoma
 72
     1
 11
210.133165048997
 21
138.23145028786
 31
0.0
100
AcDbText
 73
     2
  0
TEXT
  5
244
102
{ACAD_REACTORS
330
9E
102
}
330
1F
100
AcDbEntity
  8
EPLAN_Graphic
 62
   240
100
AcDbText
 10
211.8031758853979
 20
137.0882502878603
 30
0.0
 40
0.7999999999998175
  1
COM
 50
90.00000000000018
  7
Tahoma
 72
     1
 11
211.403175885398
 21
138.23145028786
 31
0.0
100
AcDbText
 73
     2
  0
LWPOLYLINE
  5
245
102
{ACAD_REACTORS
330
9E
102
}
330
1F
100
AcDbEntity
  8
EPLAN_Graphic
370
     0
100
AcDbPolyline
 90
        7
 70
     1
 43
0.0
 10
183.4169774273
 20
208.05505494633
 10
186.016098533699
 20
208.05505494633
 10
186.016098533699
 20
208.05505494633
 10
186.016098533699
 20
209.67968553366
 10
186.016098533699
 20
209.67968553366
 10
183.4169774273
 20
209.67968553366
 10
183.4169774273
 20
209.67968553366
  0
LWPOLYLINE
  5
246
102
{ACAD_REACTORS
330
9E
102
}
330
1F
100
AcDbEntity
  8
EPLAN_Graphic
370
     0
100
AcDbPolyline
 90
        7
 70
     1
 43
0.0
 10
183.266977427298
 20
207.90505494633
 10
186.1660985337
 20
207.90505494633
 10
186.1660985337
 20
207.90505494633
 10
186.1660985337
 20
209.82968553366
 10
186.1660985337
 20
209.82968553366
 10
183.266977427298
 20
209.82968553366
 10
183.266977427298
 20
209.82968553366
  0
LWPOLYLINE
  5
247
102
{ACAD_REACTORS
330
9E
102
}
330
1F
100
AcDbEntity
  8
EPLAN_Graphic
370
     0
100
AcDbPolyline
 90
        4
 70
     1
 43
0.0
 10
183.266977427298
 20
207.90505494633
 10
186.1660985337
 20
207.90505494633
 10
186.1660985337
 20
209.82968553366
 10
183.266977427298
 20
209.82968553366
  0
LWPOLYLINE
  5
248
102
{ACAD_REACTORS
330
9E
102
}
330
1F
100
AcDbEntity
  8
EPLAN_Graphic
370
     0
100
AcDbPolyline
 90
        4
 70
     1
 43
0.0
 10
183.4169774273
 20
208.05505494633
 10
186.016098533699
 20
208.05505494633
 10
186.016098533699
 20
209.67968553366
 10
183.4169774273
 20
209.67968553366
  0
TEXT
  5
249
102
{ACAD_REACTORS
330
9E
102
}
330
1F
100
AcDbEntity
  8
EPLAN_Graphic
 62
   240
100
AcDbText
 10
183.737597307998
 20
208.34486661908
 30
0.0
 40
0.9999999999997699
  1
0~7
  7
Tahoma
100
AcDbText
  0
TEXT
  5
24A
102
{ACAD_REACTORS
330
9E
102
}
330
1F
100
AcDbEntity
  8
EPLAN_Graphic
 62
   240
100
AcDbText
 10
184.392597075799
 20
211.12748984234
 30
0.0
 40
0.9999999999997699
  1
0
  7
Tahoma
100
AcDbText
  0
LWPOLYLINE
  5
24B
102
{ACAD_REACTORS
330
9E
102
}
330
1F
100
AcDbEntity
  8
EPLAN_Graphic
370
     0
100
AcDbPolyline
 90
        4
 70
     1
 43
0.0
 10
183.6847606392
 20
210.626210696531
 10
185.753737509298
 20
210.626210696531
 10
185.753737509298
 20
212.47247854052
 10
183.6847606392
 20
212.47247854052
  0
LWPOLYLINE
  5
24C
102
{ACAD_REACTORS
330
9E
102
}
330
1F
100
AcDbEntity
  8
EPLAN_Graphic
370
     0
100
AcDbPolyline
 90
        7
 70
     1
 43
0.0
 10
185.4354456691
 20
210.52415458487
 10
184.055045669098
 20
210.52415458487
 10
184.055045669098
 20
210.52415458487
 10
184.055045669098
 20
212.66615458487
 10
184.055045669098
 20
212.66615458487
 10
185.4354456691
 20
212.66615458487
 10
185.4354456691
 20
212.66615458487
  0
LINE
  5
24D
102
{ACAD_REACTORS
330
9E
102
}
330
1F
100
AcDbEntity
  8
EPLAN_Graphic
370
     0
100
AcDbLine
 10
183.688756659598
 20
210.626210696531
 30
0.0
 11
185.753737509298
 21
210.626210696531
 31
0.0
  0
LINE
  5
24E
102
{ACAD_REACTORS
330
9E
102
}
330
1F
100
AcDbEntity
  8
EPLAN_Graphic
370
     0
100
AcDbLine
 10
185.753737509298
 20
210.626210696531
 30
0.0
 11
185.753737509298
 21
212.24810523362
 31
0.0
  0
LWPOLYLINE
  5
24F
102
{ACAD_REACTORS
330
9E
102
}
330
1F
100
AcDbEntity
  8
EPLAN_Graphic
370
     0
100
AcDbPolyline
 90
        4
 70
     1
 43
0.0
 10
185.753737509298
 20
210.626210696531
 10
183.6847606392
 20
210.626210696531
 10
183.6847606392
 20
212.47247854052
 10
185.753737509298
 20
212.47247854052
  0
LWPOLYLINE
  5
250
102
{ACAD_REACTORS
330
9E
102
}
330
1F
100
AcDbEntity
  8
EPLAN_Graphic
370
     0
100
AcDbPolyline
 90
        7
 70
     1
 43
0.0
 10
209.971901466299
 20
208.05505494633
 10
212.5710225728
 20
208.05505494633
 10
212.5710225728
 20
208.05505494633
 10
212.5710225728
 20
209.67968553366
 10
212.5710225728
 20
209.67968553366
 10
209.971901466299
 20
209.67968553366
 10
209.971901466299
 20
209.67968553366
  0
LWPOLYLINE
  5
251
102
{ACAD_REACTORS
330
9E
102
}
330
1F
100
AcDbEntity
  8
EPLAN_Graphic
370
     0
100
AcDbPolyline
 90
        7
 70
     1
 43
0.0
 10
209.821901466297
 20
207.90505494633
 10
212.721022572798
 20
207.90505494633
 10
212.721022572798
 20
207.90505494633
 10
212.721022572798
 20
209.82968553366
 10
212.721022572798
 20
209.82968553366
 10
209.821901466297
 20
209.82968553366
 10
209.821901466297
 20
209.82968553366
  0
LWPOLYLINE
  5
252
102
{ACAD_REACTORS
330
9E
102
}
330
1F
100
AcDbEntity
  8
EPLAN_Graphic
370
     0
100
AcDbPolyline
 90
        4
 70
     1
 43
0.0
 10
209.821901466297
 20
207.90505494633
 10
212.721022572798
 20
207.90505494633
 10
212.721022572798
 20
209.82968553366
 10
209.821901466297
 20
209.82968553366
  0
LWPOLYLINE
  5
253
102
{ACAD_REACTORS
330
9E
102
}
330
1F
100
AcDbEntity
  8
EPLAN_Graphic
370
     0
100
AcDbPolyline
 90
        4
 70
     1
 43
0.0
 10
209.971901466299
 20
208.05505494633
 10
212.5710225728
 20
208.05505494633
 10
212.5710225728
 20
209.67968553366
 10
209.971901466299
 20
209.67968553366
  0
TEXT
  5
254
102
{ACAD_REACTORS
330
9E
102
}
330
1F
100
AcDbEntity
  8
EPLAN_Graphic
 62
   240
100
AcDbText
 10
210.292521347099
 20
208.34486661908
 30
0.0
 40
0.9999999999997699
  1
0~7
  7
Tahoma
100
AcDbText
  0
TEXT
  5
255
102
{ACAD_REACTORS
330
9E
102
}
330
1F
100
AcDbEntity
  8
EPLAN_Graphic
 62
   240
100
AcDbText
 10
210.947521114798
 20
211.12748984234
 30
0.0
 40
0.9999999999997699
  1
2
  7
Tahoma
100
AcDbText
  0
LWPOLYLINE
  5
256
102
{ACAD_REACTORS
330
9E
102
}
330
1F
100
AcDbEntity
  8
EPLAN_Graphic
370
     0
100
AcDbPolyline
 90
        4
 70
     1
 43
0.0
 10
210.239684678199
 20
210.626210696531
 10
212.308661548297
 20
210.626210696541
 10
212.308661548297
 20
212.47247854053
 10
210.239684678199
 20
212.47247854053
  0
LWPOLYLINE
  5
257
102
{ACAD_REACTORS
330
9E
102
}
330
1F
100
AcDbEntity
  8
EPLAN_Graphic
370
     0
100
AcDbPolyline
 90
        7
 70
     1
 43
0.0
 10
211.990369708099
 20
210.52415458487
 10
210.609969708097
 20
210.52415458487
 10
210.609969708097
 20
210.52415458487
 10
210.609969708097
 20
212.66615458487
 10
210.609969708097
 20
212.66615458487
 10
211.990369708099
 20
212.66615458487
 10
211.990369708099
 20
212.66615458487
  0
LINE
  5
258
102
{ACAD_REACTORS
330
9E
102
}
330
1F
100
AcDbEntity
  8
EPLAN_Graphic
370
     0
100
AcDbLine
 10
210.243680698597
 20
210.626210696531
 30
0.0
 11
212.308661548297
 21
210.626210696531
 31
0.0
  0
LINE
  5
259
102
{ACAD_REACTORS
330
9E
102
}
330
1F
100
AcDbEntity
  8
EPLAN_Graphic
370
     0
100
AcDbLine
 10
212.308661548297
 20
210.626210696531
 30
0.0
 11
212.308661548297
 21
212.24810523362
 31
0.0
  0
LWPOLYLINE
  5
25A
102
{ACAD_REACTORS
330
9E
102
}
330
1F
100
AcDbEntity
  8
EPLAN_Graphic
370
     0
100
AcDbPolyline
 90
        4
 70
     1
 43
0.0
 10
212.308661548297
 20
210.626210696531
 10
210.239684678199
 20
210.626210696531
 10
210.239684678199
 20
212.47247854053
 10
212.308661548297
 20
212.47247854053
  0
LINE
  5
25B
102
{ACAD_REACTORS
330
9E
102
}
330
1F
100
AcDbEntity
  8
EPLAN_Graphic
 48
4.0
370
     0
100
AcDbLine
 10
186.993999999999
 20
216.0
 30
0.0
 11
208.993999999999
 21
216.0
 31
0.0
  0
INSERT
  5
261
102
{ACAD_REACTORS
330
9E
102
}
330
1F
100
AcDbEntity
  8
0
100
AcDbBlockReference
 66
     1
  2
EPLSYM_LibrarySPECIAL_Symbol12_Variant0_Placement8
 10
183.0
 20
216.0
 30
0.0
  0
ATTRIB
  5
262
330
261
100
AcDbEntity
  8
EPLAN_Property
100
AcDbText
 10
198.0
 20
217.4617003932039
 30
0.0
 40
1.6254
  1

  7
Tahoma
 72
     1
 11
198.0
 21
217.0
 31
0.0
100
AcDbAttribute
  2
Legend_Item
 70
     0
 74
     1
280
     0
  0
SEQEND
  5
263
330
261
100
AcDbEntity
  8
0
  0
ENDSEC
  0
SECTION
  2
OBJECTS
  0
DICTIONARY
  5
C
330
0
100
AcDbDictionary
281
     1
  3
ACAD_DETAILVIEWSTYLE
350
26B
  3
ACAD_GROUP
350
D
  3
ACAD_IMAGE_VARS
350
6E
  3
ACAD_LAYOUT
350
1A
  3
ACAD_MATERIAL
350
43
  3
ACAD_MLEADERSTYLE
350
6B
  3
ACAD_MLINESTYLE
350
17
  3
ACAD_PLOTSETTINGS
350
19
  3
ACAD_PLOTSTYLENAME
350
E
  3
ACAD_SCALELIST
350
47
  3
ACAD_SECTIONVIEWSTYLE
350
26C
  3
ACAD_TABLESTYLE
350
69
  3
ACAD_VISUALSTYLE
350
2A
  3
ACDB_RECOMPOSE_DATA
350
268
  3
AcDbVariableDictionary
350
264
  0
SUN
  5
6D
330
29
100
AcDbSun
 90
        1
290
     0
 63
     7
421
 16777215
 40
1.0
291
     1
 91
  2455826
 92
 54000000
292
     0
 70
     2
 71
   256
280
     1
  0
DICTIONARY
  5
26B
102
{ACAD_REACTORS
330
C
102
}
330
C
100
AcDbDictionary
281
     1
  0
DICTIONARY
  5
D
102
{ACAD_REACTORS
330
C
102
}
330
C
100
AcDbDictionary
281
     1
  3
EPLGROUP
350
9E
  0
RASTERVARIABLES
  5
6E
102
{ACAD_REACTORS
330
C
102
}
330
C
100
AcDbRasterVariables
 90
        0
 70
     0
 71
     1
 72
     1
  0
DICTIONARY
  5
1A
102
{ACAD_REACTORS
330
C
102
}
330
C
100
AcDbDictionary
281
     1
  3
Layout1
350
1E
  3
Layout2
350
26
  3
Model
350
22
  0
DICTIONARY
  5
43
102
{ACAD_REACTORS
330
C
102
}
330
C
100
AcDbDictionary
281
     1
  3
ByBlock
350
45
  3
ByLayer
350
44
  3
Global
350
46
  0
DICTIONARY
  5
6B
102
{ACAD_REACTORS
330
C
102
}
330
C
100
AcDbDictionary
281
     1
  3
Standard
350
6C
  0
DICTIONARY
  5
17
102
{ACAD_REACTORS
330
C
102
}
330
C
100
AcDbDictionary
281
     1
  3
Standard
350
18
  0
DICTIONARY
  5
19
102
{ACAD_REACTORS
330
C
102
}
330
C
100
AcDbDictionary
281
     1
  0
ACDBDICTIONARYWDFLT
  5
E
102
{ACAD_REACTORS
330
C
102
}
330
C
100
AcDbDictionary
281
     1
  3
Normal
350
F
100
AcDbDictionaryWithDefault
340
F
  0
DICTIONARY
  5
47
102
{ACAD_REACTORS
330
C
102
}
330
C
100
AcDbDictionary
281
     1
  3
A0
350
48
  3
A1
350
49
  3
A2
350
4A
  3
A3
350
4B
  3
A4
350
4C
  3
A5
350
4D
  3
A6
350
4E
  3
A7
350
4F
  3
A8
350
50
  3
A9
350
51
  3
B0
350
52
  3
B1
350
53
  3
B2
350
54
  3
B3
350
55
  3
B4
350
56
  3
B5
350
57
  3
B6
350
58
  3
B7
350
59
  3
B8
350
5A
  3
B9
350
5B
  3
C0
350
5C
  3
C1
350
5D
  3
C2
350
5E
  3
C3
350
5F
  3
C4
350
60
  3
C5
350
61
  3
C6
350
62
  3
C7
350
63
  3
C8
350
64
  3
C9
350
65
  3
D0
350
66
  3
D1
350
67
  3
D2
350
68
  0
DICTIONARY
  5
26C
102
{ACAD_REACTORS
330
C
102
}
330
C
100
AcDbDictionary
281
     1
  0
DICTIONARY
  5
69
102
{ACAD_REACTORS
330
C
102
}
330
C
100
AcDbDictionary
281
     1
  3
Standard
350
6A
  0
DICTIONARY
  5
2A
102
{ACAD_REACTORS
330
C
102
}
330
C
100
AcDbDictionary
281
     1
  3
2dWireframe
350
2F
  3
Basic
350
32
  3
Brighten
350
36
  3
ColorChange
350
3A
  3
Conceptual
350
34
  3
Dim
350
35
  3
EdgeColorOff
350
3D
  3
Facepattern
350
39
  3
Flat
350
2B
  3
FlatWithEdges
350
2C
  3
Gouraud
350
2D
  3
GouraudWithEdges
350
2E
  3
Hidden
350
31
  3
JitterOff
350
3B
  3
Linepattern
350
38
  3
OverhangOff
350
3C
  3
Realistic
350
33
  3
Shaded
350
42
  3
Shaded with edges
350
41
  3
Shades of Gray
350
3E
  3
Sketchy
350
3F
  3
Thicken
350
37
  3
Wireframe
350
30
  3
X-Ray
350
40
  0
XRECORD
  5
268
102
{ACAD_REACTORS
330
C
102
}
330
C
100
AcDbXrecord
280
     1
 90
        1
330
6A
  0
DICTIONARY
  5
264
102
{ACAD_REACTORS
330
C
102
}
330
C
100
AcDbDictionary
281
     1
  3
CANNOSCALE
350
265
  3
CENTEREXE
350
26D
  3
CENTERLTYPEFILE
350
26E
  3
CMLEADERSTYLE
350
26A
  3
CTABLESTYLE
350
269
  0
GROUP
  5
9E
102
{ACAD_REACTORS
330
D
102
}
330
D
100
AcDbGroup
300

 70
     0
 71
     1
340
9F
340
A0
340
A1
340
A2
340
A3
340
A4
340
A5
340
A6
340
A7
340
A8
340
A9
340
AA
340
AB
340
AC
340
AD
340
AE
340
AF
340
B0
340
B1
340
B2
340
B3
340
B4
340
B5
340
B6
340
B7
340
B8
340
B9
340
BA
340
BB
340
BC
340
BD
340
BE
340
BF
340
C0
340
C1
340
C2
340
C3
340
C4
340
C5
340
C6
340
C7
340
C8
340
C9
340
CA
340
CB
340
CC
340
CD
340
CE
340
CF
340
D0
340
D1
340
D2
340
D3
340
D4
340
D5
340
D6
340
D7
340
D8
340
D9
340
DA
340
DB
340
DC
340
DD
340
DE
340
DF
340
E0
340
E1
340
E2
340
E3
340
E4
340
E5
340
E6
340
E7
340
E8
340
E9
340
EA
340
EB
340
EC
340
ED
340
EE
340
EF
340
F0
340
F1
340
F2
340
F3
340
F4
340
F5
340
F6
340
F7
340
F8
340
F9
340
FA
340
FB
340
FC
340
FD
340
FE
340
FF
340
100
340
101
340
102
340
103
340
104
340
105
340
106
340
107
340
108
340
109
340
10A
340
10B
340
10C
340
10D
340
10E
340
10F
340
110
340
111
340
112
340
113
340
114
340
115
340
116
340
117
340
118
340
119
340
11B
340
11C
340
11D
340
11E
340
11F
340
120
340
121
340
122
340
123
340
124
340
125
340
126
340
127
340
128
340
129
340
12A
340
12B
340
12C
340
12D
340
12E
340
12F
340
130
340
131
340
132
340
133
340
134
340
135
340
136
340
137
340
138
340
139
340
13A
340
13B
340
13C
340
13D
340
13E
340
13F
340
140
340
141
340
142
340
143
340
144
340
145
340
146
340
147
340
148
340
149
340
14A
340
14B
340
14C
340
14D
340
14E
340
14F
340
150
340
151
340
152
340
153
340
154
340
155
340
156
340
157
340
158
340
159
340
15A
340
15B
340
15C
340
15D
340
15E
340
15F
340
160
340
161
340
162
340
163
340
164
340
165
340
166
340
167
340
168
340
169
340
16A
340
16B
340
16C
340
16D
340
16E
340
16F
340
170
340
171
340
172
340
173
340
174
340
175
340
176
340
177
340
178
340
179
340
17A
340
17C
340
17D
340
17E
340
17F
340
180
340
181
340
182
340
183
340
184
340
185
340
186
340
187
340
188
340
189
340
18A
340
18B
340
18C
340
18D
340
18E
340
18F
340
190
340
191
340
192
340
193
340
194
340
195
340
196
340
197
340
198
340
199
340
19A
340
19B
340
19C
340
19D
340
19E
340
19F
340
1A0
340
1A1
340
1A2
340
1A3
340
1A4
340
1A5
340
1A6
340
1A7
340
1A8
340
1A9
340
1AA
340
1AB
340
1AC
340
1AD
340
1AE
340
1AF
340
1B0
340
1B1
340
1B2
340
1B3
340
1B4
340
1B5
340
1B6
340
1B7
340
1B8
340
1B9
340
1BA
340
1BB
340
1BC
340
1BD
340
1BE
340
1BF
340
1C0
340
1C1
340
1C2
340
1C3
340
1C4
340
1C5
340
1C6
340
1C7
340
1C8
340
1C9
340
1CA
340
1CB
340
1CC
340
1CD
340
1CE
340
1CF
340
1D0
340
1D1
340
1D2
340
1D3
340
1D4
340
1D6
340
1D7
340
1D9
340
1DA
340
1DC
340
1DD
340
1DF
340
1E0
340
1E2
340
1E3
340
1E5
340
1E6
340
1E8
340
1E9
340
1EB
340
1EC
340
1ED
340
1EE
340
1EF
340
1F0
340
1F1
340
1F2
340
1F3
340
1F4
340
1F5
340
1F6
340
1F7
340
1F8
340
1F9
340
1FA
340
1FB
340
1FC
340
1FD
340
1FE
340
1FF
340
200
340
201
340
202
340
203
340
204
340
205
340
206
340
207
340
208
340
20A
340
20B
340
20C
340
20D
340
20E
340
20F
340
210
340
211
340
212
340
213
340
214
340
215
340
216
340
217
340
218
340
219
340
21A
340
21B
340
21C
340
21D
340
21E
340
21F
340
220
340
221
340
222
340
223
340
224
340
225
340
226
340
227
340
228
340
229
340
22A
340
22C
340
22D
340
22F
340
230
340
232
340
233
340
235
340
236
340
238
340
239
340
23B
340
23C
340
23E
340
23F
340
241
340
242
340
243
340
244
340
245
340
246
340
247
340
248
340
249
340
24A
340
24B
340
24C
340
24D
340
24E
340
24F
340
250
340
251
340
252
340
253
340
254
340
255
340
256
340
257
340
258
340
259
340
25A
340
25B
340
260
340
261
  0
LAYOUT
  5
1E
102
{ACAD_REACTORS
330
1A
102
}
330
1A
100
AcDbPlotSettings
  1

  2
none_device
  4

  6

 40
0.0
 41
0.0
 42
0.0
 43
0.0
 44
0.0
 45
0.0
 46
0.0
 47
0.0
 48
0.0
 49
0.0
140
0.0
141
0.0
142
1.0
143
1.0
 70
   688
 72
     1
 73
     0
 74
     5
  7

 75
    16
 76
     0
 77
     2
 78
   300
147
1.0
148
0.0
149
0.0
100
AcDbLayout
  1
Layout1
 70
     1
 71
     1
 10
181.0
 20
126.0
 11
213.0
 21
217.0000000001
 12
0.0
 22
0.0
 32
0.0
 14
181.0
 24
126.0
 34
0.0
 15
213.0
 25
217.0000000001
 35
0.0
146
0.0
 13
0.0
 23
0.0
 33
0.0
 16
1.0
 26
0.0
 36
0.0
 17
0.0
 27
1.0
 37
0.0
 76
     0
330
1B
  0
LAYOUT
  5
26
102
{ACAD_REACTORS
330
1A
102
}
330
1A
100
AcDbPlotSettings
  1

  2
none_device
  4

  6

 40
0.0
 41
0.0
 42
0.0
 43
0.0
 44
0.0
 45
0.0
 46
0.0
 47
0.0
 48
0.0
 49
0.0
140
0.0
141
0.0
142
1.0
143
1.0
 70
   688
 72
     1
 73
     0
 74
     5
  7

 75
    16
 76
     0
 77
     2
 78
   300
147
1.0
148
0.0
149
0.0
100
AcDbLayout
  1
Layout2
 70
     1
 71
     2
 10
0.0
 20
0.0
 11
0.0
 21
0.0
 12
0.0
 22
0.0
 32
0.0
 14
0.0
 24
0.0
 34
0.0
 15
0.0
 25
0.0
 35
0.0
146
0.0
 13
0.0
 23
0.0
 33
0.0
 16
1.0
 26
0.0
 36
0.0
 17
0.0
 27
1.0
 37
0.0
 76
     0
330
23
  0
LAYOUT
  5
22
102
{ACAD_REACTORS
330
1A
102
}
330
1A
100
AcDbPlotSettings
  1

  2
none_device
  4
Letter_(8.50_x_11.00_Inches)
  6

 40
6.35
 41
6.35
 42
6.35000508
 43
6.35000508
 44
215.9
 45
279.4
 46
0.0
 47
0.0
 48
0.0
 49
0.0
140
0.0
141
0.0
142
1.0
143
1.0
 70
  1712
 72
     1
 73
     0
 74
     0
  7

 75
     0
 76
     0
 77
     2
 78
   300
147
1.0
148
0.0
149
0.0
100
AcDbLayout
  1
Model
 70
     1
 71
     0
 10
181.0
 20
126.0
 11
213.0
 21
217.0000000001
 12
0.0
 22
0.0
 32
0.0
 14
181.0
 24
126.0
 34
0.0
 15
213.0
 25
217.0000000001
 35
0.0
146
0.0
 13
0.0
 23
0.0
 33
0.0
 16
1.0
 26
0.0
 36
0.0
 17
0.0
 27
1.0
 37
0.0
 76
     0
330
1F
331
29
  0
MATERIAL
  5
45
102
{ACAD_REACTORS
330
43
102
}
330
43
100
AcDbMaterial
  1
ByBlock
 72
     1
 94
      127
  0
MATERIAL
  5
44
102
{ACAD_REACTORS
330
43
102
}
330
43
100
AcDbMaterial
  1
ByLayer
 72
     1
 94
      127
  0
MATERIAL
  5
46
102
{ACAD_REACTORS
330
43
102
}
330
43
100
AcDbMaterial
  1
Global
 72
     1
 94
      127
  0
MLEADERSTYLE
  5
6C
102
{ACAD_REACTORS
330
6B
102
}
330
6B
100
AcDbMLeaderStyle
179
     2
170
     2
171
     1
172
     0
 90
        2
 40
0.0
 41
0.0
173
     1
 91
-1056964608
340
14
 92
       -2
290
     1
 42
2.0
291
     1
 43
8.0
  3
Standard
341
0
 44
4.0
300

342
11
174
     1
178
     6
175
     1
176
     0
 93
-1056964608
 45
4.0
292
     0
297
     0
 46
4.0
343
0
 94
-1056964608
 47
1.0
 49
1.0
140
1.0
293
     1
141
0.0
294
     1
177
     0
142
1.0
295
     0
296
     0
143
3.75
271
     0
272
     9
273
     9
298
     0
  0
MLINESTYLE
  5
18
102
{ACAD_REACTORS
330
17
102
}
330
17
100
AcDbMlineStyle
  2
Standard
 70
     0
  3

 62
   256
 51
90.0
 52
90.0
 71
     2
 49
0.5
 62
   256
  6
BYLAYER
 49
-0.5
 62
   256
  6
BYLAYER
  0
ACDBPLACEHOLDER
  5
F
102
{ACAD_REACTORS
330
E
102
}
330
E
  0
SCALE
  5
48
102
{ACAD_REACTORS
330
47
102
}
330
47
100
AcDbScale
 70
     0
300
1:1
140
1.0
141
1.0
290
     1
  0
SCALE
  5
49
102
{ACAD_REACTORS
330
47
102
}
330
47
100
AcDbScale
 70
     0
300
1:2
140
1.0
141
2.0
290
     0
  0
SCALE
  5
4A
102
{ACAD_REACTORS
330
47
102
}
330
47
100
AcDbScale
 70
     0
300
1:4
140
1.0
141
4.0
290
     0
  0
SCALE
  5
4B
102
{ACAD_REACTORS
330
47
102
}
330
47
100
AcDbScale
 70
     0
300
1:5
140
1.0
141
5.0
290
     0
  0
SCALE
  5
4C
102
{ACAD_REACTORS
330
47
102
}
330
47
100
AcDbScale
 70
     0
300
1:8
140
1.0
141
8.0
290
     0
  0
SCALE
  5
4D
102
{ACAD_REACTORS
330
47
102
}
330
47
100
AcDbScale
 70
     0
300
1:10
140
1.0
141
10.0
290
     0
  0
SCALE
  5
4E
102
{ACAD_REACTORS
330
47
102
}
330
47
100
AcDbScale
 70
     0
300
1:16
140
1.0
141
16.0
290
     0
  0
SCALE
  5
4F
102
{ACAD_REACTORS
330
47
102
}
330
47
100
AcDbScale
 70
     0
300
1:20
140
1.0
141
20.0
290
     0
  0
SCALE
  5
50
102
{ACAD_REACTORS
330
47
102
}
330
47
100
AcDbScale
 70
     0
300
1:30
140
1.0
141
30.0
290
     0
  0
SCALE
  5
51
102
{ACAD_REACTORS
330
47
102
}
330
47
100
AcDbScale
 70
     0
300
1:40
140
1.0
141
40.0
290
     0
  0
SCALE
  5
52
102
{ACAD_REACTORS
330
47
102
}
330
47
100
AcDbScale
 70
     0
300
1:50
140
1.0
141
50.0
290
     0
  0
SCALE
  5
53
102
{ACAD_REACTORS
330
47
102
}
330
47
100
AcDbScale
 70
     0
300
1:100
140
1.0
141
100.0
290
     0
  0
SCALE
  5
54
102
{ACAD_REACTORS
330
47
102
}
330
47
100
AcDbScale
 70
     0
300
2:1
140
2.0
141
1.0
290
     0
  0
SCALE
  5
55
102
{ACAD_REACTORS
330
47
102
}
330
47
100
AcDbScale
 70
     0
300
4:1
140
4.0
141
1.0
290
     0
  0
SCALE
  5
56
102
{ACAD_REACTORS
330
47
102
}
330
47
100
AcDbScale
 70
     0
300
8:1
140
8.0
141
1.0
290
     0
  0
SCALE
  5
57
102
{ACAD_REACTORS
330
47
102
}
330
47
100
AcDbScale
 70
     0
300
10:1
140
10.0
141
1.0
290
     0
  0
SCALE
  5
58
102
{ACAD_REACTORS
330
47
102
}
330
47
100
AcDbScale
 70
     0
300
100:1
140
100.0
141
1.0
290
     0
  0
SCALE
  5
59
102
{ACAD_REACTORS
330
47
102
}
330
47
100
AcDbScale
 70
     0
300
1/128" = 1'-0"
140
0.0078125
141
12.0
290
     0
  0
SCALE
  5
5A
102
{ACAD_REACTORS
330
47
102
}
330
47
100
AcDbScale
 70
     0
300
1/64" = 1'-0"
140
0.015625
141
12.0
290
     0
  0
SCALE
  5
5B
102
{ACAD_REACTORS
330
47
102
}
330
47
100
AcDbScale
 70
     0
300
1/32" = 1'-0"
140
0.03125
141
12.0
290
     0
  0
SCALE
  5
5C
102
{ACAD_REACTORS
330
47
102
}
330
47
100
AcDbScale
 70
     0
300
1/16" = 1'-0"
140
0.0625
141
12.0
290
     0
  0
SCALE
  5
5D
102
{ACAD_REACTORS
330
47
102
}
330
47
100
AcDbScale
 70
     0
300
3/32" = 1'-0"
140
0.09375
141
12.0
290
     0
  0
SCALE
  5
5E
102
{ACAD_REACTORS
330
47
102
}
330
47
100
AcDbScale
 70
     0
300
1/8" = 1'-0"
140
0.125
141
12.0
290
     0
  0
SCALE
  5
5F
102
{ACAD_REACTORS
330
47
102
}
330
47
100
AcDbScale
 70
     0
300
3/16" = 1'-0"
140
0.1875
141
12.0
290
     0
  0
SCALE
  5
60
102
{ACAD_REACTORS
330
47
102
}
330
47
100
AcDbScale
 70
     0
300
1/4" = 1'-0"
140
0.25
141
12.0
290
     0
  0
SCALE
  5
61
102
{ACAD_REACTORS
330
47
102
}
330
47
100
AcDbScale
 70
     0
300
3/8" = 1'-0"
140
0.375
141
12.0
290
     0
  0
SCALE
  5
62
102
{ACAD_REACTORS
330
47
102
}
330
47
100
AcDbScale
 70
     0
300
1/2" = 1'-0"
140
0.5
141
12.0
290
     0
  0
SCALE
  5
63
102
{ACAD_REACTORS
330
47
102
}
330
47
100
AcDbScale
 70
     0
300
3/4" = 1'-0"
140
0.75
141
12.0
290
     0
  0
SCALE
  5
64
102
{ACAD_REACTORS
330
47
102
}
330
47
100
AcDbScale
 70
     0
300
1" = 1'-0"
140
1.0
141
12.0
290
     0
  0
SCALE
  5
65
102
{ACAD_REACTORS
330
47
102
}
330
47
100
AcDbScale
 70
     0
300
1-1/2" = 1'-0"
140
1.5
141
12.0
290
     0
  0
SCALE
  5
66
102
{ACAD_REACTORS
330
47
102
}
330
47
100
AcDbScale
 70
     0
300
3" = 1'-0"
140
3.0
141
12.0
290
     0
  0
SCALE
  5
67
102
{ACAD_REACTORS
330
47
102
}
330
47
100
AcDbScale
 70
     0
300
6" = 1'-0"
140
6.0
141
12.0
290
     0
  0
SCALE
  5
68
102
{ACAD_REACTORS
330
47
102
}
330
47
100
AcDbScale
 70
     0
300
1'-0" = 1'-0"
140
12.0
141
12.0
290
     0
  0
TABLESTYLE
  5
6A
102
{ACAD_REACTORS
330
69
102
}
102
{ACAD_XDICTIONARY
360
266
102
}
330
69
100
AcDbTableStyle
  3
Standard
 70
     0
 71
     0
 40
0.06
 41
0.06
280
     0
281
     0
  7
Standard
140
4.5
170
     2
 62
     0
 63
   257
283
     0
 90
        4
 91
        0
  1

274
    -2
284
     1
 64
     0
275
    -2
285
     1
 65
     0
276
    -2
286
     1
 66
     0
277
    -2
287
     1
 67
     0
278
    -2
288
     1
 68
     0
279
    -2
289
     1
 69
     0
  7
Standard
140
6.0
170
     5
 62
     0
 63
   257
283
     0
 90
        4
 91
        0
  1

274
    -2
284
     1
 64
     0
275
    -2
285
     1
 65
     0
276
    -2
286
     1
 66
     0
277
    -2
287
     1
 67
     0
278
    -2
288
     1
 68
     0
279
    -2
289
     1
 69
     0
  7
Standard
140
4.5
170
     5
 62
     0
 63
   257
283
     0
 90
        4
 91
        0
  1

274
    -2
284
     1
 64
     0
275
    -2
285
     1
 65
     0
276
    -2
286
     1
 66
     0
277
    -2
287
     1
 67
     0
278
    -2
288
     1
 68
     0
279
    -2
289
     1
 69
     0
  0
VISUALSTYLE
  5
2F
102
{ACAD_REACTORS
330
2A
102
}
330
2A
100
AcDbVisualStyle
  2
2dWireframe
 70
     4
177
     3
291
     0
 70
    58
 90
        0
176
     1
 90
        2
176
     1
 90
        0
176
     1
 90
        0
176
     1
 40
0.6
176
     1
 40
30.0
176
     1
 62
     7
420
 16777215
176
     1
 90
        1
176
     1
 90
        4
176
     1
 62
     7
176
     1
 62
   257
176
     1
 90
        1
176
     1
 90
        1
176
     1
 40
1.0
176
     1
 90
        0
176
     1
 62
   257
176
     1
 40
1.0
176
     1
 90
        1
176
     1
 90
        6
176
     1
 90
        2
176
     1
 62
     7
176
     1
 90
        5
176
     1
 90
        0
176
     1
 90
        0
176
     1
290
     0
176
     1
 90
        1
176
     1
 40
0.0
176
     1
 90
        0
176
     1
290
     1
176
     1
290
     1
176
     1
290
     0
176
     1
290
     0
176
     1
290
     0
176
     1
290
     0
176
     1
290
     0
176
     1
290
     0
176
     1
290
     0
176
     1
 90
       50
176
     1
 40
0.0
176
     1
 40
1.0
176
     1
 90
        0
176
     1
 62
    18
420
        0
176
     1
 90
       50
176
     1
 90
        3
176
     1
 62
     5
420
      255
176
     1
290
     0
176
     1
 90
       50
176
     1
 90
       50
176
     1
 90
       50
176
     1
290
     0
176
     1
 90
       50
176
     1
 62
   256
176
     0
 40
1.0
176
     0
 90
        2
176
     1
  1
strokes_ogs.tif
176
     1
290
     0
176
     1
 40
1.0
176
     1
 40
1.0
176
     1
  0
VISUALSTYLE
  5
32
102
{ACAD_REACTORS
330
2A
102
}
330
2A
100
AcDbVisualStyle
  2
Basic
 70
     7
177
     3
291
     1
 70
    58
 90
        1
176
     1
 90
        0
176
     1
 90
        1
176
     1
 90
        0
176
     1
 40
0.6
176
     1
 40
30.0
176
     1
 62
     7
420
 16777215
176
     1
 90
        0
176
     1
 90
        4
176
     1
 62
     7
176
     1
 62
   257
176
     1
 90
        1
176
     1
 90
        1
176
     1
 40
1.0
176
     1
 90
        8
176
     1
 62
     7
176
     1
 40
1.0
176
     1
 90
        1
176
     1
 90
        6
176
     1
 90
        2
176
     1
 62
     7
176
     1
 90
        5
176
     1
 90
        0
176
     1
 90
        0
176
     1
290
     0
176
     1
 90
        1
176
     1
 40
0.0
176
     1
 90
        0
176
     1
290
     0
176
     1
290
     1
176
     1
290
     1
176
     1
290
     0
176
     1
290
     0
176
     1
290
     0
176
     1
290
     0
176
     1
290
     0
176
     1
290
     0
176
     1
 90
       50
176
     1
 40
0.0
176
     1
 40
1.0
176
     1
 90
        0
176
     1
 62
    18
420
        0
176
     1
 90
       50
176
     1
 90
        3
176
     1
 62
     5
420
      255
176
     1
290
     0
176
     1
 90
       50
176
     1
 90
       50
176
     1
 90
       50
176
     1
290
     0
176
     1
 90
       50
176
     1
 62
   256
176
     0
 40
1.0
176
     0
 90
        2
176
     1
  1
strokes_ogs.tif
176
     1
290
     0
176
     1
 40
1.0
176
     1
 40
1.0
176
     1
  0
VISUALSTYLE
  5
36
102
{ACAD_REACTORS
330
2A
102
}
330
2A
100
AcDbVisualStyle
  2
Brighten
 70
    12
177
     3
291
     1
 70
    58
 90
        2
176
     1
 90
        2
176
     1
 90
        0
176
     1
 90
        0
176
     1
 40
0.6
176
     1
 40
30.0
176
     1
 62
     7
420
 16777215
176
     1
 90
        1
176
     1
 90
        4
176
     1
 62
     7
176
     1
 62
   257
176
     1
 90
        1
176
     1
 90
        1
176
     1
 40
1.0
176
     1
 90
        8
176
     1
 62
     7
176
     1
 40
1.0
176
     1
 90
        1
176
     1
 90
        6
176
     1
 90
        2
176
     1
 62
     7
176
     1
 90
        5
176
     1
 90
        0
176
     1
 90
        0
176
     1
290
     0
176
     1
 90
        1
176
     1
 40
50.0
176
     1
 90
        0
176
     1
290
     0
176
     1
290
     1
176
     1
290
     1
176
     1
290
     0
176
     1
290
     0
176
     1
290
     0
176
     1
290
     0
176
     1
290
     0
176
     1
290
     0
176
     1
 90
       50
176
     1
 40
0.0
176
     1
 40
1.0
176
     1
 90
        0
176
     1
 62
    18
420
        0
176
     1
 90
       50
176
     1
 90
        3
176
     1
 62
     5
420
      255
176
     1
290
     0
176
     1
 90
       50
176
     1
 90
       50
176
     1
 90
       50
176
     1
290
     0
176
     1
 90
       50
176
     1
 62
   256
176
     0
 40
1.0
176
     0
 90
        2
176
     1
  1
strokes_ogs.tif
176
     1
290
     0
176
     1
 40
1.0
176
     1
 40
1.0
176
     1
  0
VISUALSTYLE
  5
3A
102
{ACAD_REACTORS
330
2A
102
}
330
2A
100
AcDbVisualStyle
  2
ColorChange
 70
    16
177
     3
291
     1
 70
    58
 90
        2
176
     1
 90
        2
176
     1
 90
        3
176
     1
 90
        0
176
     1
 40
0.6
176
     1
 40
30.0
176
     1
 62
     8
420
  8421504
176
     1
 90
        1
176
     1
 90
        4
176
     1
 62
     7
176
     1
 62
   257
176
     1
 90
        1
176
     1
 90
        1
176
     1
 40
1.0
176
     1
 90
        8
176
     1
 62
     8
420
  8421504
176
     1
 40
1.0
176
     1
 90
        1
176
     1
 90
        6
176
     1
 90
        2
176
     1
 62
     7
176
     1
 90
        5
176
     1
 90
        0
176
     1
 90
        0
176
     1
290
     0
176
     1
 90
        1
176
     1
 40
0.0
176
     1
 90
        0
176
     1
290
     0
176
     1
290
     1
176
     1
290
     1
176
     1
290
     0
176
     1
290
     0
176
     1
290
     0
176
     1
290
     0
176
     1
290
     0
176
     1
290
     0
176
     1
 90
       50
176
     1
 40
0.0
176
     1
 40
1.0
176
     1
 90
        0
176
     1
 62
    18
420
        0
176
     1
 90
       50
176
     1
 90
        3
176
     1
 62
     5
420
      255
176
     1
290
     0
176
     1
 90
       50
176
     1
 90
       50
176
     1
 90
       50
176
     1
290
     0
176
     1
 90
       50
176
     1
 62
   256
176
     0
 40
1.0
176
     0
 90
        2
176
     1
  1
strokes_ogs.tif
176
     1
290
     0
176
     1
 40
1.0
176
     1
 40
1.0
176
     1
  0
VISUALSTYLE
  5
34
102
{ACAD_REACTORS
330
2A
102
}
330
2A
100
AcDbVisualStyle
  2
Conceptual
 70
     9
177
     3
291
     0
 70
    58
 90
        3
176
     1
 90
        2
176
     1
 90
        0
176
     1
 90
        0
176
     1
 40
0.6
176
     1
 40
30.0
176
     1
 62
     7
420
 16777215
176
     1
 90
        2
176
     1
 90
        2
176
     1
 62
     7
176
     1
 62
   257
176
     1
 90
        1
176
     1
 90
        1
176
     1
 40
179.0
176
     1
 90
        8
176
     1
 62
     7
176
     1
 40
1.0
176
     1
 90
        1
176
     1
 90
        6
176
     1
 90
        2
176
     1
 62
     7
176
     1
 90
        3
176
     1
 90
        0
176
     1
 90
        0
176
     1
290
     0
176
     1
 90
        1
176
     1
 40
0.0
176
     1
 90
        0
176
     1
290
     0
176
     1
290
     1
176
     1
290
     1
176
     1
290
     0
176
     1
290
     0
176
     1
290
     0
176
     1
290
     0
176
     1
290
     0
176
     1
290
     0
176
     1
 90
       50
176
     1
 40
0.0
176
     1
 40
1.0
176
     1
 90
        0
176
     1
 62
    18
420
        0
176
     1
 90
       50
176
     1
 90
        3
176
     1
 62
     5
420
      255
176
     1
290
     0
176
     1
 90
       50
176
     1
 90
       50
176
     1
 90
       50
176
     1
290
     0
176
     1
 90
       50
176
     1
 62
   256
176
     0
 40
1.0
176
     0
 90
        2
176
     1
  1
strokes_ogs.tif
176
     1
290
     0
176
     1
 40
1.0
176
     1
 40
1.0
176
     1
  0
VISUALSTYLE
  5
35
102
{ACAD_REACTORS
330
2A
102
}
330
2A
100
AcDbVisualStyle
  2
Dim
 70
    11
177
     3
291
     1
 70
    58
 90
        2
176
     1
 90
        2
176
     1
 90
        0
176
     1
 90
        0
176
     1
 40
0.6
176
     1
 40
30.0
176
     1
 62
     7
420
 16777215
176
     1
 90
        1
176
     1
 90
        4
176
     1
 62
     7
176
     1
 62
   257
176
     1
 90
        1
176
     1
 90
        1
176
     1
 40
1.0
176
     1
 90
        8
176
     1
 62
     7
176
     1
 40
1.0
176
     1
 90
        1
176
     1
 90
        6
176
     1
 90
        2
176
     1
 62
     7
176
     1
 90
        5
176
     1
 90
        0
176
     1
 90
        0
176
     1
290
     0
176
     1
 90
        1
176
     1
 40
-50.0
176
     1
 90
        0
176
     1
290
     0
176
     1
290
     1
176
     1
290
     1
176
     1
290
     0
176
     1
290
     0
176
     1
290
     0
176
     1
290
     0
176
     1
290
     0
176
     1
290
     0
176
     1
 90
       50
176
     1
 40
0.0
176
     1
 40
1.0
176
     1
 90
        0
176
     1
 62
    18
420
        0
176
     1
 90
       50
176
     1
 90
        3
176
     1
 62
     5
420
      255
176
     1
290
     0
176
     1
 90
       50
176
     1
 90
       50
176
     1
 90
       50
176
     1
290
     0
176
     1
 90
       50
176
     1
 62
   256
176
     0
 40
1.0
176
     0
 90
        2
176
     1
  1
strokes_ogs.tif
176
     1
290
     0
176
     1
 40
1.0
176
     1
 40
1.0
176
     1
  0
VISUALSTYLE
  5
3D
102
{ACAD_REACTORS
330
2A
102
}
330
2A
100
AcDbVisualStyle
  2
EdgeColorOff
 70
    22
177
     3
291
     1
 70
    58
 90
        2
176
     0
 90
        2
176
     0
 90
        0
176
     0
 90
        0
176
     0
 40
0.6
176
     0
 40
30.0
176
     0
 62
     7
420
 16777215
176
     0
 90
        1
176
     0
 90
        4
176
     0
 62
     7
176
     0
 62
   257
176
     0
 90
        1
176
     0
 90
        1
176
     0
 40
1.0
176
     0
 90
        8
176
     2
 62
     7
176
     0
 40
1.0
176
     0
 90
        1
176
     0
 90
        6
176
     0
 90
        2
176
     0
 62
     7
176
     0
 90
        5
176
     0
 90
        0
176
     0
 90
        0
176
     0
290
     0
176
     0
 90
        1
176
     0
 40
0.0
176
     0
 90
        0
176
     0
290
     0
176
     0
290
     1
176
     0
290
     1
176
     0
290
     0
176
     0
290
     0
176
     0
290
     0
176
     0
290
     0
176
     0
290
     0
176
     0
290
     0
176
     0
 90
       50
176
     0
 40
0.0
176
     0
 40
1.0
176
     0
 90
        0
176
     0
 62
    18
420
        0
176
     0
 90
       50
176
     0
 90
        3
176
     0
 62
     5
420
      255
176
     0
290
     0
176
     0
 90
       50
176
     0
 90
       50
176
     0
 90
       50
176
     0
290
     0
176
     0
 90
       50
176
     0
 62
   256
176
     0
 40
1.0
176
     0
 90
        2
176
     0
  1
strokes_ogs.tif
176
     0
290
     0
176
     0
 40
1.0
176
     0
 40
1.0
176
     0
  0
VISUALSTYLE
  5
39
102
{ACAD_REACTORS
330
2A
102
}
330
2A
100
AcDbVisualStyle
  2
Facepattern
 70
    15
177
     3
291
     1
 70
    58
 90
        2
176
     1
 90
        2
176
     1
 90
        0
176
     1
 90
        0
176
     1
 40
0.6
176
     1
 40
30.0
176
     1
 62
     7
420
 16777215
176
     1
 90
        1
176
     1
 90
        4
176
     1
 62
     7
176
     1
 62
   257
176
     1
 90
        1
176
     1
 90
        1
176
     1
 40
1.0
176
     1
 90
        8
176
     1
 62
     7
176
     1
 40
1.0
176
     1
 90
        1
176
     1
 90
        6
176
     1
 90
        2
176
     1
 62
     7
176
     1
 90
        5
176
     1
 90
        0
176
     1
 90
        0
176
     1
290
     0
176
     1
 90
        1
176
     1
 40
0.0
176
     1
 90
        0
176
     1
290
     0
176
     1
290
     1
176
     1
290
     1
176
     1
290
     0
176
     1
290
     0
176
     1
290
     0
176
     1
290
     0
176
     1
290
     0
176
     1
290
     0
176
     1
 90
       50
176
     1
 40
0.0
176
     1
 40
1.0
176
     1
 90
        0
176
     1
 62
    18
420
        0
176
     1
 90
       50
176
     1
 90
        3
176
     1
 62
     5
420
      255
176
     1
290
     0
176
     1
 90
       50
176
     1
 90
       50
176
     1
 90
       50
176
     1
290
     0
176
     1
 90
       50
176
     1
 62
   256
176
     0
 40
1.0
176
     0
 90
        2
176
     1
  1
strokes_ogs.tif
176
     1
290
     0
176
     1
 40
1.0
176
     1
 40
1.0
176
     1
  0
VISUALSTYLE
  5
2B
102
{ACAD_REACTORS
330
2A
102
}
330
2A
100
AcDbVisualStyle
  2
Flat
 70
     0
177
     3
291
     1
 70
    58
 90
        2
176
     1
 90
        1
176
     1
 90
        1
176
     1
 90
        2
176
     1
 40
0.6
176
     1
 40
30.0
176
     1
 62
     7
420
 16777215
176
     1
 90
        0
176
     1
 90
        0
176
     1
 62
     7
176
     1
 62
   257
176
     1
 90
        1
176
     1
 90
        1
176
     1
 40
1.0
176
     1
 90
        8
176
     1
 62
     7
176
     1
 40
1.0
176
     1
 90
        1
176
     1
 90
        6
176
     1
 90
        2
176
     1
 62
     7
176
     1
 90
        5
176
     1
 90
        0
176
     1
 90
        0
176
     1
290
     0
176
     1
 90
       13
176
     1
 40
0.0
176
     1
 90
        0
176
     1
290
     0
176
     1
290
     1
176
     1
290
     1
176
     1
290
     0
176
     1
290
     0
176
     1
290
     0
176
     1
290
     0
176
     1
290
     0
176
     1
290
     0
176
     1
 90
       50
176
     1
 40
0.0
176
     1
 40
1.0
176
     1
 90
        0
176
     1
 62
    18
420
        0
176
     1
 90
       50
176
     1
 90
        3
176
     1
 62
     5
420
      255
176
     1
290
     0
176
     1
 90
       50
176
     1
 90
       50
176
     1
 90
       50
176
     1
290
     0
176
     1
 90
       50
176
     1
 62
   256
176
     0
 40
1.0
176
     0
 90
        2
176
     1
  1
strokes_ogs.tif
176
     1
290
     0
176
     1
 40
1.0
176
     1
 40
1.0
176
     1
  0
VISUALSTYLE
  5
2C
102
{ACAD_REACTORS
330
2A
102
}
330
2A
100
AcDbVisualStyle
  2
FlatWithEdges
 70
     1
177
     3
291
     1
 70
    58
 90
        2
176
     1
 90
        1
176
     1
 90
        1
176
     1
 90
        2
176
     1
 40
0.6
176
     1
 40
30.0
176
     1
 62
     7
420
 16777215
176
     1
 90
        1
176
     1
 90
        0
176
     1
 62
     7
176
     1
 62
   257
176
     1
 90
        1
176
     1
 90
        1
176
     1
 40
1.0
176
     1
 90
        0
176
     1
 62
   257
176
     1
 40
1.0
176
     1
 90
        1
176
     1
 90
        6
176
     1
 90
        2
176
     1
 62
     7
176
     1
 90
        5
176
     1
 90
        0
176
     1
 90
        0
176
     1
290
     0
176
     1
 90
       13
176
     1
 40
0.0
176
     1
 90
        0
176
     1
290
     0
176
     1
290
     1
176
     1
290
     1
176
     1
290
     0
176
     1
290
     0
176
     1
290
     0
176
     1
290
     0
176
     1
290
     0
176
     1
290
     0
176
     1
 90
       50
176
     1
 40
0.0
176
     1
 40
1.0
176
     1
 90
        0
176
     1
 62
    18
420
        0
176
     1
 90
       50
176
     1
 90
        3
176
     1
 62
     5
420
      255
176
     1
290
     0
176
     1
 90
       50
176
     1
 90
       50
176
     1
 90
       50
176
     1
290
     0
176
     1
 90
       50
176
     1
 62
   256
176
     0
 40
1.0
176
     0
 90
        2
176
     1
  1
strokes_ogs.tif
176
     1
290
     0
176
     1
 40
1.0
176
     1
 40
1.0
176
     1
  0
VISUALSTYLE
  5
2D
102
{ACAD_REACTORS
330
2A
102
}
330
2A
100
AcDbVisualStyle
  2
Gouraud
 70
     2
177
     3
291
     1
 70
    58
 90
        2
176
     1
 90
        2
176
     1
 90
        1
176
     1
 90
        2
176
     1
 40
0.6
176
     1
 40
30.0
176
     1
 62
     7
420
 16777215
176
     1
 90
        0
176
     1
 90
        0
176
     1
 62
     7
176
     1
 62
   257
176
     1
 90
        1
176
     1
 90
        1
176
     1
 40
1.0
176
     1
 90
        0
176
     1
 62
     7
176
     1
 40
1.0
176
     1
 90
        1
176
     1
 90
        6
176
     1
 90
        2
176
     1
 62
     7
176
     1
 90
        5
176
     1
 90
        0
176
     1
 90
        0
176
     1
290
     0
176
     1
 90
       13
176
     1
 40
0.0
176
     1
 90
        0
176
     1
290
     0
176
     1
290
     1
176
     1
290
     1
176
     1
290
     0
176
     1
290
     0
176
     1
290
     0
176
     1
290
     0
176
     1
290
     0
176
     1
290
     0
176
     1
 90
       50
176
     1
 40
0.0
176
     1
 40
1.0
176
     1
 90
        0
176
     1
 62
    18
420
        0
176
     1
 90
       50
176
     1
 90
        3
176
     1
 62
     5
420
      255
176
     1
290
     0
176
     1
 90
       50
176
     1
 90
       50
176
     1
 90
       50
176
     1
290
     0
176
     1
 90
       50
176
     1
 62
   256
176
     0
 40
1.0
176
     0
 90
        2
176
     1
  1
strokes_ogs.tif
176
     1
290
     0
176
     1
 40
1.0
176
     1
 40
1.0
176
     1
  0
VISUALSTYLE
  5
2E
102
{ACAD_REACTORS
330
2A
102
}
330
2A
100
AcDbVisualStyle
  2
GouraudWithEdges
 70
     3
177
     3
291
     1
 70
    58
 90
        2
176
     1
 90
        2
176
     1
 90
        1
176
     1
 90
        2
176
     1
 40
0.6
176
     1
 40
30.0
176
     1
 62
     7
420
 16777215
176
     1
 90
        1
176
     1
 90
        0
176
     1
 62
     7
176
     1
 62
   257
176
     1
 90
        1
176
     1
 90
        1
176
     1
 40
1.0
176
     1
 90
        0
176
     1
 62
   257
176
     1
 40
1.0
176
     1
 90
        1
176
     1
 90
        6
176
     1
 90
        2
176
     1
 62
     7
176
     1
 90
        5
176
     1
 90
        0
176
     1
 90
        0
176
     1
290
     0
176
     1
 90
       13
176
     1
 40
0.0
176
     1
 90
        0
176
     1
290
     0
176
     1
290
     1
176
     1
290
     1
176
     1
290
     0
176
     1
290
     0
176
     1
290
     0
176
     1
290
     0
176
     1
290
     0
176
     1
290
     0
176
     1
 90
       50
176
     1
 40
0.0
176
     1
 40
1.0
176
     1
 90
        0
176
     1
 62
    18
420
        0
176
     1
 90
       50
176
     1
 90
        3
176
     1
 62
     5
420
      255
176
     1
290
     0
176
     1
 90
       50
176
     1
 90
       50
176
     1
 90
       50
176
     1
290
     0
176
     1
 90
       50
176
     1
 62
   256
176
     0
 40
1.0
176
     0
 90
        2
176
     1
  1
strokes_ogs.tif
176
     1
290
     0
176
     1
 40
1.0
176
     1
 40
1.0
176
     1
  0
VISUALSTYLE
  5
31
102
{ACAD_REACTORS
330
2A
102
}
330
2A
100
AcDbVisualStyle
  2
Hidden
 70
     6
177
     3
291
     0
 70
    58
 90
        1
176
     1
 90
        2
176
     1
 90
        2
176
     1
 90
        0
176
     1
 40
0.6
176
     1
 40
30.0
176
     1
 62
     7
420
 16777215
176
     1
 90
        2
176
     1
 90
        2
176
     1
 62
     7
176
     1
 62
   257
176
     1
 90
        2
176
     1
 90
        1
176
     1
 40
40.0
176
     1
 90
        0
176
     1
 62
   257
176
     1
 40
1.0
176
     1
 90
        1
176
     1
 90
        6
176
     1
 90
        2
176
     1
 62
     7
176
     1
 90
        3
176
     1
 90
        0
176
     1
 90
        0
176
     1
290
     0
176
     1
 90
        1
176
     1
 40
0.0
176
     1
 90
        0
176
     1
290
     0
176
     1
290
     1
176
     1
290
     1
176
     1
290
     0
176
     1
290
     0
176
     1
290
     0
176
     1
290
     0
176
     1
290
     0
176
     1
290
     0
176
     1
 90
       50
176
     1
 40
0.0
176
     1
 40
1.0
176
     1
 90
        0
176
     1
 62
    18
420
        0
176
     1
 90
       50
176
     1
 90
        3
176
     1
 62
     5
420
      255
176
     1
290
     0
176
     1
 90
       50
176
     1
 90
       50
176
     1
 90
       50
176
     1
290
     0
176
     1
 90
       50
176
     1
 62
   256
176
     0
 40
1.0
176
     0
 90
        2
176
     1
  1
strokes_ogs.tif
176
     1
290
     0
176
     1
 40
1.0
176
     1
 40
1.0
176
     1
  0
VISUALSTYLE
  5
3B
102
{ACAD_REACTORS
330
2A
102
}
330
2A
100
AcDbVisualStyle
  2
JitterOff
 70
    20
177
     3
291
     1
 70
    58
 90
        2
176
     0
 90
        2
176
     0
 90
        0
176
     0
 90
        0
176
     0
 40
0.6
176
     0
 40
30.0
176
     0
 62
     7
420
 16777215
176
     0
 90
        1
176
     0
 90
        4
176
     0
 62
     7
176
     0
 62
   257
176
     0
 90
        1
176
     0
 90
        1
176
     0
 40
1.0
176
     0
 90
       10
176
     2
 62
     7
176
     0
 40
1.0
176
     0
 90
        1
176
     0
 90
        6
176
     0
 90
        2
176
     0
 62
     7
176
     0
 90
        5
176
     0
 90
        0
176
     0
 90
        0
176
     0
290
     0
176
     0
 90
        1
176
     0
 40
0.0
176
     0
 90
        0
176
     0
290
     0
176
     0
290
     1
176
     0
290
     1
176
     0
290
     0
176
     0
290
     0
176
     0
290
     0
176
     0
290
     0
176
     0
290
     0
176
     0
290
     0
176
     0
 90
       50
176
     0
 40
0.0
176
     0
 40
1.0
176
     0
 90
        0
176
     0
 62
    18
420
        0
176
     0
 90
       50
176
     0
 90
        3
176
     0
 62
     5
420
      255
176
     0
290
     0
176
     0
 90
       50
176
     0
 90
       50
176
     0
 90
       50
176
     0
290
     0
176
     0
 90
       50
176
     0
 62
   256
176
     0
 40
1.0
176
     0
 90
        2
176
     0
  1
strokes_ogs.tif
176
     0
290
     0
176
     0
 40
1.0
176
     0
 40
1.0
176
     0
  0
VISUALSTYLE
  5
38
102
{ACAD_REACTORS
330
2A
102
}
330
2A
100
AcDbVisualStyle
  2
Linepattern
 70
    14
177
     3
291
     1
 70
    58
 90
        2
176
     1
 90
        2
176
     1
 90
        0
176
     1
 90
        0
176
     1
 40
0.6
176
     1
 40
30.0
176
     1
 62
     7
420
 16777215
176
     1
 90
        1
176
     1
 90
        4
176
     1
 62
     7
176
     1
 62
   257
176
     1
 90
        7
176
     1
 90
        7
176
     1
 40
1.0
176
     1
 90
        8
176
     1
 62
     7
176
     1
 40
1.0
176
     1
 90
        1
176
     1
 90
        6
176
     1
 90
        2
176
     1
 62
     7
176
     1
 90
        5
176
     1
 90
        0
176
     1
 90
        0
176
     1
290
     0
176
     1
 90
        1
176
     1
 40
0.0
176
     1
 90
        0
176
     1
290
     0
176
     1
290
     1
176
     1
290
     1
176
     1
290
     0
176
     1
290
     0
176
     1
290
     0
176
     1
290
     0
176
     1
290
     0
176
     1
290
     0
176
     1
 90
       50
176
     1
 40
0.0
176
     1
 40
1.0
176
     1
 90
        0
176
     1
 62
    18
420
        0
176
     1
 90
       50
176
     1
 90
        3
176
     1
 62
     5
420
      255
176
     1
290
     0
176
     1
 90
       50
176
     1
 90
       50
176
     1
 90
       50
176
     1
290
     0
176
     1
 90
       50
176
     1
 62
   256
176
     0
 40
1.0
176
     0
 90
        2
176
     1
  1
strokes_ogs.tif
176
     1
290
     0
176
     1
 40
1.0
176
     1
 40
1.0
176
     1
  0
VISUALSTYLE
  5
3C
102
{ACAD_REACTORS
330
2A
102
}
330
2A
100
AcDbVisualStyle
  2
OverhangOff
 70
    21
177
     3
291
     1
 70
    58
 90
        2
176
     0
 90
        2
176
     0
 90
        0
176
     0
 90
        0
176
     0
 40
0.6
176
     0
 40
30.0
176
     0
 62
     7
420
 16777215
176
     0
 90
        1
176
     0
 90
        4
176
     0
 62
     7
176
     0
 62
   257
176
     0
 90
        1
176
     0
 90
        1
176
     0
 40
1.0
176
     0
 90
        9
176
     2
 62
     7
176
     0
 40
1.0
176
     0
 90
        1
176
     0
 90
        6
176
     0
 90
        2
176
     0
 62
     7
176
     0
 90
        5
176
     0
 90
        0
176
     0
 90
        0
176
     0
290
     0
176
     0
 90
        1
176
     0
 40
0.0
176
     0
 90
        0
176
     0
290
     0
176
     0
290
     1
176
     0
290
     1
176
     0
290
     0
176
     0
290
     0
176
     0
290
     0
176
     0
290
     0
176
     0
290
     0
176
     0
290
     0
176
     0
 90
       50
176
     0
 40
0.0
176
     0
 40
1.0
176
     0
 90
        0
176
     0
 62
    18
420
        0
176
     0
 90
       50
176
     0
 90
        3
176
     0
 62
     5
420
      255
176
     0
290
     0
176
     0
 90
       50
176
     0
 90
       50
176
     0
 90
       50
176
     0
290
     0
176
     0
 90
       50
176
     0
 62
   256
176
     0
 40
1.0
176
     0
 90
        2
176
     0
  1
strokes_ogs.tif
176
     0
290
     0
176
     0
 40
1.0
176
     0
 40
1.0
176
     0
  0
VISUALSTYLE
  5
33
102
{ACAD_REACTORS
330
2A
102
}
330
2A
100
AcDbVisualStyle
  2
Realistic
 70
     8
177
     3
291
     0
 70
    58
 90
        2
176
     1
 90
        3
176
     1
 90
        0
176
     1
 90
        2
176
     1
 40
0.6
176
     1
 40
30.0
176
     1
 62
     7
420
 16777215
176
     1
 90
        0
176
     1
 90
        0
176
     1
 62
     7
176
     1
 62
   257
176
     1
 90
        1
176
     1
 90
        1
176
     1
 40
1.0
176
     1
 90
        8
176
     1
 62
   257
176
     1
 40
1.0
176
     1
 90
        1
176
     1
 90
        6
176
     1
 90
        2
176
     1
 62
     7
176
     1
 90
        3
176
     1
 90
        0
176
     1
 90
        0
176
     1
290
     0
176
     1
 90
       13
176
     1
 40
0.0
176
     1
 90
        0
176
     1
290
     0
176
     1
290
     1
176
     1
290
     1
176
     1
290
     0
176
     1
290
     0
176
     1
290
     0
176
     1
290
     0
176
     1
290
     0
176
     1
290
     0
176
     1
 90
       50
176
     1
 40
0.0
176
     1
 40
1.0
176
     1
 90
        0
176
     1
 62
    18
420
        0
176
     1
 90
       50
176
     1
 90
        3
176
     1
 62
     5
420
      255
176
     1
290
     0
176
     1
 90
       50
176
     1
 90
       50
176
     1
 90
       50
176
     1
290
     0
176
     1
 90
       50
176
     1
 62
   256
176
     0
 40
1.0
176
     0
 90
        2
176
     1
  1
strokes_ogs.tif
176
     1
290
     0
176
     1
 40
1.0
176
     1
 40
1.0
176
     1
  0
VISUALSTYLE
  5
42
102
{ACAD_REACTORS
330
2A
102
}
330
2A
100
AcDbVisualStyle
  2
Shaded
 70
    27
177
     3
291
     0
 70
    58
 90
        2
176
     1
 90
        2
176
     1
 90
        1
176
     1
 90
        2
176
     1
 40
0.6
176
     1
 40
30.0
176
     1
 62
     7
420
 16777215
176
     1
 90
        0
176
     1
 90
        4
176
     1
 62
     7
176
     1
 62
   257
176
     1
 90
        1
176
     1
 90
        1
176
     1
 40
1.0
176
     1
 90
        8
176
     1
 62
   257
176
     1
 40
1.0
176
     1
 90
        1
176
     1
 90
        6
176
     1
 90
        2
176
     1
 62
     8
420
  7895160
176
     1
 90
        3
176
     1
 90
        0
176
     1
 90
        0
176
     1
290
     0
176
     1
 90
        5
176
     1
 40
0.0
176
     1
 90
        0
176
     1
290
     0
176
     1
290
     1
176
     1
290
     1
176
     1
290
     0
176
     1
290
     0
176
     1
290
     0
176
     1
290
     0
176
     1
290
     0
176
     1
290
     0
176
     1
 90
       50
176
     1
 40
0.0
176
     1
 40
1.0
176
     1
 90
        0
176
     1
 62
    18
420
        0
176
     1
 90
       50
176
     1
 90
        3
176
     1
 62
     5
420
      255
176
     1
290
     0
176
     1
 90
       50
176
     1
 90
       50
176
     1
 90
       50
176
     1
290
     0
176
     1
 90
       50
176
     1
 62
   256
176
     0
 40
1.0
176
     0
 90
        2
176
     1
  1
strokes_ogs.tif
176
     1
290
     0
176
     1
 40
1.0
176
     1
 40
1.0
176
     1
  0
VISUALSTYLE
  5
41
102
{ACAD_REACTORS
330
2A
102
}
330
2A
100
AcDbVisualStyle
  2
Shaded with edges
 70
    26
177
     3
291
     0
 70
    58
 90
        2
176
     1
 90
        2
176
     1
 90
        1
176
     1
 90
        2
176
     1
 40
0.6
176
     1
 40
30.0
176
     1
 62
     7
420
 16777215
176
     1
 90
        1
176
     1
 90
       10
176
     1
 62
     7
176
     1
 62
   257
176
     1
 90
        2
176
     1
 90
        1
176
     1
 40
1.0
176
     1
 90
        8
176
     1
 62
   257
176
     1
 40
1.0
176
     1
 90
        1
176
     1
 90
        6
176
     1
 90
        2
176
     1
 62
     7
176
     1
 90
        3
176
     1
 90
        0
176
     1
 90
        0
176
     1
290
     0
176
     1
 90
        5
176
     1
 40
0.0
176
     1
 90
        0
176
     1
290
     0
176
     1
290
     1
176
     1
290
     1
176
     1
290
     0
176
     1
290
     0
176
     1
290
     0
176
     1
290
     0
176
     1
290
     0
176
     1
290
     0
176
     1
 90
       50
176
     1
 40
0.0
176
     1
 40
1.0
176
     1
 90
        0
176
     1
 62
    18
420
        0
176
     1
 90
       50
176
     1
 90
        3
176
     1
 62
     5
420
      255
176
     1
290
     0
176
     1
 90
       50
176
     1
 90
       50
176
     1
 90
       50
176
     1
290
     0
176
     1
 90
       50
176
     1
 62
   256
176
     0
 40
1.0
176
     0
 90
        2
176
     1
  1
strokes_ogs.tif
176
     1
290
     0
176
     1
 40
1.0
176
     1
 40
1.0
176
     1
  0
VISUALSTYLE
  5
3E
102
{ACAD_REACTORS
330
2A
102
}
330
2A
100
AcDbVisualStyle
  2
Shades of Gray
 70
    23
177
     3
291
     0
 70
    58
 90
        2
176
     1
 90
        2
176
     1
 90
        3
176
     1
 90
        0
176
     1
 40
0.6
176
     1
 40
30.0
176
     1
 62
     7
420
 16777215
176
     1
 90
        2
176
     1
 90
        2
176
     1
 62
     7
176
     1
 62
     7
176
     1
 90
        1
176
     1
 90
        1
176
     1
 40
40.0
176
     1
 90
        8
176
     1
 62
     7
176
     1
 40
1.0
176
     1
 90
        1
176
     1
 90
        6
176
     1
 90
        2
176
     1
 62
     7
176
     1
 90
        3
176
     1
 90
        0
176
     1
 90
        0
176
     1
290
     0
176
     1
 90
        1
176
     1
 40
0.0
176
     1
 90
        0
176
     1
290
     0
176
     1
290
     1
176
     1
290
     1
176
     1
290
     0
176
     1
290
     0
176
     1
290
     0
176
     1
290
     0
176
     1
290
     0
176
     1
290
     0
176
     1
 90
       50
176
     1
 40
0.0
176
     1
 40
1.0
176
     1
 90
        0
176
     1
 62
    18
420
        0
176
     1
 90
       50
176
     1
 90
        3
176
     1
 62
     5
420
      255
176
     1
290
     0
176
     1
 90
       50
176
     1
 90
       50
176
     1
 90
       50
176
     1
290
     0
176
     1
 90
       50
176
     1
 62
   256
176
     0
 40
1.0
176
     0
 90
        2
176
     1
  1
strokes_ogs.tif
176
     1
290
     0
176
     1
 40
1.0
176
     1
 40
1.0
176
     1
  0
VISUALSTYLE
  5
3F
102
{ACAD_REACTORS
330
2A
102
}
330
2A
100
AcDbVisualStyle
  2
Sketchy
 70
    24
177
     3
291
     0
 70
    58
 90
        1
176
     1
 90
        2
176
     1
 90
        2
176
     1
 90
        0
176
     1
 40
0.6
176
     1
 40
30.0
176
     1
 62
     7
420
 16777215
176
     1
 90
        2
176
     1
 90
        2
176
     1
 62
     7
176
     1
 62
     7
176
     1
 90
        1
176
     1
 90
        1
176
     1
 40
40.0
176
     1
 90
       11
176
     1
 62
     7
176
     1
 40
1.0
176
     1
 90
        1
176
     1
 90
        6
176
     1
 90
        2
176
     1
 62
     7
176
     1
 90
        6
176
     1
 90
        0
176
     1
 90
        0
176
     1
290
     0
176
     1
 90
        1
176
     1
 40
0.0
176
     1
 90
        0
176
     1
290
     0
176
     1
290
     1
176
     1
290
     1
176
     1
290
     0
176
     1
290
     0
176
     1
290
     0
176
     1
290
     0
176
     1
290
     0
176
     1
290
     0
176
     1
 90
       50
176
     1
 40
0.0
176
     1
 40
1.0
176
     1
 90
        0
176
     1
 62
    18
420
        0
176
     1
 90
       50
176
     1
 90
        3
176
     1
 62
     5
420
      255
176
     1
290
     0
176
     1
 90
       50
176
     1
 90
       50
176
     1
 90
       50
176
     1
290
     0
176
     1
 90
       50
176
     1
 62
   256
176
     0
 40
1.0
176
     0
 90
        2
176
     1
  1
strokes_ogs.tif
176
     1
290
     0
176
     1
 40
1.0
176
     1
 40
1.0
176
     1
  0
VISUALSTYLE
  5
37
102
{ACAD_REACTORS
330
2A
102
}
330
2A
100
AcDbVisualStyle
  2
Thicken
 70
    13
177
     3
291
     1
 70
    58
 90
        2
176
     1
 90
        2
176
     1
 90
        0
176
     1
 90
        0
176
     1
 40
0.6
176
     1
 40
30.0
176
     1
 62
     7
420
 16777215
176
     1
 90
        1
176
     1
 90
        4
176
     1
 62
     7
176
     1
 62
   257
176
     1
 90
        1
176
     1
 90
        1
176
     1
 40
1.0
176
     1
 90
       12
176
     1
 62
     7
176
     1
 40
1.0
176
     1
 90
        1
176
     1
 90
        6
176
     1
 90
        2
176
     1
 62
     7
176
     1
 90
        5
176
     1
 90
        0
176
     1
 90
        0
176
     1
290
     0
176
     1
 90
        1
176
     1
 40
0.0
176
     1
 90
        0
176
     1
290
     0
176
     1
290
     1
176
     1
290
     1
176
     1
290
     0
176
     1
290
     0
176
     1
290
     0
176
     1
290
     0
176
     1
290
     0
176
     1
290
     0
176
     1
 90
       50
176
     1
 40
0.0
176
     1
 40
1.0
176
     1
 90
        0
176
     1
 62
    18
420
        0
176
     1
 90
       50
176
     1
 90
        3
176
     1
 62
     5
420
      255
176
     1
290
     0
176
     1
 90
       50
176
     1
 90
       50
176
     1
 90
       50
176
     1
290
     0
176
     1
 90
       50
176
     1
 62
   256
176
     0
 40
1.0
176
     0
 90
        2
176
     1
  1
strokes_ogs.tif
176
     1
290
     0
176
     1
 40
1.0
176
     1
 40
1.0
176
     1
  0
VISUALSTYLE
  5
30
102
{ACAD_REACTORS
330
2A
102
}
330
2A
100
AcDbVisualStyle
  2
Wireframe
 70
     5
177
     3
291
     0
 70
    58
 90
        0
176
     1
 90
        2
176
     1
 90
        0
176
     1
 90
        0
176
     1
 40
0.6
176
     1
 40
30.0
176
     1
 62
     7
420
 16777215
176
     1
 90
        1
176
     1
 90
        4
176
     1
 62
     7
176
     1
 62
   257
176
     1
 90
        1
176
     1
 90
        1
176
     1
 40
1.0
176
     1
 90
        0
176
     1
 62
   257
176
     1
 40
1.0
176
     1
 90
        1
176
     1
 90
        6
176
     1
 90
        2
176
     1
 62
     7
176
     1
 90
        3
176
     1
 90
        0
176
     1
 90
        0
176
     1
290
     0
176
     1
 90
        1
176
     1
 40
0.0
176
     1
 90
        0
176
     1
290
     0
176
     1
290
     1
176
     1
290
     1
176
     1
290
     0
176
     1
290
     0
176
     1
290
     0
176
     1
290
     0
176
     1
290
     0
176
     1
290
     0
176
     1
 90
       50
176
     1
 40
0.0
176
     1
 40
1.0
176
     1
 90
        0
176
     1
 62
    18
420
        0
176
     1
 90
       50
176
     1
 90
        3
176
     1
 62
     5
420
      255
176
     1
290
     0
176
     1
 90
       50
176
     1
 90
       50
176
     1
 90
       50
176
     1
290
     0
176
     1
 90
       50
176
     1
 62
   256
176
     0
 40
1.0
176
     0
 90
        2
176
     1
  1
strokes_ogs.tif
176
     1
290
     0
176
     1
 40
1.0
176
     1
 40
1.0
176
     1
  0
VISUALSTYLE
  5
40
102
{ACAD_REACTORS
330
2A
102
}
330
2A
100
AcDbVisualStyle
  2
X-Ray
 70
    25
177
     3
291
     0
 70
    58
 90
        2
176
     1
 90
        2
176
     1
 90
        1
176
     1
 90
        1
176
     1
 40
0.5
176
     1
 40
30.0
176
     1
 62
     7
420
 16777215
176
     1
 90
        1
176
     1
 90
        0
176
     1
 62
     7
176
     1
 62
   257
176
     1
 90
        1
176
     1
 90
        1
176
     1
 40
1.0
176
     1
 90
        8
176
     1
 62
     7
176
     1
 40
1.0
176
     1
 90
        1
176
     1
 90
        6
176
     1
 90
        2
176
     1
 62
     7
176
     1
 90
        3
176
     1
 90
        0
176
     1
 90
        0
176
     1
290
     0
176
     1
 90
       13
176
     1
 40
0.0
176
     1
 90
        0
176
     1
290
     0
176
     1
290
     1
176
     1
290
     1
176
     1
290
     0
176
     1
290
     0
176
     1
290
     0
176
     1
290
     0
176
     1
290
     0
176
     1
290
     0
176
     1
 90
       50
176
     1
 40
0.0
176
     1
 40
1.0
176
     1
 90
        0
176
     1
 62
    18
420
        0
176
     1
 90
       50
176
     1
 90
        3
176
     1
 62
     5
420
      255
176
     1
290
     0
176
     1
 90
       50
176
     1
 90
       50
176
     1
 90
       50
176
     1
290
     0
176
     1
 90
       50
176
     1
 62
   256
176
     0
 40
1.0
176
     0
 90
        2
176
     1
  1
strokes_ogs.tif
176
     1
290
     0
176
     1
 40
1.0
176
     1
 40
1.0
176
     1
  0
DICTIONARYVAR
  5
265
102
{ACAD_REACTORS
330
264
102
}
330
264
100
DictionaryVariables
280
     0
  1
1:1
  0
DICTIONARYVAR
  5
26D
102
{ACAD_REACTORS
330
264
102
}
330
264
100
DictionaryVariables
280
     0
  1
3.500000
  0
DICTIONARYVAR
  5
26E
102
{ACAD_REACTORS
330
264
102
}
330
264
100
DictionaryVariables
280
     0
  1
acadiso.lin
  0
DICTIONARYVAR
  5
26A
102
{ACAD_REACTORS
330
264
102
}
330
264
100
DictionaryVariables
280
     0
  1
Standard
  0
DICTIONARYVAR
  5
269
102
{ACAD_REACTORS
330
264
102
}
330
264
100
DictionaryVariables
280
     0
  1
Standard
  0
DICTIONARY
  5
266
330
6A
100
AcDbDictionary
280
     1
281
     1
  3
ACAD_ROUNDTRIP_2008_TABLESTYLE_CELLSTYLEMAP
360
267
  0
CELLSTYLEMAP
  5
267
102
{ACAD_REACTORS
330
266
102
}
330
266
100
AcDbCellStyleMap
 90
        3
300
CELLSTYLE
  1
TABLEFORMAT_BEGIN
 90
        5
170
     1
 91
        0
 92
    32768
 62
   257
 93
        1
300
CONTENTFORMAT
  1
CONTENTFORMAT_BEGIN
 90
        0
 91
        0
 92
        4
 93
        0
300

 40
0.0
140
1.0
 94
        5
 62
     0
340
11
144
6.0
309
CONTENTFORMAT_END
171
     1
301
MARGIN
  1
CELLMARGIN_BEGIN
 40
1.5
 40
1.5
 40
1.5
 40
1.5
 40
1.5
 40
1.5
309
CELLMARGIN_END
 94
        6
 95
        1
302
GRIDFORMAT
  1
GRIDFORMAT_BEGIN
 90
        0
 91
        1
 62
     0
 92
       -2
340
14
 93
        0
 40
0.045
309
GRIDFORMAT_END
 95
        2
302
GRIDFORMAT
  1
GRIDFORMAT_BEGIN
 90
        0
 91
        1
 62
     0
 92
       -2
340
14
 93
        0
 40
0.045
309
GRIDFORMAT_END
 95
        4
302
GRIDFORMAT
  1
GRIDFORMAT_BEGIN
 90
        0
 91
        1
 62
     0
 92
       -2
340
14
 93
        0
 40
0.045
309
GRIDFORMAT_END
 95
        8
302
GRIDFORMAT
  1
GRIDFORMAT_BEGIN
 90
        0
 91
        1
 62
     0
 92
       -2
340
14
 93
        0
 40
0.045
309
GRIDFORMAT_END
 95
       16
302
GRIDFORMAT
  1
GRIDFORMAT_BEGIN
 90
        0
 91
        1
 62
     0
 92
       -2
340
14
 93
        0
 40
0.045
309
GRIDFORMAT_END
 95
       32
302
GRIDFORMAT
  1
GRIDFORMAT_BEGIN
 90
        0
 91
        1
 62
     0
 92
       -2
340
14
 93
        0
 40
0.045
309
GRIDFORMAT_END
309
TABLEFORMAT_END
  1
CELLSTYLE_BEGIN
 90
        1
 91
        1
300
_TITLE
309
CELLSTYLE_END
300
CELLSTYLE
  1
TABLEFORMAT_BEGIN
 90
        5
170
     1
 91
        0
 92
        0
 62
   257
 93
        1
300
CONTENTFORMAT
  1
CONTENTFORMAT_BEGIN
 90
        0
 91
        0
 92
        4
 93
        0
300

 40
0.0
140
1.0
 94
        5
 62
     0
340
11
144
4.5
309
CONTENTFORMAT_END
171
     1
301
MARGIN
  1
CELLMARGIN_BEGIN
 40
1.5
 40
1.5
 40
1.5
 40
1.5
 40
1.5
 40
1.5
309
CELLMARGIN_END
 94
        6
 95
        1
302
GRIDFORMAT
  1
GRIDFORMAT_BEGIN
 90
        0
 91
        1
 62
     0
 92
       -2
340
14
 93
        0
 40
0.045
309
GRIDFORMAT_END
 95
        2
302
GRIDFORMAT
  1
GRIDFORMAT_BEGIN
 90
        0
 91
        1
 62
     0
 92
       -2
340
14
 93
        0
 40
0.045
309
GRIDFORMAT_END
 95
        4
302
GRIDFORMAT
  1
GRIDFORMAT_BEGIN
 90
        0
 91
        1
 62
     0
 92
       -2
340
14
 93
        0
 40
0.045
309
GRIDFORMAT_END
 95
        8
302
GRIDFORMAT
  1
GRIDFORMAT_BEGIN
 90
        0
 91
        1
 62
     0
 92
       -2
340
14
 93
        0
 40
0.045
309
GRIDFORMAT_END
 95
       16
302
GRIDFORMAT
  1
GRIDFORMAT_BEGIN
 90
        0
 91
        1
 62
     0
 92
       -2
340
14
 93
        0
 40
0.045
309
GRIDFORMAT_END
 95
       32
302
GRIDFORMAT
  1
GRIDFORMAT_BEGIN
 90
        0
 91
        1
 62
     0
 92
       -2
340
14
 93
        0
 40
0.045
309
GRIDFORMAT_END
309
TABLEFORMAT_END
  1
CELLSTYLE_BEGIN
 90
        2
 91
        1
300
_HEADER
309
CELLSTYLE_END
300
CELLSTYLE
  1
TABLEFORMAT_BEGIN
 90
        5
170
     1
 91
        0
 92
        0
 62
   257
 93
        1
300
CONTENTFORMAT
  1
CONTENTFORMAT_BEGIN
 90
        0
 91
        0
 92
        4
 93
        0
300

 40
0.0
140
1.0
 94
        2
 62
     0
340
11
144
4.5
309
CONTENTFORMAT_END
171
     1
301
MARGIN
  1
CELLMARGIN_BEGIN
 40
1.5
 40
1.5
 40
1.5
 40
1.5
 40
1.5
 40
1.5
309
CELLMARGIN_END
 94
        6
 95
        1
302
GRIDFORMAT
  1
GRIDFORMAT_BEGIN
 90
        0
 91
        1
 62
     0
 92
       -2
340
14
 93
        0
 40
0.045
309
GRIDFORMAT_END
 95
        2
302
GRIDFORMAT
  1
GRIDFORMAT_BEGIN
 90
        0
 91
        1
 62
     0
 92
       -2
340
14
 93
        0
 40
0.045
309
GRIDFORMAT_END
 95
        4
302
GRIDFORMAT
  1
GRIDFORMAT_BEGIN
 90
        0
 91
        1
 62
     0
 92
       -2
340
14
 93
        0
 40
0.045
309
GRIDFORMAT_END
 95
        8
302
GRIDFORMAT
  1
GRIDFORMAT_BEGIN
 90
        0
 91
        1
 62
     0
 92
       -2
340
14
 93
        0
 40
0.045
309
GRIDFORMAT_END
 95
       16
302
GRIDFORMAT
  1
GRIDFORMAT_BEGIN
 90
        0
 91
        1
 62
     0
 92
       -2
340
14
 93
        0
 40
0.045
309
GRIDFORMAT_END
 95
       32
302
GRIDFORMAT
  1
GRIDFORMAT_BEGIN
 90
        0
 91
        1
 62
     0
 92
       -2
340
14
 93
        0
 40
0.045
309
GRIDFORMAT_END
309
TABLEFORMAT_END
  1
CELLSTYLE_BEGIN
 90
        3
 91
        2
300
_DATA
309
CELLSTYLE_END
  0
ENDSEC
  0
EOF
